<svg width="400" height="400" viewBox="0 0 400 400" fill="none" xmlns="http://www.w3.org/2000/svg">
<path d="M359.92 318.8H333.44V319.04H359.92V318.8Z" fill="#EBEBEB"/>
<path d="M264.96 320.96H258V321.2H264.96V320.96Z" fill="#EBEBEB"/>
<path d="M332.64 311.36H317.28V311.6H332.64V311.36Z" fill="#EBEBEB"/>
<path d="M76.56 312.72H42V312.96H76.56V312.72Z" fill="#EBEBEB"/>
<path d="M88.72 312.72H83.68V312.96H88.72V312.72Z" fill="#EBEBEB"/>
<path d="M180.16 316.08H105.2V316.32H180.16V316.08Z" fill="#EBEBEB"/>
<path d="M189.6 270.24H35.12C32.64 270.24 30.56 268.16 30.56 265.68V48.56C30.56 46.08 32.64 44 35.12 44H189.6C192.08 44 194.16 46.08 194.16 48.56V265.68C194.16 268.16 192.16 270.24 189.6 270.24ZM35.12 44.16C32.72 44.16 30.72 46.08 30.72 48.56V265.68C30.72 268.08 32.64 270.08 35.12 270.08H189.6C192 270.08 194 268.16 194 265.68V48.56C194 46.16 192.08 44.16 189.6 44.16H35.12Z" fill="#EBEBEB"/>
<path d="M362.64 270.24H208.16C205.68 270.24 203.6 268.16 203.6 265.68V48.56C203.6 46.08 205.68 44 208.16 44H362.64C365.12 44 367.2 46.08 367.2 48.56V265.68C367.2 268.16 365.2 270.24 362.64 270.24ZM208.16 44.16C205.76 44.16 203.76 46.08 203.76 48.56V265.68C203.76 268.08 205.68 270.08 208.16 270.08H362.64C365.04 270.08 367.04 268.16 367.04 265.68V48.56C367.04 46.16 365.12 44.16 362.64 44.16H208.16Z" fill="#EBEBEB"/>
<path d="M400 305.92H0V306.16H400V305.92Z" fill="#EBEBEB"/>
<path d="M344.64 216.72H196.56V296.4H344.64V216.72Z" fill="#E6E6E6"/>
<path d="M208.4 299.68H199.12V306.72H208.4V299.68Z" fill="#E6E6E6"/>
<path d="M355.92 210.8H346.64V306.8H355.92V210.8Z" fill="#E6E6E6"/>
<path d="M344.24 210.8H341.76H199.12H196.64H194.16V306.8H199.12V301.44H341.84V306.8H346.8V210.8H344.24ZM341.76 252.8H272.88V219.44H341.76V252.8ZM199.12 219.44H268V292.64H199.12V219.44ZM272.88 292.64V257.68H341.76V292.64H272.88Z" fill="#F0F0F0"/>
<path d="M268 223.04H203.76V292.64H268V223.04Z" fill="#F5F5F5"/>
<path d="M265.04 255.76C265.04 257.44 263.68 258.72 262.08 258.72C260.4 258.72 259.12 257.36 259.12 255.76C259.12 254.08 260.48 252.8 262.08 252.8C263.68 252.8 265.04 254.16 265.04 255.76Z" fill="#FAFAFA"/>
<path d="M262.08 258.72C260.88 258.72 259.84 258 259.36 256.96C259.2 257.36 259.12 257.76 259.12 258.24C259.12 259.92 260.48 261.2 262.08 261.2C263.68 261.2 265.04 259.84 265.04 258.24C265.04 257.76 264.96 257.36 264.8 256.96C264.32 258.08 263.28 258.72 262.08 258.72Z" fill="#E0E0E0"/>
<path d="M228.64 292.64H243.92L251.28 223.04H235.92L228.64 292.64Z" fill="#FAFAFA"/>
<path d="M247.92 292.64H250.96L258.24 223.04H255.2L247.92 292.64Z" fill="#FAFAFA"/>
<path d="M288.4 222.96H282.32V252.72H288.4V222.96Z" fill="#FAFAFA"/>
<path d="M313.6 222.96H307.52V252.72H313.6V222.96Z" fill="#F5F5F5"/>
<path d="M294.48 225.04H288.4V252.72H294.48V225.04Z" fill="#F5F5F5"/>
<path d="M307.52 225.04H301.44V252.72H307.52V225.04Z" fill="#FAFAFA"/>
<path d="M301.44 222.96H297.52V252.72H301.44V222.96Z" fill="#EBEBEB"/>
<path d="M297.52 225.04H294.48V252.72H297.52V225.04Z" fill="#FAFAFA"/>
<path d="M319.68 222.96H313.6V252.72H319.68V222.96Z" fill="#EBEBEB"/>
<path d="M325.76 225.04H319.68V252.72H325.76V225.04Z" fill="#E6E6E6"/>
<path d="M338.72 225.04H332.64V252.72H338.72V225.04Z" fill="#E6E6E6"/>
<path d="M332.64 222.96H328.72V252.72H332.64V222.96Z" fill="#FAFAFA"/>
<path d="M328.72 225.04H325.68V252.72H328.72V225.04Z" fill="#EBEBEB"/>
<path d="M341.76 223.68H338.72V252.8H341.76V223.68Z" fill="#EBEBEB"/>
<path d="M335.723 292.692H341.803V262.932H335.723V292.692Z" fill="#EBEBEB"/>
<path d="M310.529 292.692H316.609V262.932H310.529V292.692Z" fill="#FAFAFA"/>
<path d="M329.588 292.706H335.668V265.026H329.588V292.706Z" fill="#FAFAFA"/>
<path d="M316.584 292.706H322.664V265.026H316.584V292.706Z" fill="#EBEBEB"/>
<path d="M322.652 292.692H326.572V262.932H322.652V292.692Z" fill="#FAFAFA"/>
<path d="M326.567 292.706H329.607V265.026H326.567V292.706Z" fill="#F5F5F5"/>
<path d="M304.474 292.692H310.554V262.932H304.474V292.692Z" fill="#EBEBEB"/>
<path d="M298.419 292.706H304.499V265.026H298.419V292.706Z" fill="#F5F5F5"/>
<path d="M285.414 292.706H291.494V265.026H285.414V292.706Z" fill="#E6E6E6"/>
<path d="M291.483 292.692H295.403V262.932H291.483V292.692Z" fill="#FAFAFA"/>
<path d="M278.478 292.692H282.398V262.932H278.478V292.692Z" fill="#FAFAFA"/>
<path d="M295.397 292.706H298.437V265.026H295.397V292.706Z" fill="#EBEBEB"/>
<path d="M282.393 292.678H285.433V263.558H282.393V292.678Z" fill="#EBEBEB"/>
<path d="M134.8 112.48C134.64 95.92 125.36 80.48 110.4 73.04C95.52 65.6 77.28 67.28 64.08 77.36C52.96 85.76 46.72 98.88 46.64 112.72C46.64 116.8 46.64 120.88 46.64 124.96C46.64 145.6 46.64 166.24 46.64 186.88C46.64 211.76 46.64 236.64 46.64 261.52C46.64 270.72 46.64 279.84 46.64 289.04C46.64 293.52 46.08 298.4 46.64 302.88C46.64 303.12 46.64 303.28 46.64 303.52C46.64 304.96 48.88 304.96 48.88 303.52C48.88 292.96 48.88 282.4 48.88 271.84C48.88 248.96 48.88 226.08 48.88 203.2C48.88 181.28 48.88 159.28 48.88 137.36C48.88 130.72 48.88 124.08 48.88 117.52C48.88 111.36 49.04 105.36 50.96 99.44C56.48 82.4 72.88 70.56 90.8 70.56C108.72 70.56 125.04 82.4 130.64 99.44C132 103.68 132.64 108 132.72 112.48C132.56 113.92 134.8 113.92 134.8 112.48Z" fill="#F5F5F5"/>
<path d="M156.24 118.32C156.24 103.84 144.48 92.08 130 92.08C115.52 92.08 103.76 103.84 103.76 118.32H156.24Z" fill="#F0F0F0"/>
<path d="M132.8 92.24C146 93.68 156.24 104.8 156.24 118.32H109.36C109.36 104.8 119.6 93.6 132.8 92.24Z" fill="#F5F5F5"/>
<path d="M54.16 227.84H41.36V306H54.16V227.84Z" fill="#F5F5F5"/>
<path d="M66.32 306.48H29.12V306.24C29.12 303.68 31.2 301.52 33.84 301.52H61.6C64.16 301.52 66.32 303.6 66.32 306.24V306.48Z" fill="#F5F5F5"/>
<path d="M333.44 190.48L334.48 182.72H325.68L326.72 190.48C322.64 191.92 319.68 195.76 319.68 200.32C319.68 203.6 321.12 207.76 323.44 210.72H336.72C339.04 207.68 340.48 203.52 340.48 200.32C340.4 195.76 337.52 191.92 333.44 190.48Z" fill="#F5F5F5"/>
<path d="M339.12 158.8C339.12 158.8 329.36 174.16 329.68 193.04C329.76 193.04 334.96 170.24 339.12 158.8Z" fill="#F0F0F0"/>
<path d="M321.12 150.8C321.12 150.8 333.36 168.72 330.72 191.28C330.72 191.28 326.4 162.8 321.12 150.8Z" fill="#F0F0F0"/>
<path d="M330.56 196.72C330.56 196.72 333.76 173.44 319.44 166.4C319.36 166.4 326.96 172.24 330.56 196.72Z" fill="#F5F5F5"/>
<path d="M332 203.44C332 203.2 328.32 176 333.84 152.64L334.64 152.8C329.2 176 332.8 203.04 332.88 203.28L332 203.44Z" fill="#F5F5F5"/>
<path d="M331.84 153.04L331.6 153.12C331.2 153.2 330.96 153.6 331.12 154L331.52 155.12C331.68 155.6 332.32 155.76 332.72 155.36L333.12 154.96C333.44 154.56 334.08 154.72 334.24 155.2L334.88 156.8C335.04 157.2 335.52 157.36 335.92 157.12L337.2 156.24C337.6 156 337.6 155.44 337.28 155.12L337.04 154.88C336.64 154.48 336.88 153.68 337.52 153.68L338.72 153.6C339.12 153.6 339.44 153.2 339.36 152.8L339.2 151.84C339.12 151.36 338.64 151.12 338.16 151.36L338.08 151.44C337.52 151.76 336.88 151.2 337.12 150.56L337.44 149.68C337.6 149.28 337.36 148.8 336.88 148.72L335.6 148.56C335.2 148.48 334.8 148.88 334.8 149.28C334.8 150 333.84 150.24 333.52 149.68L333.36 149.36C333.12 148.96 332.56 148.88 332.24 149.2L331.36 150.08C331.04 150.4 331.12 150.8 331.36 151.12L332.08 151.76C332.56 152.24 332.4 152.96 331.84 153.04Z" fill="#EBEBEB"/>
<path d="M196.16 338.96C281.83 338.96 351.28 334.913 351.28 329.92C351.28 324.927 281.83 320.88 196.16 320.88C110.49 320.88 41.04 324.927 41.04 329.92C41.04 334.913 110.49 338.96 196.16 338.96Z" fill="#F5F5F5"/>
<path d="M172.824 279.948H180.904V242.508H172.824V279.948Z" fill="#808191"/>
<path opacity="0.3" d="M172.824 279.948H180.904V242.508H172.824V279.948Z" fill="white"/>
<path d="M182.559 237.578H189.039V200.138H182.559V237.578Z" fill="#808191"/>
<path opacity="0.3" d="M182.559 237.578H189.039V200.138H182.559V237.578Z" fill="white"/>
<path d="M202.4 221.2C191.44 222.16 180.32 222.16 169.36 221.2C161.68 220.56 155.44 213.28 155.44 205.52C155.44 199.44 155.44 196.4 155.44 190.32C155.44 182.64 161.68 177.44 169.36 178.08C180.32 179.04 191.44 179.04 202.4 178.08C210.08 177.44 216.32 182.64 216.32 190.32C216.32 196.4 216.32 199.44 216.32 205.52C216.32 213.28 210.08 220.56 202.4 221.2Z" fill="#808191"/>
<g opacity="0.4">
<path d="M202.4 221.2C191.44 222.16 180.32 222.16 169.36 221.2C161.68 220.56 155.44 213.28 155.44 205.52C155.44 199.44 155.44 196.4 155.44 190.32C155.44 182.64 161.68 177.44 169.36 178.08C180.32 179.04 191.44 179.04 202.4 178.08C210.08 177.44 216.32 182.64 216.32 190.32C216.32 196.4 216.32 199.44 216.32 205.52C216.32 213.28 210.08 220.56 202.4 221.2Z" fill="white"/>
</g>
<path d="M210.08 248.24H143.6C141.92 248.24 140.48 246.88 140.48 245.12V243.68C140.48 239.84 143.6 236.72 147.44 236.72H206.08C209.92 236.72 213.04 239.84 213.04 243.68V245.12C213.2 246.88 211.76 248.24 210.08 248.24Z" fill="#808191"/>
<path opacity="0.4" d="M210.08 248.24H143.6C141.92 248.24 140.48 246.88 140.48 245.12V243.68C140.48 239.84 143.6 236.72 147.44 236.72H206.08C209.92 236.72 213.04 239.84 213.04 243.68V245.12C213.2 246.88 211.76 248.24 210.08 248.24Z" fill="white"/>
<path d="M212.48 319.36L181.84 313.2C181.84 313.12 181.92 312.96 181.92 312.88V277.92C181.92 277.2 181.36 276.64 180.64 276.64H173.04C172.32 276.64 171.76 277.2 171.76 277.92V312.88C171.76 312.96 171.76 313.12 171.84 313.2L141.2 319.36C140.8 319.44 140.56 319.76 140.56 320.16V321.52C140.56 322 141.04 322.4 141.52 322.32L175.04 317.2V321.28C175.04 321.84 175.52 322.24 176 322.24H177.6C178.16 322.24 178.56 321.76 178.56 321.28V317.2L212.08 322.32C212.56 322.4 213.04 322 213.04 321.52V320.16C213.2 319.76 212.88 319.44 212.48 319.36Z" fill="#808191"/>
<path opacity="0.4" d="M212.48 319.36L181.84 313.2C181.84 313.12 181.92 312.96 181.92 312.88V277.92C181.92 277.2 181.36 276.64 180.64 276.64H173.04C172.32 276.64 171.76 277.2 171.76 277.92V312.88C171.76 312.96 171.76 313.12 171.84 313.2L141.2 319.36C140.8 319.44 140.56 319.76 140.56 320.16V321.52C140.56 322 141.04 322.4 141.52 322.32L175.04 317.2V321.28C175.04 321.84 175.52 322.24 176 322.24H177.6C178.16 322.24 178.56 321.76 178.56 321.28V317.2L212.08 322.32C212.56 322.4 213.04 322 213.04 321.52V320.16C213.2 319.76 212.88 319.44 212.48 319.36Z" fill="white"/>
<path d="M214.96 172.48C214.96 172.48 210.16 203.92 210.96 231.44C211.76 258.96 216.56 308.88 216.56 308.88H229.76C229.76 308.88 228.48 248.24 229.52 232.64C230.56 217.04 240.48 171.84 240.48 171.84L214.96 172.48Z" fill="#808191"/>
<path opacity="0.6" d="M214.96 172.48C214.96 172.48 210.16 203.92 210.96 231.44C211.76 258.96 216.56 308.88 216.56 308.88H229.76C229.76 308.88 228.48 248.24 229.52 232.64C230.56 217.04 240.48 171.84 240.48 171.84L214.96 172.48Z" fill="black"/>
<path opacity="0.4" d="M234.16 182.56L231.84 181.6C231.84 181.6 226.4 211.36 229.6 230.08C230.56 220.32 233.84 203.12 236.56 189.92L234.16 182.56Z" fill="black"/>
<path d="M225.68 310.24L226 318.4L220.4 318.48L219.76 309.84L225.68 310.24Z" fill="#FFC3BD"/>
<path opacity="0.1" d="M220.08 314.16H225.84L225.68 310.24L222.16 310H219.76L220.08 314.16Z" fill="black"/>
<path d="M217.2 318.88C216.4 318.88 215.6 318.64 215.36 318.32C215.2 318.08 215.28 317.84 215.36 317.68C215.44 317.52 215.68 317.36 215.84 317.36C216.88 317.12 219.12 318.48 219.2 318.48C219.28 318.48 219.28 318.56 219.28 318.64C219.28 318.72 219.2 318.72 219.12 318.8C218.56 318.88 217.92 318.96 217.2 318.88ZM216.24 317.6C216.16 317.6 216.08 317.6 215.92 317.6C215.76 317.6 215.68 317.68 215.6 317.84C215.52 318 215.52 318.08 215.52 318.16C215.84 318.56 217.44 318.64 218.64 318.56C218 318.08 217.12 317.76 216.24 317.6Z" fill="#808191"/>
<path d="M219.2 318.8C219.12 318.8 219.12 318.8 219.2 318.8C218.4 318.4 216.88 316.96 217.04 316.24C217.04 316.08 217.2 315.84 217.6 315.84C217.92 315.84 218.24 315.92 218.4 316.16C219.2 316.88 219.28 318.56 219.28 318.64C219.28 318.72 219.28 318.72 219.2 318.8ZM217.68 316.16H217.6C217.36 316.16 217.28 316.32 217.28 316.32C217.2 316.72 218.16 317.84 218.96 318.4C218.88 317.68 218.64 316.96 218.16 316.4C218.08 316.24 217.92 316.16 217.68 316.16Z" fill="#808191"/>
<path d="M219.92 317.92L226.88 318.16C227.12 318.16 227.36 318.32 227.44 318.64L228.48 324.4C228.56 324.88 228.24 325.36 227.76 325.52C227.68 325.52 227.6 325.52 227.6 325.52C225.12 325.36 222.88 325.2 219.68 325.04C216 324.88 216.88 325.36 212.56 325.28C209.92 325.2 209.52 322.24 210.64 322.08C215.76 321.6 216.32 320.08 218.4 318.32C218.8 318 219.36 317.84 219.92 317.92Z" fill="#263238"/>
<path d="M214.96 308L215.76 312H230.56V308H214.96Z" fill="#808191"/>
<path d="M260.48 307.92L261.52 318.4L256 318.48L254.56 309.04L260.48 307.92Z" fill="#FFC3BD"/>
<path d="M252.8 318.88C252 318.88 251.2 318.64 250.96 318.32C250.8 318.08 250.88 317.84 250.96 317.68C251.04 317.52 251.28 317.36 251.44 317.36C252.48 317.12 254.72 318.48 254.8 318.48C254.88 318.48 254.88 318.56 254.88 318.64C254.88 318.72 254.8 318.72 254.72 318.8C254.16 318.88 253.44 318.96 252.8 318.88ZM251.84 317.6C251.76 317.6 251.68 317.6 251.52 317.6C251.36 317.6 251.28 317.68 251.2 317.84C251.12 318 251.12 318.08 251.12 318.16C251.44 318.56 253.04 318.64 254.24 318.56C253.52 318.08 252.72 317.76 251.84 317.6Z" fill="#808191"/>
<path d="M254.72 318.8C253.92 318.4 252.4 316.96 252.56 316.24C252.56 316.08 252.72 315.84 253.12 315.84C253.44 315.84 253.76 315.92 253.92 316.16C254.72 316.88 254.8 318.56 254.8 318.64C254.8 318.72 254.8 318.72 254.72 318.8C254.8 318.8 254.8 318.8 254.72 318.8ZM253.28 316.16H253.2C252.96 316.16 252.88 316.32 252.88 316.32C252.8 316.72 253.76 317.84 254.56 318.4C254.48 317.68 254.24 316.96 253.76 316.4C253.68 316.24 253.44 316.16 253.28 316.16Z" fill="#808191"/>
<path d="M255.44 317.92L262.4 318.16C262.64 318.16 262.88 318.32 262.96 318.64L264 324.4C264.08 324.88 263.76 325.36 263.28 325.52C263.2 325.52 263.12 325.52 263.12 325.52C260.64 325.36 258.4 325.2 255.2 325.04C251.52 324.88 252.4 325.36 248.08 325.28C245.44 325.2 245.04 322.24 246.16 322.08C251.28 321.6 251.84 320.08 253.92 318.32C254.4 318 254.88 317.84 255.44 317.92Z" fill="#263238"/>
<path opacity="0.1" d="M255.2 313.44L261.04 312.88L260.64 309.52L254.72 310.08L255.2 313.44Z" fill="black"/>
<path d="M230.96 171.6C230.96 171.6 231.52 210.88 237.6 240.32C243.68 269.76 251.12 308.8 251.12 308.8L263.6 307.2C263.6 307.2 259.52 264.08 255.52 231.36C251.6 198.64 250 169.28 250 169.28L230.96 171.6Z" fill="#808191"/>
<path opacity="0.6" d="M230.96 171.6C230.96 171.6 231.52 210.88 237.6 240.32C243.68 269.76 251.12 308.8 251.12 308.8L263.6 307.2C263.6 307.2 259.52 264.08 255.52 231.36C251.6 198.64 250 169.28 250 169.28L230.96 171.6Z" fill="black"/>
<path d="M249.76 308.16L250.96 312L265.68 310.48L265.28 306.48L249.76 308.16Z" fill="#808191"/>
<path d="M237.44 116.72C233.52 116.8 229.92 117.28 226.8 118C225.76 120.48 224 124.88 223.52 126.32C222.88 128.32 223.28 133.28 222.16 133.44C221.04 133.68 218.72 131.04 216.8 127.6C215.76 125.76 214.4 124.4 213.2 123.6C205.12 128.88 202.32 135.36 202.32 135.36C213.04 149.52 214.08 178.08 214.08 178.08C239.04 180.4 251.12 174.16 251.12 174.16C246.24 153.68 242.4 128.56 241.12 119.92C240.88 118 239.28 116.64 237.44 116.72Z" fill="#808191"/>
<g opacity="0.7">
<path d="M237.44 116.72C233.52 116.8 229.92 117.28 226.8 118C225.76 120.48 224 124.88 223.52 126.32C222.88 128.32 223.28 133.28 222.16 133.44C221.04 133.68 218.72 131.04 216.8 127.6C215.76 125.76 214.4 124.4 213.2 123.6C205.12 128.88 202.32 135.36 202.32 135.36C213.04 149.52 214.08 178.08 214.08 178.08C239.04 180.4 251.12 174.16 251.12 174.16C246.24 153.68 242.4 128.56 241.12 119.92C240.88 118 239.28 116.64 237.44 116.72Z" fill="white"/>
<path opacity="0.1" d="M207.84 138.08C207.84 138.08 211.76 139.28 215.12 146.32C222.96 162.48 213.76 160.96 213.76 160.96C213.76 160.96 209.84 142.96 207.84 138.08Z" fill="black"/>
<path opacity="0.1" d="M243.84 136.96C243.12 132.56 242.48 128.64 242 125.44L241.2 125.12L238.08 125.92C238.16 125.92 240.32 132 243.84 136.96Z" fill="black"/>
</g>
<path d="M254.48 119.36C254.48 119.36 272.08 122.56 275.04 125.28C278 128 285.68 140.16 288.32 144C290.96 147.84 291.68 157.68 286.8 157.28C281.92 156.88 283.92 150.4 283.92 150.4C283.92 150.4 282.16 147.84 282.32 144.4C282.32 144.4 276.08 138.16 270.24 131.52L254.88 128.08L254.48 119.36Z" fill="#FFC3BD"/>
<path d="M237.76 119.36C237.76 119.36 238.96 113.84 253.28 117.44C253.28 117.44 253.84 123.6 253.76 129.84C253.76 129.84 239.52 131.52 238.32 126.64C237.12 121.84 237.76 119.36 237.76 119.36Z" fill="#808191"/>
<path opacity="0.7" d="M237.76 119.36C237.76 119.36 238.96 113.84 253.28 117.44C253.28 117.44 253.84 123.6 253.76 129.84C253.76 129.84 239.52 131.52 238.32 126.64C237.12 121.84 237.76 119.36 237.76 119.36Z" fill="white"/>
<path d="M252.32 116.72C252.32 116.72 253.12 120.24 253.28 130.72H256.4C256.4 130.72 257.36 122.4 255.44 116.72H252.32Z" fill="#808191"/>
<path d="M225.76 97.44C225.76 97.44 227.76 99.84 231.36 99.6C231.36 99.6 228.48 101.92 224.72 100.16C224.64 100.08 222.88 96.96 225.76 97.44Z" fill="#263238"/>
<path d="M213.68 124.24C214.16 120.08 213.04 117.12 212.88 112L222.32 108.4C223.12 113.2 223.36 119.12 227.52 120.08C227.52 120.08 224.64 122.32 223.84 124.88C222.72 128.56 223.52 132.96 221.76 133.36C218.72 134 215.76 124.8 213.68 124.24Z" fill="#FFC3BD"/>
<path opacity="0.2" d="M223.6 115.52C223.92 116.56 224.4 117.6 225.04 118.48C220.4 121.04 216.88 119.52 214.56 116.96C217.52 116.16 220.56 115.6 223.6 115.52Z" fill="black"/>
<path d="M209.04 103.6C209.84 110.08 210 113.84 213.52 116.96C218.8 121.6 226.56 118 227.68 111.44C228.72 105.52 227.12 95.92 220.64 93.84C215.92 92.32 210.88 94.96 209.36 99.6C209.04 100.88 208.88 102.24 209.04 103.6Z" fill="#FFC3BD"/>
<path d="M224.16 106.16C224.16 106.16 225.6 109.12 226.96 110.48C226.08 111.44 224.48 111.12 224.48 111.12L224.16 106.16Z" fill="#ED893E"/>
<path d="M219.92 105.04C219.92 105.52 220.24 106 220.56 106C220.88 106 221.2 105.52 221.12 105.04C221.12 104.56 220.8 104.08 220.48 104.08C220.16 104.08 219.92 104.56 219.92 105.04Z" fill="#263238"/>
<path d="M225.76 104.88C225.76 105.44 226.08 105.84 226.4 105.84C226.72 105.84 227.04 105.36 226.96 104.88C226.96 104.4 226.64 103.92 226.32 104C226 103.92 225.76 104.32 225.76 104.88Z" fill="#263238"/>
<path d="M217.52 103.92C217.68 103.92 217.76 103.84 217.84 103.76C218.4 102.88 219.28 102.32 220.24 102.16C220.4 102.16 220.56 102 220.48 101.84C220.48 101.68 220.32 101.6 220.16 101.6C218.96 101.84 217.92 102.56 217.36 103.6C217.28 103.76 217.36 103.92 217.52 104C217.44 103.92 217.44 103.92 217.52 103.92Z" fill="#263238"/>
<path d="M227.44 102.08C227.52 102.08 227.68 102.08 227.76 101.92C227.84 101.76 227.84 101.6 227.68 101.52C226.88 100.88 225.84 100.72 224.96 100.96C224.8 101.04 224.72 101.2 224.8 101.36C224.88 101.52 225.04 101.6 225.2 101.52C225.92 101.36 226.72 101.52 227.36 102C227.28 102.08 227.36 102.08 227.44 102.08Z" fill="#263238"/>
<path d="M218.32 111.2C218.32 111.2 220.64 113.04 223.44 112.16C223.44 112.16 223.28 112.96 223.28 114.72C223.36 114.72 219.12 116.4 218.32 111.2Z" fill="#263238"/>
<path d="M222.72 112.32C220.24 112.72 218.32 111.2 218.32 111.2C218.4 111.6 218.48 112 218.56 112.32C219.36 112.96 220.64 113.68 222.48 113.52L222.72 112.32Z" fill="white"/>
<path d="M223.04 114.8C222.48 113.6 220.32 113.68 219.28 113.76C220.56 115.36 222.4 114.96 223.04 114.8Z" fill="#C13B37"/>
<path d="M209.52 109.36C209.52 109.36 215.68 108.08 211.92 101.04C211.92 101.04 215.84 100.96 217.2 98.16C217.2 98.16 227.44 100.56 229.76 96.72L226.96 96.32C226.96 96.32 231.68 95.68 230.24 91.76C230.24 91.76 228.24 93.84 225.52 93.36C225.52 93.36 229.2 89.76 225.12 88.48C225.12 88.48 223.12 91.44 214.48 90.96C205.84 90.48 204 95.44 204.64 97.76L204.96 98.88C204.96 98.88 201.76 104 206.08 107.2C210.48 110.4 209.52 109.36 209.52 109.36Z" fill="#263238"/>
<path d="M205.04 98.88C205.04 98.88 202.24 98.16 202.48 95.76H202.4C202.16 96.72 201.44 100.08 205.52 99.76L205.04 98.88Z" fill="#263238"/>
<path d="M206.8 109.44C207.36 110.96 208.48 112.24 209.92 112.96C211.84 113.92 213.28 112.24 213.04 110.24C212.88 108.4 211.6 105.68 209.52 105.6C207.36 105.52 206.16 107.52 206.8 109.44Z" fill="#FFC3BD"/>
<path d="M213.04 122.48C213.04 122.48 218.64 126.16 221.84 132.56C221.84 132.56 222.32 120.88 225.84 117.52H229.36V122L225.84 122.32L229.36 124.64C229.36 124.64 223.04 132.4 222.4 136C222.4 136 217.6 131.44 214.64 130.24L215.36 127.52L212.56 128.88L211.04 125.12L213.04 122.48Z" fill="#808191"/>
<path d="M261.68 180.88L232.56 171.6L228.8 140.4L257.92 149.68L261.68 180.88Z" fill="#808191"/>
<path d="M261.68 180.88L287.76 164.96L283.92 133.76L257.92 149.68L261.68 180.88Z" fill="#808191"/>
<path opacity="0.2" d="M261.68 180.88L287.76 164.96L283.92 133.76L257.92 149.68L261.68 180.88Z" fill="black"/>
<path d="M283.92 133.76L257.92 149.68L228.8 140.4L254.88 124.48L283.92 133.76Z" fill="#808191"/>
<path opacity="0.5" d="M283.92 133.76L257.92 149.68L228.8 140.4L254.88 124.48L283.92 133.76Z" fill="black"/>
<path d="M283.92 133.76C283.92 133.76 254.88 124.56 254.8 124.56L257.84 149.68L283.92 133.76Z" fill="#808191"/>
<path opacity="0.3" d="M283.92 133.76C283.92 133.76 254.88 124.56 254.8 124.56L257.84 149.68L283.92 133.76Z" fill="black"/>
<path d="M257.92 149.68L249.44 163.44L220.32 154.24L228.8 140.4L257.92 149.68Z" fill="#808191"/>
<path opacity="0.3" d="M257.92 149.68L249.44 163.44L220.32 154.24L228.8 140.4L257.92 149.68Z" fill="white"/>
<path d="M257.92 149.68L269.44 161.04L295.52 145.12L283.92 133.76L257.92 149.68Z" fill="#808191"/>
<path opacity="0.3" d="M257.92 149.68L269.44 161.04L295.52 145.12L283.92 133.76L257.92 149.68Z" fill="white"/>
<path d="M292.32 135.2C289.44 134.32 263.44 126.08 263.44 126.08L254.8 124.48L283.92 133.76L292.32 135.2Z" fill="#808191"/>
<path opacity="0.2" d="M292.32 135.2C289.44 134.32 263.44 126.08 263.44 126.08L254.8 124.48L283.92 133.76L292.32 135.2Z" fill="white"/>
<path d="M246.8 128.08C246.8 128.08 221.68 143.44 221.04 143.84V143.92L228.72 140.48L254.8 124.56L246.8 128.08Z" fill="#808191"/>
<path opacity="0.2" d="M246.8 128.08C246.8 128.08 221.68 143.44 221.04 143.84V143.92L228.72 140.48L254.8 124.56L246.8 128.08Z" fill="white"/>
<path d="M201.52 152.4C201.52 152.4 195.36 142.56 201.52 135.76C207.68 128.96 213.84 147.84 213.84 147.84C213.84 147.84 208.4 146.4 201.52 152.4Z" fill="#808191"/>
<path opacity="0.7" d="M201.52 152.4C201.52 152.4 195.36 142.56 201.52 135.76C207.68 128.96 213.84 147.84 213.84 147.84C213.84 147.84 208.4 146.4 201.52 152.4Z" fill="white"/>
<path d="M212.64 148.8C212.64 148.8 217.2 157.84 219.12 162.08C219.12 162.08 225.52 164.64 239.04 166.64C239.04 166.64 245.92 162.64 249.68 164.24C253.84 166 254.96 167.84 253.04 170.08C251.12 172.32 247.36 171.52 247.36 171.52C247.36 171.52 244.4 172.4 240.48 171.76C240.48 171.76 228.16 172.16 216.96 169.6C210.08 168.08 204.08 151.84 204.08 151.84L212.64 148.8Z" fill="#FFC3BD"/>
<path d="M200.56 152.4C200.56 152.4 202.64 149.2 206.72 147.84C210.8 146.48 214.16 146.88 214.16 146.88L214.88 150.24C214.88 150.24 209.6 149.28 202.32 154.8L200.56 152.4Z" fill="#808191"/>
<path d="M275.04 165.12V166.32L271.2 168.56V167.6L273.36 162.96L271.28 164.16V162.96L275.04 160.8V161.76L272.88 166.32L275.04 165.12Z" fill="white"/>
<path d="M276.96 159.68V165.28L275.68 166V160.4L276.96 159.68Z" fill="white"/>
<path d="M282 158.64C282 159.68 281.12 161.04 280.08 161.68L279.28 162.16V163.92L278 164.64V159.04L280.08 157.84C281.12 157.2 282 157.6 282 158.64ZM280.72 159.36C280.72 158.96 280.4 158.8 280.08 159.04L279.28 159.52V160.96L280.08 160.48C280.4 160.24 280.72 159.84 280.72 159.36Z" fill="white"/>
<path d="M313.2 136.16L285.28 123.12C284.8 122.88 284.56 122.32 284.8 121.84L302.24 84.48C302.48 84 303.04 83.76 303.52 84L320.72 92L326.88 109.12L314.48 135.68C314.24 136.16 313.68 136.4 313.2 136.16Z" fill="#808191"/>
<path opacity="0.1" d="M326.88 109.12L320.72 92L319.76 91.6L313.12 105.84L325.68 111.68L326.88 109.12Z" fill="black"/>
<path opacity="0.2" d="M326.88 109.04L315.28 103.6L320.72 92L326.88 109.04Z" fill="black"/>
<path d="M321.586 108.705L300.918 99.0766L294.803 112.203L315.471 121.831L321.586 108.705Z" fill="#808191"/>
<path opacity="0.7" d="M321.586 108.705L300.918 99.0766L294.803 112.203L315.471 121.831L321.586 108.705Z" fill="white"/>
<path d="M302.72 110.32L296.08 112.72L305.12 116.96L302.72 110.32Z" fill="#808191"/>
<path opacity="0.2" d="M302.72 110.32L296.08 112.72L305.12 116.96L302.72 110.32Z" fill="white"/>
<path d="M303.04 116L315.44 121.76L316 120.56L313.04 112.4L303.04 116Z" fill="#808191"/>
<path opacity="0.4" d="M303.04 116L315.44 121.76L316 120.56L313.04 112.4L303.04 116Z" fill="white"/>
<path d="M309.2 108.56C308.64 109.76 307.2 110.32 306 109.76C304.8 109.2 304.24 107.76 304.8 106.56C305.36 105.36 306.8 104.8 308 105.36C309.28 105.92 309.76 107.36 309.2 108.56Z" fill="white"/>
<path d="M292.96 121.6L294.48 121.44C294.48 121.84 294.64 122.16 295.12 122.4C295.76 122.72 296.08 122.4 296.24 122.08L298.16 117.92L299.52 118.56L297.6 122.72C296.96 124.08 295.68 124.4 294.4 123.76C293.52 123.28 293.04 122.56 292.96 121.6Z" fill="white"/>
<path d="M304.08 123.2C303.52 124.4 302.16 124.88 300.96 124.32L300.08 123.92L299.2 125.84L297.84 125.2L300.72 119.12L303.04 120.16C304.08 120.64 304.64 122 304.08 123.2ZM302.64 122.56C302.88 122.08 302.72 121.6 302.24 121.44L301.36 121.04L300.64 122.64L301.52 123.04C302 123.2 302.48 122.96 302.64 122.56Z" fill="white"/>
<path d="M310.24 127.44C309.36 129.28 307.52 129.84 305.84 129.04C303.92 128.16 303.2 126.08 304 124.32C304.8 122.56 306.88 121.76 308.72 122.64C309.92 123.2 310.64 124.24 310.72 125.28L309.2 125.44C309.12 124.96 308.72 124.32 308.08 124C307.04 123.52 305.92 123.92 305.44 124.96C304.96 126 305.36 127.12 306.56 127.68C307.36 128.08 308.08 127.92 308.56 127.44L306.96 126.64L307.52 125.44L310.56 126.88L310.24 127.44Z" fill="white"/>
<path d="M266.96 139.6L248.08 142.56C247.76 142.64 247.44 142.4 247.36 142.08L243.36 116.8C243.28 116.48 243.52 116.16 243.84 116.08L255.52 114.24L264.64 120.88L267.52 138.88C267.52 139.28 267.28 139.52 266.96 139.6Z" fill="#808191"/>
<path opacity="0.1" d="M264.64 120.96L255.52 114.24L254.88 114.4L256.4 124L264.88 122.72L264.64 120.96Z" fill="black"/>
<path opacity="0.2" d="M264.56 120.88L256.72 122.16L255.52 114.24L264.56 120.88Z" fill="black"/>
<path d="M254.08 128.72L250.64 129.28L250.24 131.12L249.68 131.2L251.28 123.84L251.84 123.76L255.6 130.24L255.04 130.32L254.08 128.72ZM253.84 128.24L251.68 124.48L250.8 128.72L253.84 128.24Z" fill="white"/>
<path d="M261.12 124.4L261.84 129.12C262.08 130.64 261.12 131.6 259.76 131.84C258.64 132 257.68 131.68 257.2 131.04L257.6 130.72C257.92 131.2 258.56 131.52 259.68 131.36C260.88 131.2 261.52 130.32 261.36 129.2L261.2 128.32C260.88 129.12 260.24 129.76 259.28 129.92C257.84 130.16 256.56 129.2 256.32 127.76C256.08 126.32 257.04 124.96 258.48 124.8C259.44 124.64 260.32 125.04 260.8 125.76L260.64 124.64L261.12 124.4ZM261.04 126.88C260.88 125.68 259.76 124.88 258.64 125.12C257.44 125.28 256.72 126.4 256.88 127.6C257.04 128.8 258.16 129.6 259.28 129.36C260.4 129.2 261.2 128.08 261.04 126.88Z" fill="white"/>
<path d="M251.68 137.76C251.52 136.56 252.32 135.44 253.52 135.28C254.72 135.12 255.84 135.84 256 137.12C256.16 138.32 255.36 139.44 254.16 139.6C252.96 139.76 251.84 138.96 251.68 137.76ZM255.04 137.2C254.96 136.48 254.32 136.08 253.68 136.16C253.04 136.24 252.56 136.88 252.64 137.6C252.72 138.32 253.36 138.72 254.08 138.64C254.72 138.48 255.12 137.92 255.04 137.2Z" fill="white"/>
<path d="M258.88 135.44L257.84 135.6L258.32 138.8L257.36 138.96L256.88 135.76L255.84 135.92L255.68 135.04L258.72 134.56L258.88 135.44Z" fill="white"/>
<path d="M260.24 135.2L260.4 136L261.92 135.76L262.08 136.64L260.56 136.88L260.8 138.4L259.84 138.56L259.2 134.4L261.68 134L261.84 134.88L260.24 135.2Z" fill="white"/>
<path d="M285.04 112L260 110.72C259.6 110.72 259.2 110.32 259.28 109.92L261.04 76.48C261.04 76.08 261.44 75.68 261.84 75.76L277.28 76.56L287.12 87.6L285.84 111.36C285.84 111.68 285.44 112 285.04 112Z" fill="#808191"/>
<path opacity="0.1" d="M287.12 87.52L277.2 76.48L276.4 76.4L275.76 89.2L286.96 89.76L287.12 87.52Z" fill="black"/>
<path opacity="0.2" d="M287.12 87.44L276.72 86.88L277.2 76.48L287.12 87.44Z" fill="black"/>
<path d="M269.84 107.2L269.76 108.4L266.32 108.24L266.64 102.8L270.08 102.96L270 104.16L267.84 104.08L267.76 104.96L269.68 105.04L269.6 106.24L267.68 106.16L267.6 107.12L269.84 107.2Z" fill="white"/>
<path d="M274.72 105.04C274.64 106.08 273.76 106.88 272.72 106.8L271.92 106.72L271.84 108.48L270.56 108.4L270.88 102.96L272.96 103.04C273.92 103.12 274.72 104 274.72 105.04ZM273.44 104.96C273.44 104.56 273.2 104.24 272.8 104.24L272 104.16L271.92 105.6L272.72 105.68C273.12 105.68 273.44 105.36 273.44 104.96Z" fill="white"/>
<path d="M274.8 107.44L275.92 106.88C276.08 107.36 276.4 107.68 277.04 107.68C277.6 107.68 277.76 107.52 277.84 107.28C277.84 106.96 277.52 106.8 276.72 106.56C275.92 106.32 275.12 105.84 275.2 104.8C275.28 103.76 276.16 103.2 277.12 103.2C278 103.28 278.72 103.68 279.04 104.56L277.92 105.12C277.76 104.72 277.52 104.48 277.04 104.4C276.64 104.4 276.48 104.56 276.4 104.8C276.4 105.04 276.48 105.2 277.36 105.52C278.16 105.84 279.12 106.16 279.04 107.28C278.96 108.32 278.08 108.88 276.88 108.88C275.76 108.8 275.04 108.24 274.8 107.44Z" fill="white"/>
<path d="M276 99.92L275.76 99.6C278.64 97.04 278.88 92.56 276.24 89.68C273.68 86.8 269.2 86.56 266.32 89.2L266.08 88.88C269.12 86.16 273.76 86.4 276.48 89.44C277.84 90.88 278.48 92.8 278.4 94.8C278.32 96.8 277.52 98.64 276 99.92Z" fill="white"/>
<path d="M272.213 84.6569L271.916 84.9245L280.588 94.5551L280.885 94.2875L272.213 84.6569Z" fill="white"/>
<path d="M267.156 88.2832L265.398 88.191L265.306 89.9486L267.064 90.0407L267.156 88.2832Z" fill="#263238"/>
<path d="M276.838 98.9256L275.081 98.8335L274.989 100.591L276.746 100.683L276.838 98.9256Z" fill="#263238"/>
<path d="M277.318 88.7632L275.561 88.6711L275.469 90.4286L277.226 90.5207L277.318 88.7632Z" fill="#263238"/>
<path d="M272.997 83.9646L271.24 83.8725L271.147 85.63L272.905 85.7221L272.997 83.9646Z" fill="#263238"/>
<path d="M281.715 93.6457L279.958 93.5536L279.866 95.3112L281.623 95.4033L281.715 93.6457Z" fill="#263238"/>
<path d="M245.44 85.36L247.76 87.68L250.88 86.88L251.76 90L254.88 90.88L254.08 94L256.32 96.32L254.08 98.64L254.88 101.84L251.76 102.72L250.88 105.84L247.76 104.96L245.44 107.28L243.12 104.96L239.92 105.84L239.04 102.72L235.92 101.84L236.72 98.64L234.48 96.32L236.72 94L235.92 90.88L239.04 90L239.92 86.88L243.12 87.68L245.44 85.36Z" fill="#808191"/>
<path d="M243.84 93.92C243.84 94.56 243.36 94.96 242.72 94.96H241.28V91.52H242.64C243.28 91.52 243.76 91.92 243.76 92.48C243.76 92.8 243.68 92.96 243.44 93.12C243.68 93.28 243.84 93.6 243.84 93.92ZM242.08 92.24V92.88H242.64C242.8 92.88 242.96 92.72 242.96 92.56C242.96 92.4 242.88 92.24 242.64 92.24H242.08ZM243.04 93.84C243.04 93.68 242.88 93.52 242.72 93.52H242.08V94.16H242.72C242.96 94.16 243.04 94.08 243.04 93.84Z" fill="white"/>
<path d="M245.28 91.52V94.96H244.48V91.52H245.28Z" fill="white"/>
<path d="M249.52 93.28C249.52 94.32 248.8 94.96 247.84 94.96C246.72 94.96 246 94.16 246 93.2C246 92.24 246.8 91.44 247.84 91.44C248.48 91.44 249.04 91.76 249.36 92.24L248.72 92.64C248.56 92.4 248.24 92.24 247.84 92.24C247.28 92.24 246.8 92.64 246.8 93.28C246.8 93.84 247.2 94.32 247.92 94.32C248.4 94.32 248.64 94.08 248.8 93.76H247.84V93.04H249.6V93.28H249.52Z" fill="white"/>
<path d="M243.12 98.16C243.12 99.12 242.4 99.92 241.44 99.92H240V96.48H241.36C242.4 96.4 243.12 97.12 243.12 98.16ZM242.32 98.16C242.32 97.6 241.92 97.2 241.44 97.2H240.8V99.12H241.36C241.92 99.12 242.32 98.72 242.32 98.16Z" fill="white"/>
<path d="M245.92 99.12V99.84H243.76V96.4H245.92V97.12H244.56V97.68H245.76V98.4H244.56V99.04H245.92V99.12Z" fill="white"/>
<path d="M248.64 99.28H247.36L247.2 99.84H246.32L247.52 96.4H248.56L249.76 99.84H248.8L248.64 99.28ZM248.4 98.56L248 97.28L247.6 98.56H248.4Z" fill="white"/>
<path d="M252.16 99.12V99.84H250.16V96.4H250.96V99.12H252.16Z" fill="white"/>
<path d="M316.8 144.08C317.36 145.04 318.48 145.68 319.6 145.68C321.36 145.68 322.8 147.12 322.8 148.88C322.8 150 323.44 151.12 324.4 151.68C325.92 152.56 326.48 154.56 325.6 156.08C325.04 157.04 325.04 158.32 325.6 159.28C326.48 160.8 325.92 162.8 324.4 163.68C323.44 164.24 322.8 165.36 322.8 166.48C322.8 168.24 321.36 169.68 319.6 169.68C318.48 169.68 317.36 170.32 316.8 171.28C315.92 172.8 313.92 173.36 312.4 172.48C311.44 171.92 310.16 171.92 309.2 172.48C307.68 173.36 305.68 172.8 304.8 171.28C304.24 170.32 303.12 169.68 302 169.68C300.24 169.68 298.8 168.24 298.8 166.48C298.8 165.36 298.16 164.24 297.2 163.68C295.68 162.8 295.12 160.8 296 159.28C296.56 158.32 296.56 157.04 296 156.08C295.12 154.56 295.68 152.56 297.2 151.68C298.16 151.12 298.8 150 298.8 148.88C298.8 147.12 300.24 145.68 302 145.68C303.12 145.68 304.24 145.04 304.8 144.08C305.68 142.56 307.68 142 309.2 142.88C310.16 143.44 311.44 143.44 312.4 142.88C314 142 315.92 142.56 316.8 144.08Z" fill="#808191"/>
<path opacity="0.8" d="M316.8 144.08C317.36 145.04 318.48 145.68 319.6 145.68C321.36 145.68 322.8 147.12 322.8 148.88C322.8 150 323.44 151.12 324.4 151.68C325.92 152.56 326.48 154.56 325.6 156.08C325.04 157.04 325.04 158.32 325.6 159.28C326.48 160.8 325.92 162.8 324.4 163.68C323.44 164.24 322.8 165.36 322.8 166.48C322.8 168.24 321.36 169.68 319.6 169.68C318.48 169.68 317.36 170.32 316.8 171.28C315.92 172.8 313.92 173.36 312.4 172.48C311.44 171.92 310.16 171.92 309.2 172.48C307.68 173.36 305.68 172.8 304.8 171.28C304.24 170.32 303.12 169.68 302 169.68C300.24 169.68 298.8 168.24 298.8 166.48C298.8 165.36 298.16 164.24 297.2 163.68C295.68 162.8 295.12 160.8 296 159.28C296.56 158.32 296.56 157.04 296 156.08C295.12 154.56 295.68 152.56 297.2 151.68C298.16 151.12 298.8 150 298.8 148.88C298.8 147.12 300.24 145.68 302 145.68C303.12 145.68 304.24 145.04 304.8 144.08C305.68 142.56 307.68 142 309.2 142.88C310.16 143.44 311.44 143.44 312.4 142.88C314 142 315.92 142.56 316.8 144.08Z" fill="white"/>
<path d="M302.32 155.04L302.16 156.08L299.36 155.6L300.08 150.8L301.2 150.96L300.64 154.72L302.32 155.04Z" fill="#808191"/>
<path d="M303.2 151.84C303.28 151.52 303.6 151.28 303.92 151.36C304.24 151.44 304.48 151.76 304.4 152.08C304.32 152.4 304 152.64 303.68 152.56C303.44 152.48 303.2 152.16 303.2 151.84ZM303.2 152.72L304.24 152.88L303.68 156.32L302.64 156.16L303.2 152.72Z" fill="#808191"/>
<path d="M309.92 155.12L309.6 157.2L308.56 157.04L308.88 155.04C308.96 154.72 308.8 154.48 308.48 154.4C308.16 154.32 307.92 154.56 307.84 154.96L307.52 156.88L306.48 156.72L306.8 154.72C306.88 154.4 306.72 154.16 306.4 154.08C306.08 154 305.84 154.24 305.76 154.64L305.44 156.56L304.4 156.4L304.96 152.96L306 153.12L305.92 153.44C306.08 153.2 306.48 153.12 306.88 153.2C307.28 153.28 307.52 153.44 307.68 153.76C307.92 153.52 308.24 153.36 308.72 153.44C309.6 153.68 310.08 154.32 309.92 155.12Z" fill="#808191"/>
<path d="M310.96 153.04C311.04 152.72 311.36 152.48 311.68 152.56C312 152.64 312.24 152.96 312.16 153.28C312.08 153.6 311.76 153.84 311.44 153.76C311.12 153.68 310.88 153.36 310.96 153.04ZM310.88 153.92L311.92 154.08L311.36 157.52L310.32 157.36L310.88 153.92Z" fill="#808191"/>
<path d="M313.84 155.44L313.68 156.64C313.6 156.96 313.92 157.04 314.32 157.04L314.16 158C312.8 157.92 312.48 157.44 312.64 156.48L312.8 155.28L312.24 155.2L312.4 154.24L312.96 154.32L313.04 153.68L314.08 153.52L313.92 154.48L314.64 154.56L314.48 155.52L313.84 155.44Z" fill="#808191"/>
<path d="M316.72 157.52C316.96 157.6 317.28 157.52 317.44 157.36L318.16 158C317.76 158.4 317.2 158.56 316.56 158.48C315.36 158.32 314.8 157.36 314.96 156.4C315.12 155.36 316 154.72 317.04 154.88C318 155.04 318.64 155.92 318.48 156.96C318.48 157.12 318.4 157.2 318.4 157.36L316 156.96C316 157.28 316.32 157.44 316.72 157.52ZM317.52 156.4C317.44 156 317.2 155.76 316.88 155.76C316.48 155.68 316.24 155.84 316.08 156.16L317.52 156.4Z" fill="#808191"/>
<path d="M323.12 154.48L322.4 159.28L321.36 159.12L321.44 158.8C321.2 159.04 320.8 159.12 320.32 159.04C319.44 158.88 318.8 158 318.96 156.96C319.12 155.92 320 155.28 320.88 155.44C321.36 155.52 321.68 155.76 321.84 156L322.08 154.32L323.12 154.48ZM321.6 157.36C321.68 156.88 321.36 156.48 320.88 156.4C320.4 156.32 320 156.56 319.92 157.12C319.84 157.6 320.16 158 320.64 158.08C321.12 158.16 321.52 157.92 321.6 157.36Z" fill="#808191"/>
<path d="M302.16 160.88C302.4 159.44 303.68 158.56 305.04 158.8C306.4 159.04 307.36 160.24 307.12 161.68C306.88 163.12 305.6 164 304.24 163.76C302.88 163.52 302 162.24 302.16 160.88ZM306.08 161.44C306.24 160.56 305.68 159.92 304.88 159.84C304.08 159.68 303.36 160.16 303.28 161.04C303.12 161.92 303.68 162.56 304.48 162.64C305.2 162.8 305.92 162.32 306.08 161.44Z" fill="#808191"/>
<path d="M311.12 161.12L311.76 161.28L311.6 162.24L310.96 162.16L310.56 164.56L309.52 164.4L309.92 162L309.04 161.84L308.64 164.24L307.6 164.08L308 161.68L307.52 161.6L307.68 160.64L308.16 160.72C308.32 159.76 308.96 159.28 310.08 159.52L309.92 160.48C309.52 160.4 309.28 160.48 309.2 160.88L310.08 161.04V160.96C310.24 160 310.88 159.52 312 159.76L311.84 160.72C311.44 160.72 311.2 160.72 311.12 161.12Z" fill="#808191"/>
<path d="M313.52 164.24C313.76 164.32 314.08 164.24 314.24 164.08L314.96 164.72C314.56 165.12 314 165.28 313.36 165.2C312.16 165.04 311.6 164.08 311.76 163.12C311.92 162.08 312.8 161.44 313.84 161.6C314.8 161.76 315.44 162.64 315.28 163.68C315.28 163.84 315.2 163.92 315.2 164.08L312.8 163.68C312.88 164 313.2 164.24 313.52 164.24ZM314.4 163.12C314.32 162.72 314.08 162.48 313.76 162.48C313.36 162.4 313.12 162.56 312.96 162.88L314.4 163.12Z" fill="#808191"/>
<path d="M318.32 162.32L318.16 163.52C317.76 163.36 317.12 163.44 317.04 164.16L316.8 165.68L315.76 165.52L316.32 162.08L317.36 162.24L317.28 162.88C317.36 162.4 317.84 162.24 318.32 162.32Z" fill="#808191"/>
<g opacity="0.2">
<path d="M302.32 155.04L302.16 156.08L299.36 155.6L300.08 150.8L301.2 150.96L300.64 154.72L302.32 155.04Z" fill="black"/>
<path d="M303.2 151.84C303.28 151.52 303.6 151.28 303.92 151.36C304.24 151.44 304.48 151.76 304.4 152.08C304.32 152.4 304 152.64 303.68 152.56C303.44 152.48 303.2 152.16 303.2 151.84ZM303.2 152.72L304.24 152.88L303.68 156.32L302.64 156.16L303.2 152.72Z" fill="black"/>
<path d="M309.92 155.12L309.6 157.2L308.56 157.04L308.88 155.04C308.96 154.72 308.8 154.48 308.48 154.4C308.16 154.32 307.92 154.56 307.84 154.96L307.52 156.88L306.48 156.72L306.8 154.72C306.88 154.4 306.72 154.16 306.4 154.08C306.08 154 305.84 154.24 305.76 154.64L305.44 156.56L304.4 156.4L304.96 152.96L306 153.12L305.92 153.44C306.08 153.2 306.48 153.12 306.88 153.2C307.28 153.28 307.52 153.44 307.68 153.76C307.92 153.52 308.24 153.36 308.72 153.44C309.6 153.68 310.08 154.32 309.92 155.12Z" fill="black"/>
<path d="M310.96 153.04C311.04 152.72 311.36 152.48 311.68 152.56C312 152.64 312.24 152.96 312.16 153.28C312.08 153.6 311.76 153.84 311.44 153.76C311.12 153.68 310.88 153.36 310.96 153.04ZM310.88 153.92L311.92 154.08L311.36 157.52L310.32 157.36L310.88 153.92Z" fill="black"/>
<path d="M313.84 155.44L313.68 156.64C313.6 156.96 313.92 157.04 314.32 157.04L314.16 158C312.8 157.92 312.48 157.44 312.64 156.48L312.8 155.28L312.24 155.2L312.4 154.24L312.96 154.32L313.04 153.68L314.08 153.52L313.92 154.48L314.64 154.56L314.48 155.52L313.84 155.44Z" fill="black"/>
<path d="M316.72 157.52C316.96 157.6 317.28 157.52 317.44 157.36L318.16 158C317.76 158.4 317.2 158.56 316.56 158.48C315.36 158.32 314.8 157.36 314.96 156.4C315.12 155.36 316 154.72 317.04 154.88C318 155.04 318.64 155.92 318.48 156.96C318.48 157.12 318.4 157.2 318.4 157.36L316 156.96C316 157.28 316.32 157.44 316.72 157.52ZM317.52 156.4C317.44 156 317.2 155.76 316.88 155.76C316.48 155.68 316.24 155.84 316.08 156.16L317.52 156.4Z" fill="black"/>
<path d="M323.12 154.48L322.4 159.28L321.36 159.12L321.44 158.8C321.2 159.04 320.8 159.12 320.32 159.04C319.44 158.88 318.8 158 318.96 156.96C319.12 155.92 320 155.28 320.88 155.44C321.36 155.52 321.68 155.76 321.84 156L322.08 154.32L323.12 154.48ZM321.6 157.36C321.68 156.88 321.36 156.48 320.88 156.4C320.4 156.32 320 156.56 319.92 157.12C319.84 157.6 320.16 158 320.64 158.08C321.12 158.16 321.52 157.92 321.6 157.36Z" fill="black"/>
<path d="M302.16 160.88C302.4 159.44 303.68 158.56 305.04 158.8C306.4 159.04 307.36 160.24 307.12 161.68C306.88 163.12 305.6 164 304.24 163.76C302.88 163.52 302 162.24 302.16 160.88ZM306.08 161.44C306.24 160.56 305.68 159.92 304.88 159.84C304.08 159.68 303.36 160.16 303.28 161.04C303.12 161.92 303.68 162.56 304.48 162.64C305.2 162.8 305.92 162.32 306.08 161.44Z" fill="black"/>
<path d="M311.12 161.12L311.76 161.28L311.6 162.24L310.96 162.16L310.56 164.56L309.52 164.4L309.92 162L309.04 161.84L308.64 164.24L307.6 164.08L308 161.68L307.52 161.6L307.68 160.64L308.16 160.72C308.32 159.76 308.96 159.28 310.08 159.52L309.92 160.48C309.52 160.4 309.28 160.48 309.2 160.88L310.08 161.04V160.96C310.24 160 310.88 159.52 312 159.76L311.84 160.72C311.44 160.72 311.2 160.72 311.12 161.12Z" fill="black"/>
<path d="M313.52 164.24C313.76 164.32 314.08 164.24 314.24 164.08L314.96 164.72C314.56 165.12 314 165.28 313.36 165.2C312.16 165.04 311.6 164.08 311.76 163.12C311.92 162.08 312.8 161.44 313.84 161.6C314.8 161.76 315.44 162.64 315.28 163.68C315.28 163.84 315.2 163.92 315.2 164.08L312.8 163.68C312.88 164 313.2 164.24 313.52 164.24ZM314.4 163.12C314.32 162.72 314.08 162.48 313.76 162.48C313.36 162.4 313.12 162.56 312.96 162.88L314.4 163.12Z" fill="black"/>
<path d="M318.32 162.32L318.16 163.52C317.76 163.36 317.12 163.44 317.04 164.16L316.8 165.68L315.76 165.52L316.32 162.08L317.36 162.24L317.28 162.88C317.36 162.4 317.84 162.24 318.32 162.32Z" fill="black"/>
</g>
<path d="M274.24 218.56H221.2V226.56H274.24V218.56Z" fill="#808191"/>
<path opacity="0.6" d="M274.24 218.56H221.2V226.56H274.24V218.56Z" fill="white"/>
<path d="M127.84 327.76H123.6C123.04 327.76 122.64 327.36 122.64 326.8V226.56H128.72V326.8C128.8 327.36 128.4 327.76 127.84 327.76Z" fill="#808191"/>
<g opacity="0.5">
<path d="M127.84 327.76H123.6C123.04 327.76 122.64 327.36 122.64 326.8V226.56H128.72V326.8C128.8 327.36 128.4 327.76 127.84 327.76Z" fill="white"/>
</g>
<path d="M269.76 327.76H265.52C264.96 327.76 264.56 327.36 264.56 326.8V226.56H270.64V326.8C270.72 327.36 270.24 327.76 269.76 327.76Z" fill="#808191"/>
<path opacity="0.5" d="M269.76 327.76H265.52C264.96 327.76 264.56 327.36 264.56 326.8V226.56H270.64V326.8C270.72 327.36 270.24 327.76 269.76 327.76Z" fill="white"/>
<path d="M236.32 218.56H81.28V226.56H236.32V218.56Z" fill="#808191"/>
<path opacity="0.7" d="M236.32 218.56H81.28V226.56H236.32V218.56Z" fill="white"/>
<path d="M90 327.76H85.76C85.2 327.76 84.8 327.36 84.8 326.8V226.56H90.88V326.8C90.88 327.36 90.48 327.76 90 327.76Z" fill="#808191"/>
<g opacity="0.6">
<path d="M90 327.76H85.76C85.2 327.76 84.8 327.36 84.8 326.8V226.56H90.88V326.8C90.88 327.36 90.48 327.76 90 327.76Z" fill="white"/>
</g>
<path d="M231.84 327.76H227.6C227.04 327.76 226.64 327.36 226.64 326.8V226.56H232.72V326.8C232.8 327.36 232.32 327.76 231.84 327.76Z" fill="#808191"/>
<path opacity="0.6" d="M231.84 327.76H227.6C227.04 327.76 226.64 327.36 226.64 326.8V226.56H232.72V326.8C232.8 327.36 232.32 327.76 231.84 327.76Z" fill="white"/>
<path d="M142.88 216.64H140.88C140.64 216.64 140.48 216.48 140.48 216.24V214.16C140.48 213.92 140.64 213.76 140.88 213.76H142.32C142.48 213.76 142.64 213.84 142.72 214.08L143.28 216.16C143.36 216.4 143.12 216.64 142.88 216.64Z" fill="#808191"/>
<path d="M145.6 216.64H143.6C143.36 216.64 143.2 216.48 143.2 216.24V214.16C143.2 213.92 143.36 213.76 143.6 213.76H145.04C145.2 213.76 145.36 213.84 145.44 214.08L146 216.16C146.08 216.4 145.84 216.64 145.6 216.64Z" fill="#808191"/>
<path d="M148.4 216.64H146.4C146.16 216.64 146 216.48 146 216.24V214.16C146 213.92 146.16 213.76 146.4 213.76H147.84C148 213.76 148.16 213.84 148.24 214.08L148.8 216.16C148.8 216.4 148.64 216.64 148.4 216.64Z" fill="#808191"/>
<path d="M151.12 216.64H149.12C148.88 216.64 148.72 216.48 148.72 216.24V214.16C148.72 213.92 148.88 213.76 149.12 213.76H150.56C150.72 213.76 150.88 213.84 150.96 214.08L151.52 216.16C151.52 216.4 151.36 216.64 151.12 216.64Z" fill="#808191"/>
<path d="M153.84 216.64H151.84C151.6 216.64 151.44 216.48 151.44 216.24V214.16C151.44 213.92 151.6 213.76 151.84 213.76H153.28C153.44 213.76 153.6 213.84 153.68 214.08L154.24 216.16C154.24 216.4 154.08 216.64 153.84 216.64Z" fill="#808191"/>
<path d="M156.56 216.64H154.56C154.32 216.64 154.16 216.48 154.16 216.24V214.16C154.16 213.92 154.32 213.76 154.56 213.76H156C156.16 213.76 156.32 213.84 156.4 214.08L156.96 216.16C157.04 216.4 156.8 216.64 156.56 216.64Z" fill="#808191"/>
<path d="M159.28 216.64H157.28C157.04 216.64 156.88 216.48 156.88 216.24V214.16C156.88 213.92 157.04 213.76 157.28 213.76H158.72C158.88 213.76 159.04 213.84 159.12 214.08L159.68 216.16C159.76 216.4 159.52 216.64 159.28 216.64Z" fill="#808191"/>
<path d="M162.08 216.64H160.08C159.84 216.64 159.68 216.48 159.68 216.24V214.16C159.68 213.92 159.84 213.76 160.08 213.76H161.52C161.68 213.76 161.84 213.84 161.92 214.08L162.48 216.16C162.48 216.4 162.32 216.64 162.08 216.64Z" fill="#808191"/>
<path d="M164.8 216.64H162.8C162.56 216.64 162.4 216.48 162.4 216.24V214.16C162.4 213.92 162.56 213.76 162.8 213.76H164.24C164.4 213.76 164.56 213.84 164.64 214.08L165.2 216.16C165.2 216.4 165.04 216.64 164.8 216.64Z" fill="#808191"/>
<path d="M167.52 216.64H165.52C165.28 216.64 165.12 216.48 165.12 216.24V214.16C165.12 213.92 165.28 213.76 165.52 213.76H166.96C167.12 213.76 167.28 213.84 167.36 214.08L167.92 216.16C167.92 216.4 167.76 216.64 167.52 216.64Z" fill="#808191"/>
<path d="M170.24 216.64H168.24C168 216.64 167.84 216.48 167.84 216.24V214.16C167.84 213.92 168 213.76 168.24 213.76H169.68C169.84 213.76 170 213.84 170.08 214.08L170.64 216.16C170.72 216.4 170.48 216.64 170.24 216.64Z" fill="#808191"/>
<path d="M172.96 216.64H170.96C170.72 216.64 170.56 216.48 170.56 216.24V214.16C170.56 213.92 170.72 213.76 170.96 213.76H172.4C172.56 213.76 172.72 213.84 172.8 214.08L173.36 216.16C173.44 216.4 173.2 216.64 172.96 216.64Z" fill="#808191"/>
<path d="M175.76 216.64H173.76C173.52 216.64 173.36 216.48 173.36 216.24V214.16C173.36 213.92 173.52 213.76 173.76 213.76H175.2C175.36 213.76 175.52 213.84 175.6 214.08L176.16 216.16C176.16 216.4 176 216.64 175.76 216.64Z" fill="#808191"/>
<path d="M178.48 216.64H176.48C176.24 216.64 176.08 216.48 176.08 216.24V214.16C176.08 213.92 176.24 213.76 176.48 213.76H177.92C178.08 213.76 178.24 213.84 178.32 214.08L178.88 216.16C178.88 216.4 178.72 216.64 178.48 216.64Z" fill="#808191"/>
<path d="M181.2 216.64H179.2C178.96 216.64 178.8 216.48 178.8 216.24V214.16C178.8 213.92 178.96 213.76 179.2 213.76H180.64C180.8 213.76 180.96 213.84 181.04 214.08L181.6 216.16C181.6 216.4 181.44 216.64 181.2 216.64Z" fill="#808191"/>
<g opacity="0.6">
<path d="M142.88 216.64H140.88C140.64 216.64 140.48 216.48 140.48 216.24V214.16C140.48 213.92 140.64 213.76 140.88 213.76H142.32C142.48 213.76 142.64 213.84 142.72 214.08L143.28 216.16C143.36 216.4 143.12 216.64 142.88 216.64Z" fill="white"/>
<path d="M145.6 216.64H143.6C143.36 216.64 143.2 216.48 143.2 216.24V214.16C143.2 213.92 143.36 213.76 143.6 213.76H145.04C145.2 213.76 145.36 213.84 145.44 214.08L146 216.16C146.08 216.4 145.84 216.64 145.6 216.64Z" fill="white"/>
<path d="M148.4 216.64H146.4C146.16 216.64 146 216.48 146 216.24V214.16C146 213.92 146.16 213.76 146.4 213.76H147.84C148 213.76 148.16 213.84 148.24 214.08L148.8 216.16C148.8 216.4 148.64 216.64 148.4 216.64Z" fill="white"/>
<path d="M151.12 216.64H149.12C148.88 216.64 148.72 216.48 148.72 216.24V214.16C148.72 213.92 148.88 213.76 149.12 213.76H150.56C150.72 213.76 150.88 213.84 150.96 214.08L151.52 216.16C151.52 216.4 151.36 216.64 151.12 216.64Z" fill="white"/>
<path d="M153.84 216.64H151.84C151.6 216.64 151.44 216.48 151.44 216.24V214.16C151.44 213.92 151.6 213.76 151.84 213.76H153.28C153.44 213.76 153.6 213.84 153.68 214.08L154.24 216.16C154.24 216.4 154.08 216.64 153.84 216.64Z" fill="white"/>
<path d="M156.56 216.64H154.56C154.32 216.64 154.16 216.48 154.16 216.24V214.16C154.16 213.92 154.32 213.76 154.56 213.76H156C156.16 213.76 156.32 213.84 156.4 214.08L156.96 216.16C157.04 216.4 156.8 216.64 156.56 216.64Z" fill="white"/>
<path d="M159.28 216.64H157.28C157.04 216.64 156.88 216.48 156.88 216.24V214.16C156.88 213.92 157.04 213.76 157.28 213.76H158.72C158.88 213.76 159.04 213.84 159.12 214.08L159.68 216.16C159.76 216.4 159.52 216.64 159.28 216.64Z" fill="white"/>
<path d="M162.08 216.64H160.08C159.84 216.64 159.68 216.48 159.68 216.24V214.16C159.68 213.92 159.84 213.76 160.08 213.76H161.52C161.68 213.76 161.84 213.84 161.92 214.08L162.48 216.16C162.48 216.4 162.32 216.64 162.08 216.64Z" fill="white"/>
<path d="M164.8 216.64H162.8C162.56 216.64 162.4 216.48 162.4 216.24V214.16C162.4 213.92 162.56 213.76 162.8 213.76H164.24C164.4 213.76 164.56 213.84 164.64 214.08L165.2 216.16C165.2 216.4 165.04 216.64 164.8 216.64Z" fill="white"/>
<path d="M167.52 216.64H165.52C165.28 216.64 165.12 216.48 165.12 216.24V214.16C165.12 213.92 165.28 213.76 165.52 213.76H166.96C167.12 213.76 167.28 213.84 167.36 214.08L167.92 216.16C167.92 216.4 167.76 216.64 167.52 216.64Z" fill="white"/>
<path d="M170.24 216.64H168.24C168 216.64 167.84 216.48 167.84 216.24V214.16C167.84 213.92 168 213.76 168.24 213.76H169.68C169.84 213.76 170 213.84 170.08 214.08L170.64 216.16C170.72 216.4 170.48 216.64 170.24 216.64Z" fill="white"/>
<path d="M172.96 216.64H170.96C170.72 216.64 170.56 216.48 170.56 216.24V214.16C170.56 213.92 170.72 213.76 170.96 213.76H172.4C172.56 213.76 172.72 213.84 172.8 214.08L173.36 216.16C173.44 216.4 173.2 216.64 172.96 216.64Z" fill="white"/>
<path d="M175.76 216.64H173.76C173.52 216.64 173.36 216.48 173.36 216.24V214.16C173.36 213.92 173.52 213.76 173.76 213.76H175.2C175.36 213.76 175.52 213.84 175.6 214.08L176.16 216.16C176.16 216.4 176 216.64 175.76 216.64Z" fill="white"/>
<path d="M178.48 216.64H176.48C176.24 216.64 176.08 216.48 176.08 216.24V214.16C176.08 213.92 176.24 213.76 176.48 213.76H177.92C178.08 213.76 178.24 213.84 178.32 214.08L178.88 216.16C178.88 216.4 178.72 216.64 178.48 216.64Z" fill="white"/>
<path d="M181.2 216.64H179.2C178.96 216.64 178.8 216.48 178.8 216.24V214.16C178.8 213.92 178.96 213.76 179.2 213.76H180.64C180.8 213.76 180.96 213.84 181.04 214.08L181.6 216.16C181.6 216.4 181.44 216.64 181.2 216.64Z" fill="white"/>
</g>
<path d="M183.2 215.28H138.96V218.56H183.2V215.28Z" fill="#808191"/>
<path opacity="0.5" d="M183.2 215.28H138.96V218.56H183.2V215.28Z" fill="white"/>
<path d="M172.96 143.36H167.68L171.6 199.28H176.88C177.76 199.28 178.4 198.56 178.32 197.68L174.64 144.88C174.64 144.08 173.84 143.36 172.96 143.36Z" fill="#808191"/>
<path opacity="0.7" d="M172.96 143.36H167.68L171.6 199.28H176.88C177.76 199.28 178.4 198.56 178.32 197.68L174.64 144.88C174.64 144.08 173.84 143.36 172.96 143.36Z" fill="white"/>
<path d="M173.84 199.36H94.48C93.6 199.36 92.88 198.64 92.8 197.76L89.12 144.96C89.04 144.08 89.76 143.36 90.56 143.36H169.92C170.8 143.36 171.52 144.08 171.6 144.96L175.28 197.76C175.36 198.64 174.72 199.36 173.84 199.36Z" fill="#808191"/>
<path opacity="0.5" d="M173.84 199.36H94.48C93.6 199.36 92.88 198.64 92.8 197.76L89.12 144.96C89.04 144.08 89.76 143.36 90.56 143.36H169.92C170.8 143.36 171.52 144.08 171.6 144.96L175.28 197.76C175.36 198.64 174.72 199.36 173.84 199.36Z" fill="white"/>
<path d="M106.48 196.96C106.24 196.96 105.92 196.72 105.92 196.48L105.76 194.56C105.76 194.32 105.92 194.08 106.24 194.08C106.48 194.08 106.8 194.32 106.8 194.56L106.96 196.48C106.96 196.72 106.72 196.96 106.48 196.96Z" fill="#808191"/>
<path d="M108.8 196.96C108.56 196.96 108.24 196.72 108.24 196.48L108.08 194.56C108.08 194.32 108.24 194.08 108.56 194.08C108.8 194.08 109.12 194.32 109.12 194.56L109.28 196.48C109.28 196.72 109.04 196.96 108.8 196.96Z" fill="#808191"/>
<path d="M111.12 196.96C110.88 196.96 110.56 196.72 110.56 196.48L110.4 194.56C110.4 194.32 110.56 194.08 110.88 194.08C111.12 194.08 111.44 194.32 111.44 194.56L111.6 196.48C111.6 196.72 111.44 196.96 111.12 196.96Z" fill="#808191"/>
<path d="M103.44 195.52C103.52 196.32 102.88 196.96 102.08 196.96C101.28 196.96 100.56 196.32 100.56 195.52C100.48 194.72 101.12 194.08 101.92 194.08C102.72 194 103.44 194.72 103.44 195.52Z" fill="white"/>
<path d="M103.04 195.52C103.04 196.08 102.64 196.56 102.08 196.56C101.52 196.56 101.04 196.08 100.96 195.52C100.96 194.96 101.36 194.48 101.92 194.48C102.48 194.48 103.04 194.88 103.04 195.52Z" fill="#808191"/>
<path opacity="0.1" d="M128.8 186.96C127.68 186.96 126.8 187.84 126.88 188.96L127.12 199.36H146.48L145.28 188.96C145.12 187.84 144.16 186.96 143.04 186.96H128.8ZM136.72 198.48C134.48 198.48 132.64 196.72 132.48 194.48C132.32 192.24 134 190.48 136.16 190.48C138.4 190.48 140.24 192.24 140.4 194.48C140.56 196.72 138.96 198.48 136.72 198.48Z" fill="black"/>
<path d="M142.48 188.88C142.4 187.76 141.52 186.88 140.4 186.88H126.16C125.04 186.88 124.16 187.76 124.08 188.88L122.64 218.48H143.84L142.48 188.88ZM133.28 198.48C131.04 198.48 129.28 196.72 129.28 194.48C129.28 192.24 131.04 190.48 133.28 190.48C135.52 190.48 137.28 192.24 137.28 194.48C137.28 196.72 135.52 198.48 133.28 198.48Z" fill="#808191"/>
<path opacity="0.3" d="M142.48 188.88C142.4 187.76 141.52 186.88 140.4 186.88H126.16C125.04 186.88 124.16 187.76 124.08 188.88L122.64 218.48H143.84L142.48 188.88ZM133.28 198.48C131.04 198.48 129.28 196.72 129.28 194.48C129.28 192.24 131.04 190.48 133.28 190.48C135.52 190.48 137.28 192.24 137.28 194.48C137.28 196.72 135.52 198.48 133.28 198.48Z" fill="white"/>
<path d="M115.04 218.56H100.96V217.28C100.96 214.8 103.04 212.88 105.44 213.04L110.96 213.36C113.2 213.52 115.04 215.36 115.04 217.6V218.56Z" fill="#808191"/>
<path opacity="0.8" d="M115.04 218.56H100.96V217.28C100.96 214.8 103.04 212.88 105.44 213.04L110.96 213.36C113.2 213.52 115.04 215.36 115.04 217.6V218.56Z" fill="white"/>
</svg>
