<svg width="364" height="325" viewBox="0 0 364 325" fill="none" xmlns="http://www.w3.org/2000/svg">
<path opacity="0.62" fill-rule="evenodd" clip-rule="evenodd" d="M57.88 105.4C50.84 102.04 35.72 110.76 25.48 125.88C16.44 139.24 11.72 154.6 18.52 162.36C23.64 168.28 38.6 169.32 53.32 145C67.96 120.76 63.16 107.8 57.88 105.4ZM353.08 145.08C348.12 130.6 335.96 121.48 329.48 124.12C323 126.84 319 138.44 324.6 155.56C328.92 168.76 341.08 179.24 349.32 176.2C359.64 172.36 357.32 157.48 353.08 145.08ZM347 220.04C346.92 219.64 346.84 219.24 346.76 218.92C346.68 218.44 346.52 217.96 346.36 217.56C346.28 217.24 346.2 216.92 346.04 216.6C346.04 216.6 346.04 216.52 346.04 216.44C345.88 216.04 345.8 215.72 345.64 215.32C345.56 215 345.4 214.68 345.32 214.44C345.24 214.28 345.16 214.04 345.08 213.88C345 213.64 344.84 213.32 344.76 213.08C344.6 212.76 344.52 212.44 344.36 212.2C344.2 211.72 343.96 211.32 343.72 210.84C336.12 194.6 319.72 181.72 312.28 167.96C301.4 147.72 303.88 127 292.6 112.44C283.48 100.6 267.56 96.84 246.12 90.44C242.12 89.24 237.88 87.96 233.48 86.52C229.96 85.4 226.36 84.12 222.6 82.68C189.24 70.2 184.2 55.88 153.64 53.08C123.72 50.36 100.6 63.96 88.04 86.36C76.2 107.56 84.52 140.36 64.68 162.2C51.4 176.84 31.16 187.96 21.32 210.76C21.24 211 21.08 211.32 21 211.56C20.84 211.96 20.68 212.36 20.52 212.76C20.2 213.64 19.8 214.6 19.48 215.56C19.32 215.96 19.16 216.36 19.08 216.84C19 217.08 18.92 217.4 18.84 217.64C18.76 218.04 18.6 218.44 18.52 218.84C18.36 219.32 18.2 219.88 18.12 220.36C17.96 220.92 17.88 221.4 17.72 221.96C17.56 222.6 17.48 223.16 17.32 223.8C17.24 224.28 17.16 224.76 17.08 225.24C17 225.72 16.92 226.2 16.84 226.68C16.84 226.84 16.76 227.08 16.76 227.24C16.68 227.64 16.68 227.96 16.6 228.36C16.6 228.52 16.52 228.6 16.52 228.76C16.44 229.08 16.44 229.32 16.44 229.64C16.36 229.96 16.36 230.28 16.36 230.6C16.28 231.08 16.28 231.64 16.2 232.12C13.32 262.52 27.48 300.44 64.84 314.92C102.2 329.4 136.36 306.92 174.12 309.72C210.52 312.44 256.2 336.44 294.76 317.32C296.2 316.6 297.64 315.8 299.08 315C300.52 314.12 301.96 313.24 303.32 312.36C339.48 287.88 351.24 240.2 347 220.04Z" fill="#EEF5FF"/>
<path fill-rule="evenodd" clip-rule="evenodd" d="M303.4 312.2C302.04 313.16 300.6 314.04 299.16 314.84C297.72 315.72 296.28 316.44 294.84 317.16C256.36 336.28 210.6 312.28 174.2 309.56C136.44 306.76 102.28 329.24 64.92 314.76C27.56 300.28 13.48 262.44 16.28 231.96C16.36 231.48 16.36 230.92 16.44 230.44C16.44 230.12 16.52 229.8 16.52 229.48C16.6 229.16 16.6 228.84 16.6 228.6C16.6 228.44 16.6 228.36 16.68 228.2C16.76 227.8 16.76 227.4 16.84 227.08C16.84 226.92 16.92 226.68 16.92 226.52C17 226.04 17.08 225.56 17.16 225.08C17.24 224.6 17.32 224.12 17.4 223.64C17.56 223 17.64 222.44 17.8 221.8C17.96 221.24 18.04 220.76 18.2 220.2C18.36 219.72 18.44 219.16 18.6 218.68C18.68 218.28 18.84 217.88 18.92 217.48C19 217.16 19.08 216.92 19.16 216.68C19.32 216.28 19.4 215.88 19.56 215.4C19.88 214.44 20.2 213.56 20.6 212.6C20.76 212.2 20.92 211.8 21.08 211.4C21.16 211.16 21.32 210.84 21.4 210.6H343.64C343.88 211.08 344.04 211.48 344.28 211.96C344.44 212.28 344.52 212.52 344.68 212.84C344.76 213.08 344.92 213.4 345 213.64C345.08 213.8 345.16 214.04 345.24 214.2C345.32 214.52 345.48 214.84 345.56 215.08C345.72 215.48 345.8 215.8 345.96 216.2C345.96 216.28 345.96 216.28 345.96 216.36C346.04 216.68 346.12 217 346.28 217.32C346.44 217.8 346.52 218.2 346.68 218.68C346.76 219.08 346.84 219.48 346.92 219.8C351.24 240.2 339.48 287.88 303.4 312.2Z" fill="#CEDDEF"/>
<path d="M51.96 65.88C53 64.44 53 62.44 51.8 61.08L46.52 55.16C45.16 53.56 45.24 51.16 46.84 49.8L51.72 45.48C53.32 44.12 55.72 44.2 57.08 45.8L62.28 51.72C63.48 53.08 65.4 53.4 67 52.52C67 52.52 67 52.52 67.08 52.52C68.6 51.64 69.4 49.8 68.84 48.04L66.44 40.52C65.8 38.52 66.92 36.36 68.92 35.72L75.16 33.72C77.16 33.08 79.32 34.2 79.96 36.2L82.36 43.72C82.92 45.4 84.6 46.52 86.36 46.36H86.44C88.2 46.2 89.64 44.76 89.8 43L90.68 35.16C90.92 33.08 92.76 31.56 94.84 31.8L101.32 32.52C103.4 32.76 104.92 34.6 104.68 36.68L103.8 44.52C103.64 46.28 104.68 47.96 106.36 48.52H106.44C108.12 49.08 110.04 48.36 110.92 46.84L114.92 40.04C115.96 38.2 118.28 37.64 120.12 38.68L125.8 41.96C127.64 43 128.2 45.32 127.16 47.16L123.16 53.96C122.28 55.48 122.52 57.48 123.88 58.68C123.88 58.68 123.88 58.68 123.96 58.76C125.32 59.96 127.24 60.12 128.76 59.08L135.16 54.52C136.84 53.32 139.24 53.72 140.44 55.4L144.28 60.76C145.48 62.44 145.08 64.84 143.4 66.04L137 70.6C135.56 71.64 135 73.56 135.72 75.16V75.24C136.44 76.92 138.2 77.8 139.96 77.48L147.64 75.88C149.72 75.48 151.72 76.76 152.12 78.84L153.4 85.24C153.8 87.32 152.52 89.32 150.44 89.72L142.76 91.32C141 91.72 139.72 93.24 139.72 95V95.08C139.72 96.84 140.92 98.44 142.68 98.84L150.36 100.52C152.44 101 153.72 103 153.24 105L151.8 111.4C151.32 113.48 149.32 114.76 147.32 114.28L139.64 112.6C137.88 112.2 136.12 113.08 135.4 114.76V114.84C134.68 116.44 135.16 118.36 136.6 119.48L142.92 124.12C144.6 125.4 145 127.72 143.72 129.4L139.8 134.68C138.52 136.36 136.2 136.76 134.52 135.48L128.2 130.84C126.76 129.8 124.76 129.88 123.4 131.08C123.4 131.08 123.4 131.08 123.32 131.16C121.96 132.36 121.64 134.28 122.52 135.88L126.44 142.76C127.48 144.6 126.84 146.92 125 147.96L119.32 151.16C117.48 152.2 115.16 151.56 114.12 149.72L110.2 142.84C109.32 141.32 107.48 140.52 105.72 141.08H105.64C103.96 141.64 102.84 143.32 103 145.08L103.8 152.92C104.04 155 102.52 156.84 100.36 157.08L93.8 157.72C91.72 157.96 89.88 156.44 89.64 154.28L88.84 146.44C88.68 144.68 87.24 143.24 85.48 143.08H85.4C83.64 142.92 81.96 143.96 81.4 145.64L78.92 153.08C78.28 155.08 76.12 156.12 74.12 155.48L67.88 153.4C65.88 152.76 64.84 150.6 65.48 148.6L67.96 141.16C68.52 139.48 67.8 137.64 66.28 136.68C66.28 136.68 66.28 136.68 66.2 136.68C64.68 135.8 62.68 136.04 61.48 137.4L56.2 143.24C54.76 144.76 52.36 144.92 50.84 143.48L46.04 139.08C44.52 137.64 44.36 135.24 45.8 133.72L51.08 127.88C52.28 126.52 52.44 124.6 51.4 123.08C51.4 123.08 51.4 123.08 51.32 123C50.28 121.56 48.36 121 46.68 121.72L39.48 124.84C37.56 125.64 35.32 124.84 34.52 122.92L31.88 116.92C31.08 115 31.88 112.76 33.8 111.96L41 108.84C42.6 108.12 43.56 106.36 43.16 104.6V104.52C42.84 102.76 41.24 101.48 39.48 101.48L31.64 101.4C29.56 101.4 27.88 99.64 27.88 97.56L27.96 91C27.96 88.92 29.72 87.24 31.8 87.24L39.64 87.32C41.4 87.32 43 86.12 43.4 84.36V84.28C43.8 82.52 42.92 80.76 41.24 80.04L34.04 76.76C32.12 75.88 31.32 73.64 32.12 71.72L34.84 65.72C35.72 63.8 37.96 63 39.88 63.8L47.08 67.08C48.92 67.88 50.84 67.32 51.96 65.88Z" fill="#FFF50A" fill-opacity="0.77"/>
<path d="M123.111 108.931C130.964 91.2452 122.993 70.5418 105.307 62.6887C87.6212 54.8357 66.9178 62.8067 59.0648 80.4925C51.2117 98.1784 59.1827 118.882 76.8686 126.735C94.5544 134.588 115.258 126.617 123.111 108.931Z" fill="#EEF5FF"/>
<path d="M116.581 105.945C122.782 91.8752 116.402 75.4421 102.332 69.2411C88.2618 63.0401 71.8288 69.4194 65.6278 83.4896C59.4268 97.5598 65.8061 113.993 79.8763 120.194C93.9465 126.395 110.38 120.016 116.581 105.945Z" fill="white"/>
<path d="M31.96 178.44C32.52 177.64 32.52 176.52 31.88 175.8L29 172.52C28.2 171.64 28.28 170.36 29.16 169.56L31.88 167.16C32.76 166.36 34.04 166.44 34.84 167.32L37.72 170.6C38.36 171.32 39.48 171.48 40.28 171C41.16 170.52 41.56 169.48 41.24 168.52L39.96 164.36C39.64 163.24 40.2 162.12 41.32 161.72L44.76 160.6C45.88 160.28 47 160.84 47.4 161.96L48.68 166.12C49 167.08 49.88 167.64 50.84 167.56C51.8 167.48 52.6 166.68 52.68 165.72L53.16 161.4C53.32 160.28 54.36 159.4 55.48 159.56L59.08 159.96C60.2 160.12 61.08 161.16 60.92 162.28L60.44 166.6C60.36 167.56 60.92 168.52 61.88 168.84C62.84 169.16 63.88 168.76 64.36 167.88L66.52 164.12C67.08 163.16 68.36 162.76 69.4 163.4L72.52 165.24C73.48 165.8 73.88 167.08 73.24 168.12L71.08 171.88C70.6 172.76 70.76 173.8 71.48 174.52C72.2 175.16 73.32 175.24 74.12 174.68L77.64 172.12C78.6 171.48 79.88 171.64 80.52 172.6L82.6 175.56C83.24 176.52 83.08 177.8 82.12 178.44L78.6 181C77.8 181.56 77.48 182.6 77.88 183.56C78.28 184.44 79.24 185 80.2 184.76L84.44 183.88C85.56 183.64 86.68 184.36 86.92 185.48L87.64 189C87.88 190.12 87.16 191.24 86.04 191.48L81.8 192.36C80.84 192.52 80.12 193.4 80.12 194.36C80.12 195.32 80.76 196.2 81.8 196.44L86.04 197.4C87.16 197.64 87.88 198.76 87.64 199.88L86.84 203.4C86.6 204.52 85.48 205.24 84.36 205L80.12 204.04C79.16 203.8 78.2 204.28 77.8 205.24C77.4 206.12 77.64 207.24 78.44 207.8L81.96 210.36C82.92 211.08 83.08 212.36 82.44 213.32L80.28 216.2C79.56 217.16 78.28 217.32 77.32 216.68L73.8 214.12C73 213.56 71.88 213.56 71.16 214.28C70.44 214.92 70.28 216.04 70.76 216.84L72.92 220.6C73.48 221.64 73.16 222.84 72.12 223.48L69 225.24C67.96 225.8 66.76 225.48 66.12 224.44L63.96 220.68C63.48 219.8 62.44 219.4 61.48 219.72C60.52 220.04 59.96 220.92 60.04 221.88L60.44 226.2C60.52 227.32 59.72 228.36 58.6 228.52L55 228.84C53.88 228.92 52.84 228.12 52.68 227L52.28 222.68C52.2 221.72 51.4 220.92 50.44 220.84C49.48 220.76 48.52 221.32 48.2 222.28L46.84 226.36C46.44 227.48 45.32 228.04 44.2 227.72L40.76 226.6C39.64 226.2 39.08 225.08 39.4 223.96L40.76 219.88C41.08 218.92 40.68 217.88 39.8 217.4C38.92 216.92 37.88 217.08 37.16 217.8L34.2 221C33.4 221.88 32.12 221.88 31.24 221.16L28.6 218.76C27.72 217.96 27.72 216.68 28.44 215.8L31.4 212.6C32.04 211.88 32.12 210.76 31.56 209.96C31 209.16 29.96 208.84 29 209.24L25 211C23.96 211.48 22.68 211 22.28 209.96L21 206.6C20.52 205.56 21 204.28 22.04 203.88L26.04 202.12C26.92 201.72 27.48 200.76 27.24 199.8C27.08 198.84 26.2 198.12 25.24 198.12H20.92C19.8 198.12 18.84 197.16 18.84 196.04V192.44C18.84 191.32 19.8 190.36 20.92 190.36H25.24C26.2 190.36 27.08 189.72 27.32 188.68C27.56 187.72 27.08 186.76 26.12 186.36L22.2 184.6C21.16 184.12 20.68 182.92 21.16 181.8L22.68 178.52C23.16 177.48 24.36 177 25.48 177.48L29.48 179.24C30.28 179.56 31.32 179.24 31.96 178.44Z" fill="#FFF50A" fill-opacity="0.77"/>
<path d="M53.4801 213.72C64.1723 213.72 72.8401 205.052 72.8401 194.36C72.8401 183.668 64.1723 175 53.4801 175C42.7878 175 34.1201 183.668 34.1201 194.36C34.1201 205.052 42.7878 213.72 53.4801 213.72Z" fill="#EEF5FF"/>
<path d="M53.4801 209.72C61.9631 209.72 68.8401 202.843 68.8401 194.36C68.8401 185.877 61.9631 179 53.4801 179C44.997 179 38.1201 185.877 38.1201 194.36C38.1201 202.843 44.997 209.72 53.4801 209.72Z" fill="white"/>
<path d="M291 174.84C291 174.84 285.8 171.08 289.88 166.04C294.04 161 298.2 159.96 298.52 154.76C298.84 149.56 292.36 142.68 300.52 137.96C308.68 133.24 319.88 144.36 317.4 159.48C314.92 174.68 302.2 181.24 291 174.84Z" fill="#307175"/>
<path d="M302.84 187.4C302.84 187.4 308.52 200.68 322.52 197.48C336.52 194.28 339.32 187.08 353.08 183.4C366.84 179.72 364.84 166.92 359.56 162.12C354.04 157.08 346.36 156.76 336.52 164.84C326.68 172.84 318.12 172.04 311.72 174.12C305.32 176.12 303.16 183.4 302.84 187.4Z" fill="#307175"/>
<path d="M298.36 200.36C301.24 197.72 313.48 195.56 321.56 201.56C329.64 207.56 335.16 218.52 340.76 221.4C346.36 224.28 358.84 243.48 346.84 251.48C334.84 259.48 325.32 252.2 320.28 243.4C315.24 234.6 313.96 229.08 305.24 223.72C296.6 218.52 289.96 208.2 298.36 200.36Z" fill="#307175"/>
<path d="M272.44 179.08C272.44 178.92 272.6 178.84 272.76 178.76C287.56 177.24 297.56 172.68 302.44 165.24C307.64 157.24 304.92 148.6 304.84 148.44C304.76 148.28 304.92 148.04 305.08 147.96C305.24 147.88 305.48 148.04 305.56 148.2C305.56 148.28 308.44 157.24 303 165.64C298.04 173.32 287.88 177.96 272.76 179.56C272.52 179.56 272.36 179.4 272.36 179.24C272.44 179.16 272.44 179.08 272.44 179.08Z" fill="#245558"/>
<path d="M266.84 181.64C266.92 181.4 267.16 181.32 267.32 181.4C308.76 197.8 347.64 173.8 348.04 173.56C348.2 173.48 348.44 173.48 348.52 173.64C348.6 173.8 348.6 174.04 348.44 174.12C348.04 174.36 308.76 198.6 267 182.04C266.92 182.04 266.84 181.88 266.84 181.64Z" fill="#245558"/>
<path d="M274.2 190.36C274.2 190.2 274.36 190.12 274.52 190.12C274.92 190.2 313.16 198.44 335.56 237.24C335.64 237.4 335.56 237.56 335.48 237.64C335.32 237.72 335.16 237.64 335.08 237.56C312.84 199 274.76 190.76 274.44 190.68C274.28 190.68 274.12 190.52 274.2 190.36Z" fill="#245558"/>
<path d="M88.52 283.16C88.52 283.16 93.24 283.4 92.68 288.2C92.12 293 89.88 295.32 91.72 298.68C93.64 302.04 100.36 303.72 97.16 309.96C93.96 316.2 82.52 313.64 78.04 303.24C73.72 292.76 79 283.56 88.52 283.16Z" fill="#307175"/>
<path d="M72.36 279.88C72.36 279.88 63.56 273.88 56.04 281.4C48.6 288.92 49.64 294.6 42.52 302.36C35.4 310.12 41.72 317.32 46.92 318.2C52.36 319.16 57.32 316.28 60.28 307.32C63.24 298.36 68.84 295.48 72.12 291.64C75.24 287.88 73.72 282.52 72.36 279.88Z" fill="#307175"/>
<path d="M69.96 267.56C69 271.32 59.8 279.72 49.72 279C39.72 278.28 29.16 272.04 22.84 272.6C16.52 273.16 -4.2 263.72 1.56 250.44C7.32 237.24 19.32 238.28 28.28 243C37.24 247.72 41.32 251.72 51.56 251.48C61.72 251.32 72.84 256.44 69.96 267.56Z" fill="#307175"/>
<path d="M98.44 273.08C98.44 273.16 98.44 273.32 98.36 273.4C89.72 280.2 85.32 287 85.24 293.64C85.16 300.68 90.36 305 90.36 305.08C90.44 305.16 90.52 305.32 90.36 305.48C90.28 305.56 90.12 305.64 89.96 305.48C89.88 305.4 84.52 301 84.6 293.64C84.68 286.84 89.16 279.88 97.88 273C98.04 272.92 98.2 272.92 98.28 273.08C98.36 273.08 98.44 273.08 98.44 273.08Z" fill="#245558"/>
<path d="M97.08 269.16C97.08 269.32 97 269.48 96.84 269.48C64.44 275.72 49.64 306.2 49.48 306.52C49.4 306.68 49.24 306.68 49.08 306.68C48.92 306.6 48.92 306.44 48.92 306.28C49.08 305.96 63.96 275.24 96.68 268.92C96.92 268.92 97.08 269 97.08 269.16Z" fill="#245558"/>
<path d="M95.72 263C95.8 263.16 95.72 263.32 95.56 263.32C95.16 263.48 58.52 277.08 18.76 256.36C18.6 256.28 18.6 256.12 18.68 255.96C18.76 255.8 18.92 255.8 19.08 255.88C58.6 276.44 95.08 262.92 95.4 262.76C95.48 262.76 95.64 262.84 95.72 263Z" fill="#245558"/>
<path d="M165.64 73C167.54 73 169.08 71.4599 169.08 69.56C169.08 67.6601 167.54 66.12 165.64 66.12C163.74 66.12 162.2 67.6601 162.2 69.56C162.2 71.4599 163.74 73 165.64 73Z" fill="#93BBE5"/>
<path d="M307.48 95.64C309.38 95.64 310.92 94.0999 310.92 92.2C310.92 90.3001 309.38 88.76 307.48 88.76C305.58 88.76 304.04 90.3001 304.04 92.2C304.04 94.0999 305.58 95.64 307.48 95.64Z" fill="#93BBE5"/>
<path d="M308.04 90.84H307.08V88.92H308.04V90.84ZM308.04 86.12H307.08V83.32H308.04V86.12ZM308.04 80.52H307.08V77.72H308.04V80.52ZM308.04 74.84H307.08V72.04H308.04V74.84ZM308.04 69.24H307.08V66.44H308.04V69.24ZM166.2 68.6H165.24V65.8H166.2V68.6ZM308.04 63.64H307.08V60.84H308.04V63.64ZM166.2 62.92H165.24V60.12H166.2V62.92ZM308.04 58.04H307.08V55.24H308.04V58.04ZM166.2 57.32H165.24V54.52H166.2V57.32ZM308.04 52.36H307.08V49.56H308.04V52.36ZM166.2 51.72H165.24V48.92H166.2V51.72ZM308.04 46.76H307.08V43.96H308.04V46.76ZM166.2 46.12H165.24V43.32H166.2V46.12ZM308.04 41.16H307.08V38.36H308.04V41.16ZM166.2 40.44H165.24V37.64H166.2V40.44ZM308.04 35.56H307.08V32.76H308.04V35.56ZM166.2 34.84H165.24V32.04H166.2V34.84ZM307.56 30.04H305.08V29.08H308.04V29.88H307.56V30.04ZM302.28 30.04H299.48V29.08H302.28V30.04ZM297.32 30.04H294.52V29.08H297.32V30.04ZM291.72 30.04H288.92V29.08H291.72V30.04ZM286.12 30.04H283.32V29.08H286.12V30.04ZM280.44 30.04H277.64V29.08H280.44V30.04ZM274.84 30.04H272.04V29.08H274.84V30.04ZM269.24 30.04H266.44V29.08H269.24V30.04ZM264.52 30.04H261.72V29.08H264.52V30.04ZM258.84 30.04H256.04V29.08H258.84V30.04ZM253.24 30.04H250.44V29.08H253.24V30.04ZM247.64 30.04H244.84V29.08H247.64V30.04ZM242.04 30.04H239.24V29.08H242.04V30.04ZM236.36 30.04H233.56V29.08H236.36V30.04ZM230.76 30.04H227.96V29.08H230.76V30.04ZM225.16 30.04H222.36V29.08H225.16V30.04ZM219.56 30.04H216.76V29.08H219.56V30.04ZM213.88 30.04H211.08V29.08H213.88V30.04ZM208.28 30.04H205.48V29.08H208.28V30.04ZM202.68 30.04H199.88V29.08H202.68V30.04ZM197.08 30.04H194.28V29.08H197.08V30.04ZM191.4 30.04H188.6V29.08H191.4V30.04ZM185.8 30.04H183V29.08H185.8V30.04ZM180.2 30.04H177.4V29.08H180.2V30.04ZM174.52 30.04H171.72V29.08H174.52V30.04ZM168.92 30.04H166.12V29.08H168.92V30.04Z" fill="#93BBE5"/>
<path d="M185.4 43.4L164.12 56.12C163.32 56.6 162.28 56.36 161.8 55.56L149.08 34.28C148.6 33.48 148.84 32.44 149.64 31.96L170.92 19.24C171.72 18.76 172.76 19 173.24 19.8L185.96 41.08C186.44 41.88 186.2 42.92 185.4 43.4Z" fill="#E4ECF9"/>
<path d="M157.32 37.8C158.999 37.8 160.36 36.4389 160.36 34.76C160.36 33.0811 158.999 31.72 157.32 31.72C155.641 31.72 154.28 33.0811 154.28 34.76C154.28 36.4389 155.641 37.8 157.32 37.8Z" fill="#FFB506"/>
<path d="M178.36 30.6L185.24 42.12L185.16 42.2L163.16 55.4L160.44 50.84C161.24 47.56 164.52 45.64 167.8 46.44L169.16 46.76L172.28 34.2C172.92 31.56 175.64 29.88 178.36 30.6Z" fill="#FFB506"/>
<path d="M265.88 104.6L271.24 72.28C271.32 71.72 271.8 71.4 272.36 71.48L291 74.28L295.48 82.52L291.4 108.04C291.24 109.08 290.28 109.8 289.24 109.64L266.84 106.04C266.2 105.88 265.72 105.24 265.88 104.6Z" fill="#E4ECF9"/>
<path d="M289.88 109.88C289.64 109.96 289.4 109.96 289.16 109.88L266.76 106.28C266.36 106.2 266.04 106.04 265.8 105.72C265.56 105.4 265.48 105 265.56 104.68L270.92 72.36C271 71.72 271.64 71.24 272.36 71.32L291.16 74.12L295.8 82.52L291.72 108.12C291.64 108.68 291.32 109.16 290.84 109.56C290.52 109.64 290.2 109.8 289.88 109.88ZM266.12 104.6C266.04 104.84 266.12 105.08 266.28 105.32C266.44 105.56 266.68 105.64 266.92 105.72L289.32 109.32C289.8 109.4 290.2 109.32 290.6 109C291 108.76 291.24 108.36 291.24 107.88L295.32 82.44L290.92 74.36L272.36 71.64C271.96 71.56 271.56 71.88 271.48 72.28L266.12 104.6Z" fill="#E4ECF9"/>
<path d="M291 74.28L289.72 81.8L295.48 82.52L291 74.28Z" fill="white"/>
<path d="M286.44 80.44C286.36 80.44 286.36 80.44 286.28 80.44L274.92 78.44C274.76 78.44 274.6 78.2 274.6 78.04C274.6 77.88 274.84 77.72 275 77.72L286.36 79.72C286.52 79.72 286.68 79.96 286.68 80.12C286.76 80.36 286.6 80.44 286.44 80.44Z" fill="#93BBE5"/>
<path d="M291 86.76C290.92 86.76 290.92 86.76 290.84 86.76L274.28 83.8C274.12 83.8 273.96 83.56 273.96 83.4C273.96 83.24 274.2 83.08 274.36 83.08L290.92 86.04C291.08 86.04 291.24 86.28 291.24 86.44C291.32 86.68 291.16 86.76 291 86.76Z" fill="#93BBE5"/>
<path d="M289.72 93.64C289.64 93.64 289.64 93.64 289.56 93.64L273 90.68C272.84 90.68 272.68 90.44 272.68 90.28C272.68 90.12 272.92 89.96 273.08 89.96L289.64 92.92C289.8 92.92 289.96 93.16 289.96 93.32C289.96 93.48 289.88 93.64 289.72 93.64Z" fill="#93BBE5"/>
<path d="M288.6 99.72C288.52 99.72 288.52 99.72 288.44 99.72L271.88 96.76C271.72 96.76 271.56 96.52 271.56 96.36C271.56 96.2 271.8 96.04 271.96 96.04L288.52 99C288.68 99 288.84 99.24 288.84 99.4C288.92 99.64 288.76 99.72 288.6 99.72Z" fill="#93BBE5"/>
<path d="M287.8 104.92C287.72 104.92 287.72 104.92 287.64 104.92L271.08 101.96C270.92 101.96 270.76 101.72 270.76 101.56C270.76 101.4 271 101.24 271.16 101.24L287.72 104.2C287.88 104.2 288.04 104.44 288.04 104.6C288.12 104.76 287.96 104.84 287.8 104.92Z" fill="#93BBE5"/>
<path d="M320.68 66.04H298.44C297.32 66.04 296.44 65.16 296.44 64.04V45C296.44 43.88 297.32 43 298.44 43H320.68C321.8 43 322.68 43.88 322.68 45V64.04C322.68 65.16 321.8 66.04 320.68 66.04Z" fill="#F89D13"/>
<path d="M302.12 62.12H299.4C298.84 62.12 298.36 61.64 298.36 61.08V54.92C298.36 54.36 298.84 53.88 299.4 53.88H302.12C302.68 53.88 303.16 54.36 303.16 54.92V61.08C303.08 61.64 302.68 62.12 302.12 62.12Z" fill="white"/>
<path d="M307.96 62.12H305.24C304.68 62.12 304.2 61.64 304.2 61.08V58.36C304.2 57.8 304.68 57.32 305.24 57.32H307.96C308.52 57.32 309 57.8 309 58.36V61.08C309 61.64 308.52 62.12 307.96 62.12Z" fill="white"/>
<path d="M313.8 62.12H311.08C310.52 62.12 310.04 61.64 310.04 61.08V53.08C310.04 52.52 310.52 52.04 311.08 52.04H313.8C314.36 52.04 314.84 52.52 314.84 53.08V61.08C314.84 61.64 314.36 62.12 313.8 62.12Z" fill="white"/>
<path d="M319.72 62.12H317C316.44 62.12 315.96 61.64 315.96 61.08V50.28C315.96 49.72 316.44 49.24 317 49.24H319.72C320.28 49.24 320.76 49.72 320.76 50.28V61.08C320.68 61.64 320.28 62.12 319.72 62.12Z" fill="white"/>
<path d="M260.76 53.72H209.24C206.76 53.72 204.68 51.64 204.68 49.16V5.16C204.68 2.68 206.76 0.599998 209.24 0.599998H260.76C263.24 0.599998 265.32 2.68 265.32 5.16V49.16C265.32 51.72 263.32 53.72 260.76 53.72Z" fill="#297EEC"/>
<path d="M235 48.52C223.24 48.52 213.64 38.92 213.64 27.16C213.64 21.32 216.04 15.72 220.28 11.72C224.28 7.96 229.48 5.88 234.92 5.88C240.44 5.88 245.64 7.96 249.64 11.72C253.88 15.72 256.28 21.32 256.28 27.16C256.36 39 246.76 48.52 235 48.52ZM235 7.72C229.96 7.72 225.24 9.64 221.56 13.08C217.72 16.76 215.48 21.88 215.48 27.24C215.48 37.96 224.2 46.76 235 46.76C245.72 46.76 254.52 38.04 254.52 27.24C254.52 21.88 252.28 16.76 248.44 13.08C244.84 9.64 240.04 7.72 235 7.72Z" fill="white"/>
<path d="M235 18.92C229.48 18.92 224.28 16.84 220.36 13.08C220.2 12.92 220.04 12.68 220.04 12.44C220.04 12.2 220.12 11.96 220.36 11.8C224.36 8.04 229.56 5.96 235 5.96C240.52 5.96 245.72 8.04 249.72 11.8C249.88 11.96 250.04 12.2 250.04 12.44C250.04 12.68 249.96 12.92 249.72 13.08C245.72 16.84 240.52 18.92 235 18.92ZM222.36 12.44C225.88 15.48 230.36 17.16 235 17.16C239.72 17.16 244.12 15.48 247.72 12.44C244.2 9.4 239.72 7.72 235 7.72C230.36 7.72 225.88 9.4 222.36 12.44Z" fill="white"/>
<path d="M221 42.92C220.76 42.92 220.52 42.84 220.36 42.6C220.04 42.2 220.04 41.64 220.36 41.32C224.36 37.56 229.56 35.48 235 35.48C240.52 35.48 245.72 37.56 249.72 41.32C250.12 41.64 250.12 42.28 249.72 42.6C249.4 43 248.76 43 248.44 42.6C244.84 39.16 240.04 37.24 235 37.24C229.96 37.24 225.24 39.16 221.56 42.6C221.48 42.84 221.24 42.92 221 42.92Z" fill="white"/>
<path d="M235 48.52C228.2 48.52 222.92 39.16 222.92 27.16C222.92 15.16 228.2 5.8 235 5.8C241.8 5.8 247.08 15.16 247.08 27.16C247.08 39.16 241.8 48.52 235 48.52ZM235 7.72C229.4 7.72 224.76 16.68 224.76 27.24C224.76 37.8 229.48 46.76 235 46.76C240.52 46.76 245.24 37.8 245.24 27.24C245.32 16.6 240.6 7.72 235 7.72Z" fill="white"/>
<path d="M235 48.52C234.52 48.52 234.12 48.12 234.12 47.64V6.84C234.12 6.36 234.52 5.96 235 5.96C235.48 5.96 235.88 6.36 235.88 6.84V47.64C235.96 48.12 235.56 48.52 235 48.52Z" fill="white"/>
<path d="M226.04 28.12C219.72 28.12 214.84 28.12 214.6 28.12C214.12 28.12 213.72 27.64 213.72 27.16C213.72 26.68 214.2 26.28 214.68 26.28C215.48 26.28 241.72 26.28 255.48 26.28C255.96 26.28 256.36 26.68 256.36 27.16C256.36 27.64 255.96 28.04 255.48 28.04C252.84 28.12 237.16 28.12 226.04 28.12Z" fill="white"/>
<path d="M174.68 296.36C212.147 296.36 242.52 295.106 242.52 293.56C242.52 292.014 212.147 290.76 174.68 290.76C137.213 290.76 106.84 292.014 106.84 293.56C106.84 295.106 137.213 296.36 174.68 296.36Z" fill="#BACCDD"/>
<path d="M195.8 279.16H153.64V291H195.8V279.16Z" fill="#78A6D1"/>
<path d="M277 149.16V274.76C277 277.64 274.68 279.96 271.8 279.96H77.64C74.76 279.96 72.44 277.64 72.44 274.76V149.16C72.44 146.28 74.76 143.96 77.64 143.96H271.8C274.68 143.96 277 146.28 277 149.16Z" fill="#93BBE5"/>
<path d="M277 149.16V268.2H72.44V149.16C72.44 146.28 74.76 143.96 77.64 143.96H271.8C274.68 143.96 277 146.28 277 149.16Z" fill="#93BBE5"/>
<path d="M271.96 149.16H77.4V262.68H271.96V149.16Z" fill="#EEF5FF"/>
<path d="M209.08 293.56H140.36V292.36C140.36 291 141.48 289.8 142.92 289.8H206.6C207.96 289.8 209.16 290.92 209.16 292.36V293.56H209.08Z" fill="#78A6D1"/>
<path d="M184.36 110.92C184.76 111.08 185.16 111.24 185.48 111.32C187.24 111.88 188.92 111.8 191 111.4C191.96 111.24 192.28 110.44 191.88 110.04C192.6 109.96 193.24 109.8 193.96 109.56C195 109.24 194.92 108.28 194.36 107.96C194.68 107.88 195 107.8 195.4 107.72C196.76 107.32 196.36 105.8 195 106.28C193.16 106.84 191.4 106.76 189.64 106.44C191.08 106.52 192.44 106.44 193.88 106.2C195.24 105.96 194.92 104.36 193.64 104.6C191.16 105 188.6 104.68 186.12 103.96C186.84 103.72 187.64 103.48 188.44 103.48C189.8 103.4 189.56 101.8 188.2 101.88C185.4 102.04 183.56 102.44 181 103.56C181 103.56 181 103.56 180.92 103.56L179.4 103.64C180.2 106.36 180.84 109.08 181.4 111.8C183.32 111.32 184.36 110.92 184.36 110.92Z" fill="#FE7D6B"/>
<path d="M189.8 106.6V106.44C189.8 106.44 186.52 105.88 185.96 105.24L185.88 105.32C186.12 105.56 186.6 105.72 187.24 105.96C188.36 106.36 189.72 106.6 189.8 106.6Z" fill="#995033"/>
<path d="M194.36 108.2V108.04C194.28 108.04 189.08 108.6 185.96 107.08L185.88 107.24C186.28 107.4 186.6 107.56 187.08 107.72C190.2 108.6 194.36 108.2 194.36 108.2Z" fill="#995033"/>
<path d="M191.88 110.2V110.04C191.8 110.04 186.6 110.12 185.88 108.84L185.8 109C185.96 109.32 186.44 109.56 187 109.72C188.76 110.28 191.72 110.2 191.88 110.2Z" fill="#995033"/>
<path d="M82.6 200.28C82.6 200.28 84.2 198.76 85.24 198.28L95.32 194.12C95.32 194.12 98.84 189.64 99.88 188.36C100.36 187.72 101.24 187.56 101.88 187.96L105.32 189.88C106.12 190.28 106.36 191.24 105.88 192.04L100.12 202.84C98.28 204.52 96.52 205.8 94.44 207.24L82.6 200.28Z" fill="#FE7D6B"/>
<path d="M84.92 197.56L91.72 194.76L92.2 194.28C92.84 193.72 93.72 193.56 94.52 193.96C96.04 194.68 97.4 195.8 98.28 196.6C98.92 197.16 99.16 198.04 98.84 198.76L98.44 200.12C98.6 200.2 98.84 200.28 99 200.28C101.88 200.92 101.56 199.8 101.72 199.88C101.88 199.96 100.84 204.28 100.12 207.4C99.72 208.92 98.04 209.64 96.76 208.84L81.72 200.12C81.72 200.04 81.8 199.96 81.8 199.88C82.44 198.52 83.96 197.96 84.92 197.56Z" fill="#191919"/>
<path d="M160.28 105.96C152.52 104.28 142.68 55.48 135.32 82.12C132.2 88.36 149.4 118.36 155.64 117.32C161 116.12 186.76 116.28 181.72 107.72C181.16 106.44 181 104.36 180.04 103.48C173.56 104.84 166.92 106.12 160.28 105.96Z" fill="#2276D3"/>
<path d="M140.2 72.92C135.56 70.44 130.68 68.52 125.24 68.52C117.32 68.52 109.4 70.44 102.36 74.12C99.32 75.72 99.64 80.84 99.56 83.72C99.48 87.64 100.2 91.64 101.88 95.24C103.64 98.92 106.44 102.04 108.52 105.56C109.88 107.8 111.64 110.68 111.56 113.4C111.56 115.72 111.8 117.96 112.12 120.28C112.28 121.72 112.28 124.2 113.4 125.24C113.96 125.72 114.76 125.96 115.48 126.12C119.24 127 123.24 126.84 127.08 126.44C134.28 125.8 141.88 124.52 147.32 119.8C145.08 112.2 144.52 104.44 143.56 96.6C143 92.44 142.52 88.2 142.04 84.04C141.72 81.32 141.72 78.84 141.8 76.12C141.88 74.6 141.56 73.72 140.2 72.92Z" fill="#297EEC"/>
<path d="M100.04 126.2C94.6 123.48 90.12 119.72 87.4 114.2C86.92 113.32 86.52 112.36 86.28 111.32C86.04 109.88 86.28 108.44 86.6 107.08C88.04 100.28 90.2 93.56 93.08 87.16C94.44 84.04 95.64 80.84 97.72 78.12C99.32 75.96 102.28 73.72 105.16 74.52C108.2 75.4 109.8 78.92 110.68 81.72C112.04 86.2 110.44 89.8 108.84 93.96C106.76 99.32 104.12 104.44 101.96 109.72C106.76 113.16 111.72 116.52 116.76 119.8C117.96 120.52 119.24 121.24 120.36 122.12C121.64 123.16 121.16 123.4 120.36 124.68C119.96 125.32 117 132.28 116.92 132.2C111 130.84 105.32 128.84 100.04 126.2Z" fill="#2276D3"/>
<path d="M139.56 121.8C139.16 121.16 138.68 120.76 138.28 120.44C136.36 121 134.92 121 133.8 120.92C132.84 120.84 131.88 120.76 130.68 121.24C130.2 121.48 129.8 121.88 129.4 122.28C128.2 123.48 126.76 124.52 125.24 125.32C125.48 126.12 126.52 126.68 127.32 126.36C127.56 126.28 127.8 126.12 127.96 126.04C128.92 125.4 129.88 124.68 130.76 123.88C130.92 123.8 131.16 123.64 131.24 123.8C130.52 124.52 129.8 125.24 128.92 125.88C128.36 126.36 127.8 126.76 127.24 127.16C126.6 127.72 125.96 128.36 125.4 129.08C125.16 129.4 124.92 129.64 124.84 130.04C124.76 130.44 124.84 130.84 125.16 131.08C125.56 131.32 126.12 131 126.52 130.68C128.12 129.4 129.56 127.72 131.48 126.84C129.32 128.36 127.24 129.88 125.16 131.56C125.08 131.64 124.92 131.72 124.84 131.88C124.68 132.2 124.92 132.52 125.16 132.68C125.24 132.76 125.4 132.92 125.48 132.92C125.72 133 125.96 132.84 126.12 132.68C128.28 131.24 130.36 129.8 132.52 128.28C132.12 129.24 131.24 129.96 130.36 130.44C129.48 130.92 128.52 131.32 127.56 131.88C127.32 131.96 127.16 132.12 127.08 132.36C127 132.68 127.24 133 127.48 133.24C127.56 133.32 127.64 133.4 127.8 133.48C127.96 133.56 128.2 133.48 128.36 133.4C130.04 132.68 131.64 131.72 133.08 130.52C133.4 130.2 133.88 129.88 134.28 129.96C133.24 131.4 131.8 132.44 130.44 133.56C130.28 133.72 130.12 133.88 130.12 134.12C130.2 134.44 130.6 134.36 130.92 134.28C133.56 133.4 135.48 131.24 137.32 129.16C137.8 128.6 138.28 128.04 138.68 127.4C139.16 126.6 139.72 125.96 139.88 125.72C140.04 125.48 140.2 125.24 140.36 125.08C140.52 124.52 140.44 123.16 139.56 121.8Z" fill="#E5A589"/>
<path d="M105.64 193.32C110.76 187.64 116.92 180.84 123.88 172.92C130.68 165.24 138.28 156.44 144.92 143.72C148.68 136.6 150.76 130.68 148.28 126.76C147.4 125.4 145.24 122.92 142.04 122.52C139.72 122.2 137.64 123 136.92 123.32C136.6 123.4 135.16 124.04 133.64 125.24C125.8 131.4 119 144.12 119 144.12C109.48 162.04 113.96 153 109.96 160.84C106.6 167.56 102.12 176.6 96.84 187.4C99.8 189.32 102.68 191.32 105.64 193.32Z" fill="#114175"/>
<path d="M149.8 131.56H101.8C100.76 131.56 99.88 130.68 99.88 129.64C99.32 120.28 98.76 110.92 98.2 101.56C98.2 101.4 98.2 100.52 98.92 99.88C99.72 99.08 100.68 99.16 100.84 99.16C117.56 99.24 134.36 99.24 151.08 99.32C151.32 99.4 151.88 99.48 152.44 100.04C153.08 100.6 153.24 101.32 153.32 101.56C152.84 110.92 152.28 120.28 151.8 129.64C151.72 130.68 150.84 131.56 149.8 131.56Z" fill="#3C3D3D"/>
<path d="M150.84 129.64H100.36C100.12 129.64 99.88 129.56 99.72 129.56V129.64C99.72 130.68 100.6 131.56 101.64 131.56H149.56C150.6 131.56 151.48 130.68 151.48 129.64V129.56C151.32 129.64 151.08 129.64 150.84 129.64Z" fill="#C6D1D1"/>
<path d="M125.889 118.841C127.259 118.836 128.365 117.722 128.361 116.353C128.356 114.983 127.242 113.876 125.872 113.881C124.503 113.885 123.396 114.999 123.401 116.369C123.405 117.739 124.519 118.845 125.889 118.841Z" fill="#FFB506"/>
<path d="M153 142.52C145.88 142.28 137.32 141.88 127.56 141.4C118.04 140.92 107.16 140.28 94.36 136.44C87.16 134.28 81.88 131.88 80.84 127.64C80.52 126.2 80.28 123.08 82.04 120.68C83.32 118.92 85.16 118.04 85.88 117.72C86.12 117.64 87.48 117 89.32 116.76C98.52 115.56 111.48 119.32 111.48 119.32C129.64 124.6 120.76 121.72 128.52 124.2C135.16 126.28 144.12 129.16 154.84 132.76C154.12 135.96 153.56 139.24 153 142.52Z" fill="#184785"/>
<path d="M117.24 62.68L115.88 59.4L116.84 59.96C116.84 59.96 117.32 61.24 117.48 62.04C117.64 63 117.24 62.68 117.24 62.68Z" fill="#184785"/>
<path d="M117.64 59C117.64 59.4 117.56 73.64 117.56 73.64C117.56 73.64 119.16 75.56 121.56 75.56C123.96 75.56 126.12 72.76 126.12 72.76L125.8 64.44L117.64 59Z" fill="#FE7D6B"/>
<path d="M125.8 67.56C120.68 69.72 118.2 63.8 118.12 63.72C119.72 64.52 125.32 66.28 125.72 66.36L125.8 67.56Z" fill="#856758"/>
<path d="M123.16 67.24C119.4 67.24 116.92 63.64 116.92 60.04L116.84 54.36C116.84 50.76 119.56 47.88 123 47.8C126.44 47.8 129.24 50.68 129.24 54.2L129.32 59.88C129.32 63.48 126.92 67.16 123.16 67.24Z" fill="#FE7D6B"/>
<path d="M116.2 56.04C115.48 56.12 115.08 56.84 115.08 56.84C115.08 56.84 113.4 53.8 113.48 51.8C113.56 49.88 115.08 49.24 115.08 49.24C115.08 49.24 115.08 47.88 115.56 46.92C116.52 45.16 118.76 45.8 118.76 45.8C118.76 45.8 119.72 44.2 120.84 44.04C123.32 43.56 124.2 44.52 124.2 44.52C124.2 44.52 125.16 43.4 126.92 44.12C128.68 44.84 128.28 46.6 128.28 46.6C128.28 46.6 131.4 45.4 132.12 48.04C132.6 49.72 132.28 51.88 130.12 52.12C128.84 52.28 127.8 51.32 127.8 51.32C127.8 51.32 127.48 52.12 125.8 52.28C123.72 52.44 122.76 50.92 122.76 50.92C122.76 50.92 122.76 51.24 121.48 52.28C120.2 53.32 117.96 51.96 117.96 51.96L117.64 54.36L116.76 57.16L116.68 56.12C116.84 56.2 116.6 56.04 116.2 56.04Z" fill="#184785"/>
<path d="M114.76 58.04C114.76 59.16 115.48 60.04 116.36 60.04C117.96 60.04 117.88 59.08 117.88 57.96C117.88 56.84 117.16 55.96 116.28 55.96C115.4 56.04 114.76 56.92 114.76 58.04Z" fill="#FE7D6B"/>
<path d="M115.4 57.48C115.48 57.24 115.64 56.92 115.88 56.76C116.12 56.68 116.44 56.84 116.44 57.08C116.44 57.16 116.36 57.16 116.36 57.08C116.36 56.92 116.2 56.84 116.12 56.84C115.96 56.84 115.88 56.92 115.8 57.08C115.64 57.32 115.56 57.64 115.64 57.88C115.64 58.2 115.8 58.44 115.96 58.68C116.04 58.76 116.2 58.84 116.28 58.92C116.36 58.92 116.52 58.92 116.68 58.92C116.76 58.92 116.76 58.92 116.76 59C116.68 59.08 116.6 59.16 116.44 59.16C116.28 59.16 116.2 59.08 116.04 59.08C115.8 58.92 115.64 58.68 115.48 58.36C115.32 58.04 115.32 57.72 115.4 57.48Z" fill="#DEAC93"/>
<path d="M165.88 141.96C163.64 143.72 161.48 145.16 160.04 145.08L149.56 140.12C148.76 139.8 147.72 139.48 147.96 138.68L149.24 135C149.48 134.28 150.2 133.88 151 134.04C152.6 134.36 158.04 135.4 158.04 135.4C161.4 134.28 164.68 133.16 168.04 132.04C169.08 131.72 170.12 131.32 171.08 131.72C171 131.8 165.88 141.96 165.88 141.96Z" fill="#FE7D6B"/>
<path d="M159.24 142.44C159.32 142.28 159.48 142.12 159.56 141.96L158.2 141.16C157.64 140.84 157.32 140.12 157.32 139.48C157.48 138.28 157.72 136.28 158.36 134.68C158.6 134.04 159.32 133.56 160.04 133.56H160.52L168.6 127.96C169.56 127.64 171 127.16 172.36 127.72C172.52 127.8 172.68 127.96 172.84 128.28L163.56 146.76C163.24 147.32 162.6 147.56 162.04 147.24C159.32 145.72 155.72 143.32 155.88 143.24C157.16 142.84 157.56 144.84 159.24 142.44Z" fill="#191919"/>
<path d="M125.24 59.48C125.32 59.48 125.32 59.48 125.24 59.48C125.56 59.4 127 59.16 127.08 58.44C127.16 57.72 126.04 55.64 125.8 55.24C125.72 55.16 125.64 55.08 125.48 55.16C125.4 55.24 125.32 55.32 125.4 55.48C125.88 56.36 126.68 57.96 126.6 58.36C126.6 58.68 125.72 58.92 125.16 59C125 59 124.92 59.16 125 59.24C125.08 59.4 125.16 59.48 125.24 59.48Z" fill="#C6493C"/>
<path d="M128.84 55.48C128.84 55.88 128.6 56.2 128.28 56.2C127.96 56.2 127.64 55.96 127.56 55.56C127.56 55.16 127.8 54.84 128.12 54.84C128.52 54.84 128.76 55.16 128.84 55.48Z" fill="#363435"/>
<path d="M120.92 53.72C121 53.72 121 53.72 121.08 53.64C122.04 52.76 123.32 53.4 123.32 53.4C123.4 53.48 123.56 53.4 123.64 53.32C123.72 53.24 123.64 53.08 123.56 53C123.48 53 122.04 52.2 120.84 53.32C120.76 53.4 120.76 53.56 120.84 53.64C120.76 53.72 120.84 53.72 120.92 53.72Z" fill="black"/>
<path d="M127.16 53.16C127.24 53.16 127.24 53.16 127.32 53.08C127.32 53.08 128.12 52.44 128.92 53C129 53.08 129.16 53.08 129.24 52.92C129.32 52.84 129.32 52.68 129.16 52.6C128.36 52.04 127.4 52.36 127.08 52.68C127 52.76 127 52.92 127.08 53C127 53.16 127.08 53.16 127.16 53.16Z" fill="black"/>
<path d="M123.08 60.76C126.2 61.32 127.56 60.76 127.56 60.76C127.56 60.76 127.72 62.68 125.96 62.92C123.32 63.24 123.08 60.76 123.08 60.76Z" fill="#D65E42"/>
<path d="M127.4 60.76L127.32 61.16C127.32 61.24 127 61.48 125.72 61.56C124.68 61.64 123.56 61.4 123.24 61.32C123.08 61 123.08 60.68 123.08 60.68C123.24 60.68 123.4 60.76 123.64 60.76C125.88 61.24 127.08 60.92 127.4 60.76Z" fill="white"/>
<path d="M122.983 56.919C123.335 56.8919 123.596 56.5486 123.566 56.1521C123.535 55.7556 123.225 55.4561 122.872 55.4832C122.52 55.5103 122.259 55.8537 122.289 56.2501C122.32 56.6466 122.63 56.9461 122.983 56.919Z" fill="#363435"/>
<path d="M257.72 164.36V251.24C257.72 253.4 256.04 255.08 253.88 255.08H150.76C148.6 255.08 146.92 253.32 146.92 251.24V164.36C146.92 162.2 148.6 160.52 150.76 160.52H253.88C255.96 160.52 257.72 162.28 257.72 164.36Z" fill="#E4ECF9"/>
<path d="M150.76 252.92C149.8 252.92 149.08 252.2 149.08 251.24V173.88C149.08 172.92 149.8 172.2 150.76 172.2H253.88C254.84 172.2 255.56 172.92 255.56 173.88V251.24C255.56 252.2 254.84 252.92 253.88 252.92H150.76Z" fill="#93BBE5"/>
<path d="M152.6 168.76C153.484 168.76 154.2 168.044 154.2 167.16C154.2 166.276 153.484 165.56 152.6 165.56C151.716 165.56 151 166.276 151 167.16C151 168.044 151.716 168.76 152.6 168.76Z" fill="#2276D3"/>
<path d="M156.92 168.76C157.804 168.76 158.52 168.044 158.52 167.16C158.52 166.276 157.804 165.56 156.92 165.56C156.036 165.56 155.32 166.276 155.32 167.16C155.32 168.044 156.036 168.76 156.92 168.76Z" fill="#2276D3"/>
<path d="M161.24 168.76C162.124 168.76 162.84 168.044 162.84 167.16C162.84 166.276 162.124 165.56 161.24 165.56C160.356 165.56 159.64 166.276 159.64 167.16C159.64 168.044 160.356 168.76 161.24 168.76Z" fill="#2276D3"/>
<path d="M303.4 312.2C302.04 313.16 300.6 314.04 299.16 314.84C297.72 315.72 296.28 316.44 294.84 317.16C289.08 317.24 282.92 317.32 276.44 317.32C247.16 317.32 223.32 316.04 223.32 314.52C223.32 313.8 228.12 313.16 236.12 312.68C238.28 312.52 240.68 312.44 243.24 312.28C252.28 311.88 263.8 311.64 276.36 311.64C286.28 311.8 295.48 311.96 303.4 312.2Z" fill="#BACCDD"/>
<path d="M198.76 100.84L197.96 96.52C197.8 95.8 198.36 95.08 199.08 95L223.96 92.44L223.24 88.92C223.08 88.12 223.64 87.32 224.52 87.24L244.52 85.32C245.16 85.24 245.8 85.72 245.88 86.44L250.52 127.88C250.6 128.36 250.2 128.84 249.72 128.92L248.44 129.08L198.76 100.84Z" fill="#F89D13"/>
<path d="M198.76 100.84L197.96 96.52C197.8 95.8 198.36 95.08 199.08 95L223.96 92.44L223.24 88.92C223.08 88.12 223.64 87.32 224.52 87.24L244.52 85.32C245.16 85.24 245.8 85.72 245.88 86.44L250.52 127.88C250.6 128.36 250.2 128.84 249.72 128.92L248.44 129.08L198.76 100.84Z" fill="#F89D13"/>
<path d="M195.48 106.84L194.28 99.08L244.6 94.28L248.44 129.16L195.48 106.84Z" fill="#3C3D3D"/>
<path d="M201.16 133L192.2 104.6C191.88 103.64 192.6 102.6 193.56 102.52L237.96 98.2C238.6 98.12 239.24 98.52 239.4 99.16L248.44 129.16L203 134.2C202.12 134.28 201.4 133.8 201.16 133Z" fill="#F89D13"/>
<path d="M227.32 212.2C227.32 212.6 227.24 212.92 227.24 213.24C227 214.76 226.36 215.96 225.32 217.4C224.84 218.04 224.12 217.96 224.04 217.56C223.72 218.04 223.32 218.52 222.92 219C222.36 219.64 221.64 219.32 221.56 218.68C221.4 218.92 221.16 219.16 221 219.32C220.2 220.2 219.24 219.32 220.04 218.44C221.16 217.24 221.72 215.88 222.12 214.44C221.64 215.56 221.08 216.6 220.44 217.56C219.8 218.52 218.68 217.72 219.32 216.76C220.52 215 221.16 213 221.56 210.84C221.08 211.32 220.68 211.8 220.36 212.44C219.8 213.4 218.68 212.68 219.24 211.64C220.36 209.64 221.4 208.36 223.16 206.84C223.16 206.84 223.16 206.84 223.24 206.84C225.24 203.16 227.24 199.48 229.32 195.8C235.08 185.88 236.84 184.2 237.32 184.44C237.8 184.68 237.64 187.08 233.56 198.28C231.32 203 229.32 207.56 227.32 212.2Z" fill="#CC724A"/>
<path d="M303.32 293.96C303.32 293.96 302.44 304.44 304.6 304.28C307.48 304.04 311.8 288.44 311.8 288.44L312.84 289.32L314.2 287.32L310.6 283.8L303.32 293.96Z" fill="#297EEC"/>
<path d="M275.96 261.96L303.32 286.6C303.32 286.6 302.68 299.56 304.52 299C307.24 298.2 310.6 283.72 310.6 283.72L289.08 257.24L275.96 261.96Z" fill="#CC724A"/>
<path d="M242.44 305.8C242.44 305.8 234.52 312.76 236.2 314.12C238.44 315.96 252.36 307.72 252.36 307.72L252.52 309.08L254.92 308.6L254.84 303.56L242.44 305.8Z" fill="#297EEC"/>
<path d="M245.4 270.44L247.48 300.44C247.48 300.44 238.04 309.32 239.72 310.2C242.2 311.48 254.68 303.48 254.68 303.48L257.64 269.48L245.4 270.44Z" fill="#CC724A"/>
<path d="M262.6 200.52C255.4 201.08 248.52 201.48 241.4 199.8C241.16 199.72 240.92 199.64 240.68 199.64V270.84L302.52 266.2C302.52 266.2 289.4 217.64 283.8 199.4C276.76 200.04 269.56 199.96 262.6 200.52Z" fill="#F89D13"/>
<path d="M272.52 199.96L272.84 202.84L265.96 203.64L259.16 204.44L258.76 200.68C258.6 200.68 258.52 200.68 258.36 200.68L258.84 204.6C258.84 204.68 258.92 204.76 259.08 204.76L266.04 203.88L273 203C273.08 203 273.16 202.92 273.08 202.84L272.68 199.8C272.6 199.96 272.52 199.96 272.52 199.96Z" fill="#CC7A0D"/>
<path d="M290.92 240.36C289.88 236.52 288.84 232.76 287.88 228.92C286.84 225.08 285.8 221.32 284.76 217.48L283.16 211.8L281.56 206.12C281 204.2 280.44 202.36 279.88 200.44C279.8 200.2 279.72 199.96 279.64 199.72C279.48 199.72 279.4 199.72 279.24 199.72L279.48 200.52C280.04 202.44 280.6 204.28 281.16 206.2L282.76 211.88L284.36 217.56C285.4 221.4 286.44 225.16 287.56 229L290.68 240.44L293.8 251.88L296.92 263.32C295.96 259.48 294.92 255.64 293.96 251.8L290.92 240.36Z" fill="#CC7A0D"/>
<path d="M245.48 176.28C245.56 190.84 242.68 202.6 242.68 202.6C242.68 202.6 255.8 209.24 271.32 204.36C271.48 204.28 282.44 201.24 282.44 201.24C282.2 200.68 280.76 185.32 280.44 184.84C277.16 177.8 276.28 174.84 275.88 172.68C275.16 168.6 275.16 164.44 275.48 160.52C276.44 150.04 279.24 141.4 279.24 141.4C275 140.44 271 138.76 266.6 137.16C265.56 138.44 262.52 139.72 259.8 139.64C256.68 139.56 255.72 138.28 255.88 136.76C252.6 138.6 249.96 140.36 249.96 140.36C247.16 145.24 241.48 149.96 241.08 157.4C241 159.16 245.48 175.88 245.48 176.28Z" fill="white"/>
<path d="M271.8 177.88C273.16 179.8 275.72 191.24 282.04 192.68C278.76 184.52 276.28 180.92 275.88 178.36C275.16 173.64 275.16 168.84 275.48 164.2C273.32 160.44 271.72 157.88 271.72 157.88C271.56 157.24 268.36 147.32 267.32 156.2C266.36 165.24 270.28 175.8 271.8 177.88Z" fill="#5F9AA8"/>
<path d="M254.44 138.12C248.52 139.16 245 141.88 242.92 144.12C234.68 152.84 239 163.24 230.44 182.52C225.88 192.76 222.52 202.76 222.52 202.76L230.52 210.44C230.52 210.44 244.12 194.52 254.44 138.12Z" fill="#297EEC"/>
<path d="M255.88 136.68C255.88 136.68 248.6 154.68 248.36 158.36C248.12 162.04 247.48 217.96 247.48 217.96C247.48 217.96 247.88 220.52 243 219.48C238.04 218.44 236.76 217.32 236.76 217.32C236.76 217.32 237.96 208.68 238.92 198.52C240.28 184.92 239.4 179.24 240.12 170.76C240.76 163.4 242.6 152.92 247.88 140.2C250.68 139.08 253.24 137.88 255.88 136.68Z" fill="#297EEC"/>
<path d="M267.24 216.92C267.24 216.92 269.08 223.64 275.56 222.76C281.96 221.88 291.16 218.04 291.16 218.04C291.16 218.04 288.44 209.32 285 197.96C280.84 184.12 275.72 166.36 273.32 155.08C272.68 151.96 272.2 149.32 272.04 147.4L266.68 137.08C266.68 137.08 258.76 154.92 258.28 159.48C257.88 163.96 267.24 216.92 267.24 216.92Z" fill="#297EEC"/>
<path d="M271.56 152.84L279.24 141.32L266.68 137.08L266.6 139L271.56 152.84Z" fill="#297EEC"/>
<path d="M236.6 127.88C236.92 129.96 237.24 131.96 237.56 134.04C238.92 142.36 240.52 150.52 242.2 158.28C244.68 157.08 247.16 155.8 249.72 154.6C247.96 145.8 246.28 137 244.52 128.28C241.88 128.12 239.24 128.04 236.6 127.88Z" fill="#CC724A"/>
<path d="M264.36 133.24C265.862 133.24 267.08 131.557 267.08 129.48C267.08 127.403 265.862 125.72 264.36 125.72C262.858 125.72 261.64 127.403 261.64 129.48C261.64 131.557 262.858 133.24 264.36 133.24Z" fill="#F89D13"/>
<path d="M254.6 128.12C254.6 128.12 253.96 134.04 253 134.76C253 134.76 255.48 135.64 258.68 135.4C261.96 135.16 256.2 127.48 256.2 127.48L254.6 128.12Z" fill="#F89D13"/>
<path d="M263.88 126.2C263.88 126.52 263.88 139.4 263.88 139.4C263.88 139.4 260.6 144.28 258.44 144.28C256.28 144.28 256.6 140.12 256.6 140.12L256.52 131.16L263.88 126.2Z" fill="#CC724A"/>
<path d="M263.16 130.44C263.08 130.52 261.16 135.96 256.6 133.88V132.76C256.68 132.76 261.64 131.16 263.16 130.44Z" fill="#CC724A"/>
<path d="M258.12 133.32C261.48 133.88 264.2 131 264.76 127.88L265.64 122.84C266.2 119.64 264.2 116.68 261.16 116.12C258.12 115.56 255.24 117.72 254.68 120.92L253.8 125.96C253.16 129.08 254.76 132.68 258.12 133.32Z" fill="#CC724A"/>
<path d="M265 115.64C265 115.64 271.16 118.04 269.72 128.12C269.56 129.32 270.76 131.64 270.6 132.44C270.28 135.08 268.2 135.16 268.2 135.16L261.48 135.24C261.48 135.24 264.52 133.16 264.76 127.8L265.8 121.8L265 115.64Z" fill="#F89D13"/>
<path d="M266.84 126.36C266.68 127.4 265.88 128.04 265.16 127.96C263.72 127.72 263.96 126.92 264.12 125.88C264.28 124.84 265.08 124.2 265.8 124.28C266.6 124.44 267.08 125.4 266.84 126.36Z" fill="#CC724A"/>
<path d="M266.44 125.72C266.44 125.48 266.36 125.16 266.12 125C265.88 124.92 265.64 125 265.56 125.24C265.56 125.32 265.64 125.32 265.64 125.24C265.64 125.16 265.8 125.08 265.88 125.08C266.04 125.08 266.12 125.24 266.12 125.32C266.2 125.56 266.2 125.8 266.2 126.04C266.12 126.28 266.04 126.52 265.8 126.68C265.72 126.76 265.56 126.84 265.48 126.84C265.4 126.84 265.24 126.84 265.16 126.76C265.16 126.76 265.08 126.76 265.08 126.84C265.16 126.92 265.24 127 265.32 127.08C265.4 127.08 265.56 127.08 265.72 127C265.96 126.92 266.2 126.68 266.28 126.44C266.36 126.28 266.44 126.04 266.44 125.72Z" fill="#CC724A"/>
<path d="M262.84 114.76C260.76 114.2 259.32 114.76 258.36 115.48C258.04 115.24 257.48 115.16 256.44 115.48C255.64 115.72 254.92 116.92 254.6 117.88C254.04 119.8 254.44 122.12 254.44 122.12C254.44 122.12 256.2 119.64 256.6 118.68C256.76 118.36 256.84 118.12 256.92 117.88C256.92 119.08 257.16 121.32 259.08 121.64C259.24 121.64 259.48 121.72 259.64 121.72L258.92 119.16L260.28 121.8C260.84 121.88 261.4 121.88 261.96 121.96L260.84 119.56L262.76 122.04C263.32 122.2 263.88 122.36 264.28 122.68C265.16 123.24 264.52 126.12 264.52 126.36L265.16 124.44C265.32 124.36 265.56 124.36 265.72 124.36C266.04 124.44 266.36 124.6 266.52 124.92C266.52 124.92 267.48 123.24 267.64 121.24C267.8 119.32 267.08 115.88 262.84 114.76Z" fill="#F89D13"/>
<path d="M236.6 127.88C236.6 127.88 236.04 127.24 235.88 126.92C234.84 125.48 234.44 123.96 234.12 121.88C233.96 120.92 234.6 120.44 235.08 120.68C234.92 120.04 234.92 119.32 234.84 118.6C234.84 117.56 235.72 117.32 236.2 117.8C236.2 117.48 236.12 117.16 236.12 116.76C236.12 115.4 237.56 115.32 237.56 116.68C237.56 118.52 238.2 120.12 239.08 121.64C238.6 120.36 238.2 119 238.04 117.64C237.8 116.36 239.4 116.12 239.64 117.4C240.04 119.8 241.16 122.04 242.52 124.12C242.52 123.32 242.44 122.6 242.28 121.8C241.96 120.6 243.48 120.28 243.88 121.56C244.6 124.12 244.76 126.04 244.44 128.68C244.44 128.68 244.44 128.68 244.44 128.76C243.96 130.12 243.48 131.48 243 132.84C244.6 134.6 245 137.16 244.12 139.32C242.84 142.44 239.56 143.08 239.32 143.16C238.52 138.12 236.6 127.88 236.6 127.88Z" fill="#CC724A"/>
<path d="M239 121.56L239.16 121.48C239.16 121.48 240.68 124.36 241.4 124.68L241.32 124.84C241.08 124.68 240.68 124.28 240.36 123.8C239.72 122.92 239 121.64 239 121.56Z" fill="#995033"/>
<path d="M236.2 117.88H236.36C236.36 117.96 237.48 122.92 239.8 125.32L239.72 125.4C239.48 125.08 239.16 124.84 238.92 124.44C237.08 121.8 236.2 117.96 236.2 117.88Z" fill="#995033"/>
<path d="M235 120.76L235.16 120.68C235.16 120.76 236.68 125.56 238.04 125.88V126.04C237.72 125.96 237.32 125.64 237 125.16C235.96 123.64 235.08 120.92 235 120.76Z" fill="#995033"/>
<path d="M279.24 141.32C279.24 141.32 285.4 147.48 282.36 154.52C280.28 159.4 265.16 181.32 250.68 177.72C246.28 176.6 244.52 171.8 242.2 167.08C237.4 157.08 237.8 147.64 238.36 142.92C239.32 142.36 240.6 141.72 242.12 141.24C244.44 140.52 246.44 140.28 247.96 140.28C249 143.8 250.12 147.48 251.4 151.32C252.6 154.92 253.88 158.44 255.16 161.8C263.24 154.92 271.24 148.12 279.24 141.32Z" fill="#3B93F4"/>
<path d="M258.04 127.64C257.8 127.64 256.68 127.4 256.68 126.84C256.6 126.36 257.48 124.76 257.64 124.44C257.72 124.36 257.8 124.36 257.88 124.36C257.96 124.44 257.96 124.52 257.96 124.6C257.56 125.24 257 126.44 257.08 126.76C257.08 127 257.72 127.24 258.12 127.24C258.2 127.24 258.28 127.32 258.28 127.4C258.2 127.56 258.12 127.64 258.04 127.64Z" fill="#C6493C"/>
<path d="M255.4 124.76C255.4 125.08 255.56 125.32 255.8 125.32C256.04 125.32 256.28 125.16 256.28 124.84C256.28 124.52 256.12 124.28 255.88 124.28C255.64 124.2 255.4 124.44 255.4 124.76Z" fill="#363435"/>
<path d="M261.24 123.4C261.24 123.4 261.16 123.4 261.16 123.32C260.44 122.68 259.48 123.16 259.48 123.16C259.4 123.24 259.32 123.16 259.24 123.08C259.16 123 259.24 122.92 259.32 122.84C259.4 122.84 260.44 122.28 261.4 123.08C261.48 123.16 261.48 123.24 261.4 123.32C261.32 123.4 261.32 123.4 261.24 123.4Z" fill="black"/>
<path d="M256.6 123H256.52C256.52 123 255.96 122.52 255.32 122.92C255.24 123 255.16 122.92 255.08 122.84C255 122.76 255.08 122.68 255.16 122.6C255.8 122.2 256.44 122.44 256.76 122.68C256.84 122.76 256.84 122.84 256.76 122.92C256.76 123 256.68 123 256.6 123Z" fill="black"/>
<path d="M259.64 128.6C257.32 129 256.36 128.6 256.36 128.6C256.36 128.6 256.2 130.04 257.56 130.2C259.48 130.44 259.64 128.6 259.64 128.6Z" fill="#D65E42"/>
<path d="M256.44 128.68C256.44 128.68 256.52 128.92 256.52 129C256.52 129.08 256.76 129.24 257.72 129.32C258.52 129.4 259.32 129.16 259.56 129.16C259.64 128.92 259.64 128.68 259.64 128.68C259.48 128.68 259.4 128.76 259.24 128.76C257.56 128.92 256.68 128.76 256.44 128.68Z" fill="white"/>
<path d="M260.295 125.232C260.319 124.924 260.124 124.657 259.86 124.637C259.595 124.617 259.362 124.85 259.338 125.159C259.315 125.467 259.51 125.733 259.774 125.754C260.038 125.774 260.272 125.54 260.295 125.232Z" fill="#363435"/>
</svg>
