<svg width="400" height="400" viewBox="0 0 400 400" fill="none" xmlns="http://www.w3.org/2000/svg">
<path d="M304.08 316.24C300.32 312.64 294.72 311.12 289.68 312.32C284.64 313.52 280.32 317.44 278.56 322.4L280.4 329.52C281.12 327.12 282.64 324.72 284.96 323.76C287.36 322.72 290.16 323.28 292.64 324.24C295.12 325.12 297.52 326.32 300.16 326.48C302.8 326.64 305.76 325.36 306.56 322.88C307.28 320.48 305.84 317.92 304.08 316.24Z" fill="#263238"/>
<path d="M259.6 340.08C255.76 336.4 255.92 330 257.84 325.04C259.76 320.08 264 316.24 268.64 313.76C277.76 308.88 289.12 308.56 298.48 312.8C293.84 312.96 289.44 315.6 287.04 319.52C284.96 323.04 284.48 327.28 282.72 330.96C280.8 335.12 277.2 338.4 272.96 340.08C268.72 341.84 263.76 341.76 259.6 340.08Z" fill="#FFB506"/>
<path d="M257.68 318.08C253.44 313.04 252.88 304.96 253.44 298.4C254.08 291.84 255.6 285.2 254.56 278.72C253.92 274.88 252.48 271.2 251.92 267.28C251.44 263.36 252.16 259.04 255.12 256.48C258.56 253.6 264 254.32 267.6 256.96C271.2 259.68 273.28 263.92 274.8 268.16C278.16 277.44 279.36 287.76 276.64 297.28C273.92 306.8 267.44 315.28 258 318.16" fill="#FFB506"/>
<path d="M255.68 359.44C255.68 359.44 255.68 359.2 255.68 358.88C255.68 358.48 255.68 357.92 255.68 357.2C255.76 355.76 255.84 353.68 256.16 351.12C256.48 348.56 256.96 345.52 257.84 342.16C258.64 338.8 260 335.28 261.92 331.84C263.84 328.4 266.24 325.36 268.56 322.96C270.96 320.48 273.36 318.56 275.52 317.12C276.56 316.4 277.6 315.84 278.48 315.28C279.36 314.8 280.16 314.4 280.8 314.08C281.44 313.84 281.92 313.6 282.32 313.44C282.64 313.28 282.88 313.2 282.88 313.2C282.88 313.2 282.72 313.28 282.4 313.44C282 313.6 281.52 313.84 280.88 314.16C280.24 314.48 279.44 314.88 278.56 315.36C277.68 315.92 276.64 316.48 275.6 317.2C273.44 318.64 271.04 320.56 268.72 323.04C266.4 325.52 264.08 328.48 262.16 331.92C258.24 338.8 257.12 346 256.4 351.04C256.08 353.6 255.84 355.68 255.76 357.12C255.68 357.84 255.68 358.4 255.68 358.8C255.68 359.2 255.68 359.44 255.68 359.44Z" fill="#263238"/>
<path d="M212.96 303.36C215.04 300.48 220.16 299.68 223.36 301.12C226.56 302.56 228.96 305.36 231.04 308.16C233.12 310.96 235.2 313.92 238.16 315.92C241.12 317.92 245.2 318.56 248.08 316.64C250 315.36 251.12 313.12 251.44 310.8C251.76 308.48 251.44 306.16 250.96 303.92C250.24 300.64 249.12 297.12 246.48 295.04C243.52 292.72 239.44 292.56 235.68 292.72C231.36 292.88 226.96 293.2 222.88 294.72C218.8 296.16 214.64 299.44 212.96 303.36Z" fill="#FFB506"/>
<path d="M249.12 353.04C249.12 353.04 249.12 352.96 249.12 352.88C249.12 352.72 249.12 352.56 249.12 352.4C249.12 351.92 249.12 351.28 249.04 350.4C248.96 348.64 248.88 346.24 248.8 343.2C248.72 340.16 248.56 336.56 248.4 332.48C248.16 328.48 247.84 324.08 247.28 319.44C246.96 317.12 246.64 314.88 246 312.8C245.36 310.72 244.48 308.8 243.6 307.04C242.64 305.28 241.6 303.68 240.56 302.24C239.44 300.8 238.32 299.6 237.2 298.56C234.96 296.48 232.8 295.28 231.28 294.56C230.88 294.4 230.56 294.24 230.24 294.08C229.92 294 229.68 293.84 229.44 293.76C229.28 293.68 229.12 293.6 228.96 293.6C229.12 293.68 229.28 293.68 229.44 293.76C229.68 293.84 229.92 293.92 230.24 294C230.56 294.08 230.88 294.24 231.28 294.48C232.8 295.2 235.04 296.4 237.28 298.48C238.4 299.52 239.6 300.72 240.64 302.16C241.76 303.6 242.8 305.2 243.76 306.96C244.72 308.72 245.6 310.72 246.24 312.8C246.88 314.88 247.28 317.2 247.6 319.44C248.24 324.08 248.48 328.48 248.72 332.48C248.96 336.48 249.04 340.16 249.12 343.2C249.2 346.24 249.2 348.72 249.2 350.4C249.2 351.2 249.2 351.92 249.2 352.4C249.2 352.64 249.2 352.8 249.2 352.88C249.12 353.04 249.12 353.04 249.12 353.04Z" fill="#263238"/>
<path d="M251.92 356.64C251.92 356.64 251.44 355.44 251.04 353.28C250.64 351.04 250.32 347.76 250.64 343.76C250.96 339.76 252 335.04 253.68 329.92C255.28 324.8 257.52 319.44 259.36 313.6C260.32 310.64 261.12 307.76 261.6 304.96C262.16 302.16 262.48 299.36 262.72 296.72C263.2 291.44 263.12 286.64 262.96 282.56C262.8 278.56 262.64 275.28 262.48 273.04C262.4 271.92 262.4 271.04 262.32 270.48C262.32 270.16 262.32 270 262.32 269.84C262.32 270 262.32 270.24 262.4 270.48C262.48 271.12 262.56 271.92 262.64 273.04C262.8 275.28 263.04 278.56 263.2 282.56C263.36 286.56 263.44 291.36 263.04 296.72C262.8 299.36 262.48 302.16 261.92 305.04C261.36 307.92 260.56 310.8 259.68 313.76C257.76 319.6 255.6 325.04 253.92 330.08C252.24 335.12 251.2 339.84 250.88 343.84C250.48 347.84 250.8 351.12 251.12 353.36C251.28 354.48 251.52 355.36 251.68 355.92C251.76 356.16 251.76 356.4 251.84 356.56C251.92 356.56 251.92 356.64 251.92 356.64Z" fill="#263238"/>
<path d="M271.52 360.24H234.4L233.6 353.04H271.52V360.24Z" fill="#FF725E"/>
<path d="M238.4 359.44L243.04 380.8H263.2L267.52 359.44H238.4Z" fill="#FF725E"/>
<path d="M271.52 360.24C271.52 360.32 263.36 360.4 253.28 360.4C243.2 360.4 235.04 360.24 235.04 360.16C235.04 360.08 243.2 360 253.28 360C263.36 360 271.52 360.08 271.52 360.24Z" fill="#FFB506"/>
<path d="M271.84 360.24C271.84 360.32 263.52 360.4 253.2 360.4C242.88 360.4 234.56 360.32 234.56 360.24C234.56 360.16 242.88 360.08 253.2 360.08C263.52 360.08 271.84 360.16 271.84 360.24Z" fill="#263238"/>
<path d="M354.24 380.64C354.24 380.72 285.2 380.88 200 380.88C114.8 380.88 45.68 380.8 45.68 380.64C45.68 380.56 114.72 380.4 200 380.4C285.2 380.4 354.24 380.48 354.24 380.64Z" fill="#263238"/>
<path d="M230.64 349.84L232.56 372.88L239.36 390.64C239.84 391.92 239.12 393.36 237.84 393.76C237.12 394 236.32 393.84 235.68 393.36C231.84 390.4 217.92 379.36 217.76 377.92C217.52 376.08 214 353.44 214 353.44L230.64 349.84Z" fill="#FFB506"/>
<path d="M237.76 393.76L217.28 375.36L217.52 377.04C217.68 378 217.68 378.48 218.32 379.04C220 380.56 224.72 385.36 235.44 393.76C236 394.24 237.04 394 237.76 393.76Z" fill="#263238"/>
<path d="M221.36 368.08C222 368.4 222.24 369.28 221.92 369.92C221.6 370.56 220.72 370.88 220.16 370.48C219.52 370.16 219.2 369.12 219.52 368.56C219.92 368 220.96 367.68 221.44 368.16" fill="white"/>
<path d="M231.44 384.24C231.6 384.32 232 383.04 233.28 382.24C234.56 381.44 235.84 381.6 235.84 381.44C235.84 381.36 235.52 381.2 234.96 381.2C234.4 381.2 233.68 381.36 232.96 381.76C232.24 382.24 231.76 382.8 231.6 383.36C231.36 383.92 231.36 384.24 231.44 384.24Z" fill="#263238"/>
<path d="M233.44 387.12C233.6 387.2 234.24 386.4 235.36 385.92C236.48 385.44 237.52 385.52 237.6 385.36C237.68 385.2 236.48 384.88 235.2 385.44C233.84 386 233.28 387.12 233.44 387.12Z" fill="#263238"/>
<path d="M228 380.64C228.08 380.72 229.12 379.44 230.88 378.56C232.56 377.68 234.24 377.52 234.24 377.44C234.24 377.28 232.56 377.2 230.72 378.16C228.72 379.04 227.84 380.56 228 380.64Z" fill="#263238"/>
<path d="M226.8 373.68C226.88 373.84 228.08 373.12 229.76 372.88C231.44 372.64 232.72 372.88 232.8 372.72C232.88 372.64 231.44 372.08 229.68 372.32C227.92 372.64 226.72 373.6 226.8 373.68Z" fill="#263238"/>
<path d="M226.08 366.96C226.16 367.12 227.36 366.16 229.12 366.08C230.88 365.92 232.16 366.64 232.24 366.56C232.24 366.48 232 366.24 231.44 366C230.88 365.76 230 365.52 229.12 365.6C228.16 365.68 227.36 366 226.88 366.32C226.32 366.56 226 366.88 226.08 366.96Z" fill="#263238"/>
<path d="M228.96 364.8C228.96 364.8 229.04 364.48 228.88 363.92C228.8 363.36 228.56 362.56 227.92 361.68C227.6 361.28 227.28 360.72 226.64 360.56C226.32 360.48 225.84 360.56 225.6 360.88C225.36 361.2 225.28 361.6 225.36 361.92C225.52 363.36 226.96 364.64 228.64 364.72C230.32 364.72 231.68 363.6 232.24 362.32C232.32 362 232.4 361.6 232.16 361.2C231.92 360.8 231.44 360.72 231.12 360.8C230.48 360.96 230.08 361.44 229.68 361.76C228.96 362.48 228.56 363.2 228.32 363.68C228.08 364.16 228 364.48 228.08 364.48C228.16 364.56 228.56 363.28 230 361.92C230.4 361.6 230.8 361.2 231.28 361.12C231.52 361.04 231.76 361.12 231.84 361.36C231.92 361.52 231.92 361.84 231.84 362.08C231.36 363.2 230.16 364.16 228.72 364.16C227.28 364.16 226.08 363.04 225.92 361.84C225.92 361.52 225.92 361.28 226.08 361.12C226.24 360.96 226.4 360.88 226.64 360.96C227.12 361.12 227.44 361.52 227.76 361.92C228.8 363.52 228.8 364.8 228.96 364.8Z" fill="#263238"/>
<path d="M176.08 350.96L176.96 370.48C176.96 370.48 157.44 377.92 157.2 381.52L195.04 381.2L194.96 350.72L176.08 350.96Z" fill="#FFB506"/>
<path d="M188.64 368.8C189.36 368.96 189.92 369.84 189.76 370.56C189.6 371.28 188.8 371.84 188 371.68C187.28 371.52 186.64 370.56 186.88 369.84C187.12 369.12 188.16 368.56 188.8 368.88" fill="#E0E0E0"/>
<path d="M195.04 381.28L194.88 378.24L158.64 379.68C158.64 379.68 156.96 380.4 157.12 381.6L195.04 381.28Z" fill="#263238"/>
<path d="M176.32 370.32C176.32 370.48 177.28 370.56 178.16 371.2C179.12 371.76 179.6 372.56 179.76 372.48C179.92 372.48 179.68 371.36 178.56 370.64C177.36 369.92 176.24 370.16 176.32 370.32Z" fill="#263238"/>
<path d="M172.32 372C172.24 372.16 173.12 372.48 173.68 373.28C174.32 374 174.48 374.88 174.72 374.88C174.88 374.88 175.04 373.84 174.24 372.88C173.44 371.92 172.32 371.84 172.32 372Z" fill="#263238"/>
<path d="M170.08 376.8C170.24 376.8 170.48 375.92 170 374.88C169.52 373.84 168.64 373.44 168.56 373.6C168.48 373.76 169.04 374.32 169.44 375.12C169.84 376 169.92 376.72 170.08 376.8Z" fill="#263238"/>
<path d="M176.56 365.84C176.64 366 177.52 365.76 178.56 365.84C179.6 365.92 180.4 366.24 180.48 366.08C180.56 365.92 179.76 365.28 178.56 365.2C177.36 365.12 176.48 365.68 176.56 365.84Z" fill="#263238"/>
<path d="M169.28 206C169.28 207.2 173.6 367.2 173.6 367.2L195.36 367.44L201.84 230.96C201.84 230.96 207.36 304.32 207.36 305.92C207.36 307.52 212.48 368.24 212.48 368.24L233.52 368L232.56 222.4L229.92 200.72L169.28 206Z" fill="#263238"/>
<path d="M204.32 225.68C204.32 225.68 204 225.84 203.36 226.08C202.72 226.32 201.84 226.64 200.72 227.04L200.48 227.12V226.88C200.32 224.88 200.24 222.24 200.08 219.36C199.92 216.24 199.84 213.36 199.76 211.36C199.76 210.32 199.68 209.52 199.68 208.96C199.68 208.4 199.68 208.08 199.76 208.08C199.76 208.08 199.84 208.4 199.92 208.96C200 209.52 200 210.4 200.08 211.36C200.24 213.44 200.4 216.24 200.56 219.36C200.72 222.24 200.8 224.88 200.88 226.88L200.64 226.72C201.76 226.4 202.72 226.08 203.36 225.92C203.92 225.76 204.32 225.68 204.32 225.68Z" fill="#FFB506"/>
<path d="M202.56 208.64C202.56 208.64 202.64 208.48 202.88 208.4C203.12 208.32 203.52 208.32 203.92 208.48C204.32 208.64 204.8 209.2 204.72 209.84C204.64 210.48 204.24 211.12 203.44 211.28C202.72 211.44 202 210.96 201.68 210.48C201.36 209.92 201.44 209.28 201.68 208.96C201.92 208.56 202.24 208.4 202.48 208.24C202.72 208.16 202.88 208.16 202.88 208.16C202.88 208.24 202.32 208.32 202 209.04C201.84 209.36 201.76 209.84 202.08 210.24C202.32 210.64 202.88 210.96 203.36 210.8C203.84 210.72 204.24 210.24 204.24 209.76C204.32 209.28 204 208.96 203.76 208.72C203.04 208.4 202.56 208.72 202.56 208.64Z" fill="#FFB506"/>
<path d="M213.28 210.32C213.12 210.32 212.96 209.6 212.88 208.72C212.8 207.84 212.8 207.12 212.96 207.12C213.12 207.12 213.28 207.84 213.36 208.72C213.44 209.6 213.36 210.32 213.28 210.32Z" fill="#FFB506"/>
<path d="M214.88 210.16C214.72 210.16 214.64 209.44 214.64 208.48C214.64 207.52 214.72 206.8 214.88 206.8C215.04 206.8 215.12 207.52 215.12 208.48C215.12 209.44 215.04 210.16 214.88 210.16Z" fill="#FFB506"/>
<path d="M186.64 211.28C186.48 211.28 186.32 210.48 186.16 209.36C186.08 208.32 186.08 207.44 186.16 207.44C186.32 207.44 186.48 208.24 186.64 209.36C186.8 210.4 186.8 211.28 186.64 211.28Z" fill="#FFB506"/>
<path d="M188.64 211.44C188.56 211.52 188.08 210.64 188.08 209.44C188 208.24 188.4 207.36 188.48 207.44C188.64 207.44 188.48 208.4 188.56 209.44C188.56 210.56 188.8 211.44 188.64 211.44Z" fill="#FFB506"/>
<path d="M181.2 209.28C181.2 209.28 181.2 209.52 181.12 210C181.04 210.48 180.88 211.12 180.64 211.92C180.16 213.52 179.2 215.68 177.76 217.76C176.24 219.84 174.56 221.44 173.2 222.4C172.56 222.88 171.92 223.28 171.52 223.44C171.12 223.68 170.88 223.76 170.88 223.76C170.88 223.68 171.76 223.2 173.04 222.16C174.32 221.12 176 219.52 177.44 217.52C178.88 215.44 179.84 213.36 180.4 211.84C180.96 210.24 181.2 209.28 181.2 209.28Z" fill="#FFB506"/>
<path d="M231.84 220.32C231.84 220.32 231.6 220.4 231.12 220.4C230.64 220.48 230 220.48 229.12 220.4C227.44 220.24 225.2 219.6 223.12 218.08C221.04 216.56 219.76 214.56 219.12 213.04C218.8 212.24 218.64 211.6 218.48 211.2C218.4 210.72 218.32 210.48 218.4 210.48C218.48 210.48 218.64 211.44 219.36 212.96C220.08 214.4 221.36 216.32 223.36 217.76C225.36 219.2 227.52 219.92 229.12 220.16C230.8 220.32 231.84 220.24 231.84 220.32Z" fill="#FFB506"/>
<path d="M193.68 303.36C193.68 303.44 189.76 302.56 185.04 301.28C180.32 300 176.48 298.88 176.48 298.8C176.48 298.72 180.4 299.6 185.12 300.88C189.92 302.16 193.76 303.28 193.68 303.36Z" fill="#FFB506"/>
<path d="M231.44 297.44C231.52 297.52 228.08 299.52 223.92 301.84C219.68 304.16 216.24 306 216.16 305.92C216.08 305.84 219.52 303.84 223.68 301.52C227.92 299.12 231.36 297.28 231.44 297.44Z" fill="#FFB506"/>
<path d="M181.92 107.12L192 103.12L210.72 102.08L219.44 105.44L207.44 112.08L197.12 111.68L181.92 107.12Z" fill="#A36E6A"/>
<path d="M210.72 81.12C211.92 77.52 213.04 73.84 213.6 70C214.16 66.24 214 62.24 212.72 58.64C212.48 58.08 210.8 54.48 210.24 54.48C209.84 54.56 210.88 57.92 210.64 58.32C208.64 61.76 208.08 65.84 208.4 69.76C208.72 73.84 209.6 77.36 210.72 81.12Z" fill="#263238"/>
<path d="M189.12 104.24C189.12 101.52 189.2 97.52 189.2 97.52C189.2 97.52 179.92 96.56 179.36 87.36C179.04 82.96 179.2 73.76 179.44 65.44C179.68 56.48 186.72 49.28 195.68 48.8L196.56 48.72C206.16 48.8 211.44 56.96 211.2 66.56L210.72 103.92L204.64 107.92C199.36 114.08 189.2 112.32 189.12 104.24Z" fill="#A36E6A"/>
<path d="M189.12 97.52C189.12 97.52 194.96 97.52 200.88 93.36C200.88 93.36 198.32 100.24 189.12 99.84V97.52Z" fill="#7A5554"/>
<path d="M183.36 72.16C183.36 72.88 184 73.44 184.72 73.44C185.44 73.44 186 72.88 186 72.16C186 71.44 185.36 70.88 184.64 70.88C183.92 70.96 183.36 71.52 183.36 72.16Z" fill="#263238"/>
<path d="M181.52 69.12C181.68 69.28 182.64 68.48 184.08 68.4C185.52 68.32 186.56 68.96 186.72 68.8C186.8 68.72 186.64 68.4 186.16 68.08C185.68 67.76 184.96 67.52 184.08 67.52C183.2 67.6 182.48 67.92 182.08 68.32C181.6 68.72 181.44 69.04 181.52 69.12Z" fill="#263238"/>
<path d="M196.56 71.84C196.56 72.56 197.2 73.12 197.92 73.12C198.64 73.12 199.2 72.56 199.2 71.84C199.2 71.12 198.56 70.56 197.84 70.56C197.12 70.64 196.56 71.2 196.56 71.84Z" fill="#263238"/>
<path d="M195.44 68.96C195.6 69.12 196.56 68.32 198 68.24C199.44 68.16 200.48 68.8 200.64 68.64C200.72 68.56 200.56 68.24 200.08 67.92C199.6 67.6 198.88 67.36 198 67.36C197.12 67.44 196.4 67.76 196 68.16C195.44 68.56 195.36 68.88 195.44 68.96Z" fill="#263238"/>
<path d="M190.88 80.08C190.88 80 190 79.92 188.56 79.76C188.16 79.76 187.84 79.68 187.76 79.44C187.68 79.2 187.76 78.8 187.92 78.32C188.24 77.44 188.48 76.48 188.88 75.52C190.16 71.52 191.04 68.24 190.88 68.24C190.72 68.16 189.52 71.36 188.32 75.36C188 76.32 187.76 77.28 187.44 78.16C187.36 78.56 187.12 79.04 187.36 79.6C187.44 79.84 187.76 80.08 188 80.08C188.24 80.16 188.4 80.16 188.64 80.16C190 80.24 190.88 80.16 190.88 80.08Z" fill="#263238"/>
<path d="M194.8 64.24C194.96 64.64 196.4 64.4 198 64.48C199.68 64.56 201.04 64.96 201.2 64.64C201.28 64.48 201.04 64.16 200.48 63.76C199.92 63.44 199.04 63.12 198.08 63.04C197.04 62.96 196.16 63.2 195.6 63.44C195.04 63.76 194.72 64.08 194.8 64.24Z" fill="#263238"/>
<path d="M181.84 64.4C182.08 64.72 183.04 64.32 184.24 64.32C185.44 64.24 186.4 64.48 186.64 64.16C186.72 64 186.56 63.68 186.16 63.36C185.76 63.04 185.04 62.88 184.16 62.88C183.36 62.96 182.64 63.28 182.24 63.6C181.84 63.84 181.76 64.24 181.84 64.4Z" fill="#263238"/>
<path d="M210.72 73.36C210.88 73.28 216.96 71.12 217.04 77.44C217.2 83.76 210.8 82.56 210.8 82.4C210.8 82.24 210.72 73.36 210.72 73.36Z" fill="#A36E6A"/>
<path d="M212.72 80C212.72 80 212.8 80.08 213.04 80.16C213.2 80.24 213.52 80.32 213.84 80.16C214.48 79.92 215.04 78.8 215.04 77.68C215.04 77.12 214.88 76.56 214.72 76.08C214.48 75.6 214.24 75.28 213.84 75.28C213.52 75.2 213.28 75.44 213.2 75.6C213.12 75.76 213.2 75.92 213.12 75.92C213.12 75.92 212.96 75.84 213.04 75.52C213.04 75.36 213.12 75.28 213.28 75.12C213.44 74.96 213.68 74.96 213.92 74.96C214.4 74.96 214.88 75.44 215.12 75.92C215.36 76.4 215.52 77.04 215.52 77.68C215.52 78.96 214.88 80.16 214 80.4C213.52 80.56 213.2 80.4 212.96 80.24C212.72 80.16 212.72 80 212.72 80Z" fill="#7A5554"/>
<path d="M183.28 54.96C182.24 54.4 185.28 51.04 187.76 49.92C191.52 48.16 197.28 47.04 200.8 48C205.04 49.12 208.56 51.2 210.72 54.96C212.88 58.72 213.76 63.2 213.68 67.6C213.68 68.96 213.52 70.32 212.8 71.44C211.92 72.88 210.24 73.76 210.32 75.68C210.32 76.4 210.16 77.12 209.68 77.6C208.56 78.88 207.12 77.68 206.48 76.56C205.04 74.08 204.88 71.2 204.72 68.32C204.64 66.32 204.48 64.24 205.04 62.32C205.36 61.28 205.84 60.24 206.08 59.2C206.32 58.16 206.24 56.96 205.6 56.08C205.52 55.92 205.28 55.76 205.12 55.6C203.28 54.08 200.8 53.6 198.56 54.4C195.04 55.68 188.96 57.68 187.36 56.48C185.04 54.8 184.48 53.68 184.48 53.68L183.28 54.96Z" fill="#263238"/>
<path d="M189.2 84.56C189.2 84.64 189.44 84.88 190 85.04C190.56 85.2 191.28 85.12 192.08 84.88C192.88 84.56 193.44 84.08 193.76 83.6C194.08 83.12 194.08 82.8 194 82.72C193.76 82.64 193.04 83.6 191.76 84.08C190.4 84.56 189.28 84.32 189.2 84.56Z" fill="#263238"/>
<path d="M230.24 146.4C230.24 146.4 237.28 168.88 239.6 170.48C241.92 172 249.44 179.12 264.8 176.96L270.08 176.72L271.52 166.72C271.52 166.72 265.12 165.44 263.2 164.88C260.72 164.16 254 161.44 249.68 157.2C249.68 157.2 245.76 138.72 244.88 137.04L230.64 141.36L230.24 146.4Z" fill="#A36E6A"/>
<path d="M262.72 169.6C262.72 169.6 264.8 165.12 268.24 163.76C271.68 162.4 276.08 162.72 277.76 161.76C279.44 160.8 284 159.84 284.48 161.44C284.96 163.04 282 164.08 279.04 165.04C276.08 166 274.88 166.48 275.12 167.76C275.36 169.04 279.04 171.6 280.16 171.84C281.2 172.16 284.56 172.56 284.56 174.08C284.56 175.6 283.6 175.44 281.84 175.44C280.16 175.44 276.56 174.72 276.56 174.72C276.56 174.72 275.68 174.96 276.08 175.44C276.56 175.92 278.56 177.76 277.36 179.04C276.16 180.32 274.4 180 274.4 180L272 179.52C272 179.52 270.64 181.84 269.6 180.88C268.56 179.92 269.28 181.12 269.28 181.12C269.28 181.12 268.08 183.2 266.8 183.12C265.52 182.96 260.96 180.4 260.96 180.4L258.24 176.96L262.72 169.6Z" fill="#A36E6A"/>
<path d="M274 178.16C273.92 178.16 273.6 177.76 272.96 177.2C272.64 176.88 272.24 176.56 272 176C271.84 175.76 271.76 175.44 271.76 175.04C271.76 174.72 271.84 174.32 272.08 174C272.56 173.36 273.36 173.28 274 173.44C274.64 173.6 275.04 173.92 275.36 174.24C276 174.88 276.16 175.36 276.16 175.44C276.08 175.52 275.76 175.04 275.12 174.48C274.8 174.24 274.4 173.92 273.84 173.84C273.36 173.68 272.72 173.84 272.32 174.32C272 174.72 272.08 175.36 272.24 175.84C272.48 176.32 272.8 176.72 273.12 177.04C273.76 177.6 274 178.08 274 178.16Z" fill="#7A5554"/>
<path d="M268.88 179.44C268.88 179.44 268.64 179.2 268.32 178.72C268 178.24 267.52 177.52 266.96 176.64C266.4 175.76 265.84 174.64 265.36 173.36C265.12 172.72 264.8 172.08 264.8 171.2C264.8 170.8 264.96 170.32 265.28 170C265.6 169.68 266.16 169.68 266.56 169.76C267.44 170.08 267.84 170.88 268.24 171.52C268.64 172.16 268.96 172.8 269.28 173.36C269.92 174.56 270.56 175.6 271.04 176.56C271.52 177.44 271.92 178.24 272 178.8C272 179.12 272 179.36 271.92 179.52C271.84 179.68 271.84 179.76 271.84 179.76C271.76 179.76 271.92 179.44 271.84 178.88C271.76 178.32 271.36 177.6 270.8 176.72C270.24 175.84 269.6 174.72 268.96 173.6C268.64 173.04 268.24 172.4 267.92 171.76C267.52 171.12 267.2 170.4 266.48 170.24C266.16 170.16 265.84 170.16 265.6 170.4C265.36 170.56 265.28 170.96 265.2 171.28C265.2 171.92 265.52 172.64 265.68 173.28C266.16 174.56 266.72 175.68 267.2 176.56C268.24 178.32 268.96 179.44 268.88 179.44Z" fill="#7A5554"/>
<path d="M264.96 181.28C264.96 181.28 264.8 181.04 264.48 180.56C264.16 180.08 263.84 179.36 263.36 178.48C262.88 177.6 262.32 176.56 261.76 175.44C261.52 174.88 261.2 174.16 261.2 173.36C261.2 172.96 261.36 172.56 261.6 172.24C261.84 171.92 262.32 171.68 262.8 171.76C263.28 171.84 263.52 172.24 263.76 172.48C264 172.8 264.16 173.04 264.4 173.36C264.8 173.92 265.2 174.48 265.52 175.04C266.24 176.16 266.8 177.12 267.36 178C267.84 178.88 268.24 179.52 268.56 180C268.8 180.48 268.96 180.72 268.96 180.8C268.96 180.8 268.72 180.56 268.48 180.08C268.16 179.52 267.68 178.88 267.2 178.16C266.64 177.28 266 176.32 265.28 175.28C264.88 174.72 264.56 174.16 264.16 173.6C263.76 173.04 263.36 172.32 262.8 172.16C262.48 172.08 262.24 172.24 262 172.48C261.84 172.72 261.68 173.04 261.68 173.36C261.68 174 261.92 174.64 262.16 175.2C262.72 176.32 263.2 177.36 263.68 178.32C264.08 179.2 264.48 179.92 264.64 180.4C264.88 181.04 264.96 181.28 264.96 181.28Z" fill="#7A5554"/>
<path d="M278.64 162.16C278.72 162.16 278.72 162.72 278.96 163.2C279.2 163.76 279.6 164.08 279.52 164.16C279.52 164.24 278.88 164.08 278.56 163.36C278.32 162.72 278.56 162.16 278.64 162.16Z" fill="#7A5554"/>
<path d="M248.96 157.52C248.96 157.6 248.4 157.68 247.6 158.08C246.8 158.48 245.76 159.2 244.96 160.24C244.16 161.36 243.6 162.48 243.28 163.28C242.96 164.08 242.72 164.64 242.72 164.64C242.64 164.64 242.8 164.08 243.04 163.2C243.28 162.32 243.76 161.12 244.64 160C245.52 158.88 246.64 158.08 247.52 157.76C248.32 157.44 248.96 157.44 248.96 157.52Z" fill="#7A5554"/>
<path d="M159.04 145.28L158.64 163.44C158.64 163.44 151.68 167.12 149.92 167.36C148.16 167.6 137.92 166.32 137.92 166.32L138.48 177.36C138.48 177.36 154.64 181.28 159.68 181.44C164.72 181.52 166.96 181.36 167.84 180.24C168.72 179.12 172.08 177.68 172.96 172.64C173.84 167.6 171.28 145.36 171.28 145.36H159.04V145.28Z" fill="#A36E6A"/>
<path d="M167.68 172C167.52 172.08 166.8 169.44 164.56 167.12C162.32 164.72 159.68 163.92 159.76 163.84C159.76 163.76 160.4 163.92 161.44 164.4C162.4 164.88 163.68 165.68 164.88 166.88C166 168.08 166.8 169.36 167.2 170.4C167.6 171.28 167.76 172 167.68 172Z" fill="#7A5554"/>
<path d="M139.2 167.36C139.2 167.36 137.12 162.88 133.68 161.52C130.24 160.16 125.84 160.48 124.16 159.52C122.48 158.56 117.92 157.6 117.44 159.2C116.96 160.8 119.92 161.84 122.88 162.8C125.84 163.76 127.04 164.24 126.8 165.52C126.56 166.8 122.88 169.36 121.76 169.6C120.72 169.92 117.36 170.32 117.36 171.84C117.36 173.36 118.32 173.2 120.08 173.2C121.76 173.2 125.36 172.48 125.36 172.48C125.36 172.48 126.24 172.72 125.84 173.2C125.36 173.68 123.36 175.52 124.56 176.8C125.76 178.08 127.52 177.76 127.52 177.76L129.92 177.28C129.92 177.28 131.28 179.6 132.32 178.64C133.36 177.68 132.64 178.88 132.64 178.88C132.64 178.88 133.84 180.96 135.12 180.88C136.4 180.72 140.96 178.16 140.96 178.16L143.68 174.72L139.2 167.36Z" fill="#A36E6A"/>
<path d="M127.92 175.92C127.84 175.92 128.16 175.36 128.72 174.8C129.04 174.48 129.36 174.08 129.6 173.6C129.84 173.12 129.92 172.48 129.52 172.08C129.2 171.68 128.56 171.52 128 171.6C127.52 171.68 127.04 172 126.72 172.24C126.08 172.8 125.76 173.28 125.68 173.2C125.68 173.2 125.84 172.72 126.48 172C126.8 171.68 127.2 171.36 127.84 171.2C128.4 171.04 129.2 171.12 129.76 171.76C130 172.08 130.08 172.48 130.08 172.8C130.08 173.12 129.92 173.44 129.84 173.76C129.52 174.32 129.12 174.64 128.88 174.96C128.24 175.52 127.92 175.92 127.92 175.92Z" fill="#7A5554"/>
<path d="M132.96 177.2C132.88 177.2 133.6 176.08 134.56 174.24C135.04 173.36 135.6 172.24 136.08 170.96C136.32 170.32 136.56 169.6 136.56 168.96C136.56 168.64 136.4 168.32 136.16 168.08C135.92 167.84 135.6 167.84 135.28 167.92C134.64 168.08 134.24 168.8 133.84 169.44C133.44 170.08 133.12 170.72 132.8 171.28C132.08 172.4 131.52 173.52 130.96 174.4C130.4 175.28 130 176 129.92 176.56C129.84 177.12 130 177.44 129.92 177.44C129.92 177.44 129.84 177.36 129.84 177.2C129.76 177.04 129.76 176.8 129.76 176.48C129.76 175.84 130.24 175.12 130.72 174.24C131.2 173.28 131.84 172.24 132.48 171.04C132.8 170.48 133.2 169.84 133.52 169.2C133.92 168.56 134.24 167.76 135.2 167.44C135.6 167.28 136.16 167.36 136.48 167.68C136.8 168 136.96 168.4 136.96 168.88C136.96 169.68 136.64 170.4 136.4 171.04C135.92 172.32 135.28 173.44 134.8 174.32C134.24 175.2 133.84 175.92 133.44 176.4C133.2 176.96 133.04 177.2 132.96 177.2Z" fill="#7A5554"/>
<path d="M136.88 179.04C136.88 179.04 136.96 178.72 137.2 178.24C137.44 177.76 137.76 177.04 138.16 176.16C138.64 175.28 139.12 174.16 139.68 173.04C139.92 172.48 140.16 171.84 140.16 171.2C140.16 170.88 140.08 170.56 139.84 170.32C139.68 170.08 139.36 169.92 139.04 170C138.48 170.16 138.08 170.88 137.68 171.44C137.28 172 136.88 172.56 136.56 173.12C135.84 174.16 135.2 175.12 134.64 176C134.16 176.8 133.68 177.44 133.36 177.92C133.04 178.4 132.88 178.64 132.88 178.64C132.88 178.64 132.96 178.32 133.28 177.84C133.52 177.36 133.92 176.64 134.48 175.84C134.96 174.96 135.6 174 136.32 172.88C136.64 172.32 137.04 171.76 137.44 171.2C137.68 170.88 137.84 170.64 138.08 170.32C138.32 170 138.64 169.68 139.04 169.6C139.52 169.52 140 169.76 140.24 170.08C140.48 170.4 140.64 170.8 140.64 171.2C140.64 172 140.4 172.64 140.08 173.28C139.52 174.48 138.96 175.52 138.48 176.32C138 177.2 137.68 177.92 137.36 178.4C137.12 178.8 136.96 179.04 136.88 179.04Z" fill="#7A5554"/>
<path d="M123.2 159.92C123.28 159.84 123.52 160.48 123.28 161.12C122.96 161.84 122.4 162 122.32 161.92C122.24 161.84 122.64 161.52 122.88 160.96C123.12 160.48 123.12 159.92 123.2 159.92Z" fill="#7A5554"/>
<path d="M141.52 177.36C141.44 177.28 142 176.88 142.4 175.92C142.56 175.44 142.72 174.8 142.72 174.08C142.72 173.36 142.56 172.64 142.24 171.84C141.6 170.32 140.64 169.2 139.92 168.4C139.2 167.6 138.72 167.12 138.8 167.04C138.8 167.04 139.36 167.44 140.16 168.16C140.96 168.96 142 170.08 142.72 171.68C143.04 172.48 143.2 173.28 143.2 174.08C143.2 174.8 142.96 175.52 142.72 176C142.24 177.04 141.52 177.36 141.52 177.36Z" fill="#7A5554"/>
<path d="M248.4 136C248.4 136 239.12 109.2 235.68 107.84C235.68 107.84 220.56 104.48 213.04 102C213.04 102 207.92 107.36 198.08 107.2C188.48 107.04 186.48 104.88 186.48 104.88L173.12 110C173.12 110 163.6 113.44 162 117.6C160.4 121.68 157.52 145.12 157.52 145.12H171.36L171.12 186.48L168.56 207.28C169.52 207.44 231.68 206.64 231.68 206.64L231.44 152.48L231.68 141.04L248.4 136Z" fill="#FF725E"/>
<path d="M164.24 123.92C164.24 123.92 164.32 124.08 164.32 124.32C164.4 124.64 164.48 124.96 164.56 125.44C164.8 126.4 165.2 127.84 165.84 129.52C166.48 131.28 167.36 133.28 168.48 135.52C169.52 137.84 170.48 140.48 171.44 143.36C171.44 146.8 171.36 150.64 171.36 154.56C171.28 163.36 171.2 171.36 171.12 177.2C171.04 180.08 171.04 182.4 170.96 184.08C170.96 184.88 170.88 185.44 170.88 185.92C170.88 186.32 170.88 186.56 170.8 186.56C170.8 186.56 170.8 186.32 170.8 185.92C170.8 185.44 170.8 184.8 170.8 184.08C170.8 182.4 170.8 180.08 170.8 177.2C170.8 171.36 170.88 163.36 170.88 154.56C170.88 150.64 170.96 146.8 170.96 143.36V143.44C170 140.56 169.04 137.92 168.08 135.6C167.04 133.36 166.08 131.28 165.52 129.52C164.88 127.76 164.56 126.32 164.32 125.36C164.24 124.88 164.16 124.48 164.16 124.24C164.24 124 164.24 123.92 164.24 123.92Z" fill="#263238"/>
<path d="M232.64 117.12C232.64 117.12 232.64 117.6 232.64 118.32C232.64 119.2 232.56 120.32 232.48 121.68C232.4 124.56 232.24 128.48 232.08 132.72C231.92 137.04 231.68 140.88 231.6 143.76C231.52 145.12 231.44 146.24 231.44 147.12C231.36 147.92 231.36 148.32 231.28 148.32C231.28 148.32 231.2 147.92 231.28 147.12C231.28 146.24 231.28 145.12 231.36 143.76C231.44 140.96 231.52 137.04 231.76 132.72C231.92 128.4 232.16 124.48 232.32 121.68C232.4 120.24 232.48 119.12 232.56 118.32C232.56 117.6 232.64 117.12 232.64 117.12Z" fill="#263238"/>
<g opacity="0.3">
<path d="M164.64 126C164.32 132.32 166.72 138.48 170.96 143.2C169.68 137.2 166.4 131.68 164.64 126Z" fill="black"/>
</g>
<path d="M173.36 125.44C173.28 125.44 173.68 124.08 174.24 122.4C174.8 120.8 175.36 119.52 175.52 119.52C175.6 119.52 175.2 120.88 174.64 122.56C174 124.24 173.44 125.52 173.36 125.44Z" fill="white"/>
<path d="M188.24 116.24C188.16 116.32 186.8 115.28 185.28 114C183.68 112.64 182.48 111.52 182.56 111.44C182.64 111.36 184 112.4 185.52 113.68C187.04 114.96 188.32 116.08 188.24 116.24Z" fill="white"/>
<path d="M192.08 126.08C192.08 126.16 190.56 126.8 188.56 127.2C186.56 127.6 184.88 127.68 184.88 127.52C184.88 127.44 186.48 127.2 188.48 126.8C190.4 126.4 192 126 192.08 126.08Z" fill="white"/>
<path d="M177.92 146.56C177.84 146.56 177.84 145.36 178 143.84C178.16 142.4 178.4 141.2 178.48 141.2C178.56 141.2 178.56 142.4 178.4 143.92C178.24 145.44 178 146.56 177.92 146.56Z" fill="white"/>
<path d="M210.4 128C210.4 128.08 209.36 128.56 207.92 128.96C206.48 129.36 205.36 129.6 205.28 129.52C205.28 129.44 206.32 128.96 207.76 128.56C209.2 128.16 210.32 127.92 210.4 128Z" fill="white"/>
<path d="M205.92 114.88C205.84 114.88 206.16 113.6 206.88 112.16C207.6 110.72 208.48 109.76 208.56 109.84C208.64 109.92 207.92 110.96 207.2 112.4C206.56 113.76 206.08 114.96 205.92 114.88Z" fill="white"/>
<path d="M223.52 116.56C223.44 116.64 222.56 115.28 221.84 113.36C221.12 111.52 220.72 109.92 220.88 109.92C220.96 109.92 221.52 111.36 222.24 113.2C222.88 115.04 223.6 116.48 223.52 116.56Z" fill="white"/>
<path d="M223.84 138.32C223.76 138.32 223.92 136.96 224.56 135.44C225.2 133.92 225.92 132.8 226 132.88C226.08 132.96 225.52 134.08 224.96 135.6C224.4 137.12 224 138.32 223.84 138.32Z" fill="white"/>
<path d="M219.52 157.52C219.44 157.6 218.56 156.4 217.6 154.96C216.64 153.52 215.92 152.24 216 152.16C216.08 152.08 216.96 153.28 217.92 154.72C218.88 156.24 219.6 157.44 219.52 157.52Z" fill="white"/>
<path d="M240.56 130.32C240.64 130.4 239.76 131.04 238.64 131.6C237.52 132.24 236.56 132.64 236.48 132.56C236.4 132.48 237.28 131.84 238.4 131.28C239.52 130.64 240.48 130.24 240.56 130.32Z" fill="white"/>
<path d="M238.08 121.52C238 121.52 237.6 120.08 237.28 118.32C236.96 116.56 236.8 115.04 236.88 115.04C236.96 115.04 237.36 116.48 237.68 118.24C238 120 238.16 121.52 238.08 121.52Z" fill="white"/>
<path d="M164.08 142.16C164 142.16 163.44 140.8 162.8 139.12C162.24 137.44 161.84 136 161.92 135.92C162 135.92 162.56 137.28 163.2 138.96C163.76 140.72 164.16 142.08 164.08 142.16Z" fill="white"/>
<path d="M162.48 120.48C162.56 120.48 162.4 122.32 162.08 124.56C161.76 126.8 161.36 128.56 161.28 128.56C161.2 128.56 161.36 126.72 161.68 124.48C162 122.24 162.4 120.48 162.48 120.48Z" fill="white"/>
<path d="M188.48 166.96C188.4 167.04 186.96 166.32 185.28 165.04C183.68 163.84 182.48 162.56 182.56 162.48C182.64 162.4 183.92 163.44 185.52 164.72C187.2 165.92 188.56 166.8 188.48 166.96Z" fill="white"/>
<path d="M179.52 196.56C179.44 196.48 180.16 194.8 181.2 192.72C182.24 190.64 183.2 189.04 183.28 189.12C183.36 189.2 182.64 190.88 181.6 192.96C180.56 194.96 179.6 196.64 179.52 196.56Z" fill="white"/>
<path d="M201.52 196.96C201.44 197.04 199.6 196.24 197.52 194.72C195.44 193.28 194 191.76 194.08 191.68C194.16 191.6 195.68 192.96 197.76 194.4C199.76 195.84 201.52 196.8 201.52 196.96Z" fill="white"/>
<path d="M222.64 192C222.72 192.08 221.68 193.52 220 194.96C218.32 196.4 216.72 197.2 216.64 197.12C216.56 197.04 218.08 196.08 219.68 194.64C221.28 193.2 222.48 191.92 222.64 192Z" fill="white"/>
<path d="M214.8 181.44C214.72 181.44 214.8 180.8 215.04 179.76C215.28 178.72 215.6 177.28 216.16 175.76C216.64 174.24 217.2 172.88 217.6 171.92C218 170.96 218.32 170.4 218.4 170.4C218.48 170.48 217.52 172.88 216.56 175.92C215.6 178.96 214.96 181.44 214.8 181.44Z" fill="white"/>
<path d="M206 175.04C205.92 175.12 204.72 173.52 203.28 171.44C201.84 169.36 200.8 167.68 200.88 167.6C200.96 167.52 202.16 169.12 203.6 171.2C205.04 173.28 206.08 174.96 206 175.04Z" fill="white"/>
<g opacity="0.3">
<path d="M192.88 183.12C195.92 182.88 198.56 181.12 200.56 178.8C202.56 176.56 204.4 174 205.76 171.28C207.6 167.6 208.56 163.68 208.8 159.52C205.04 169.6 199.52 177.52 192.88 183.12Z" fill="black"/>
</g>
<path d="M209.92 155.2C209.92 155.2 209.92 155.36 209.84 155.6C209.76 155.92 209.68 156.24 209.6 156.64C209.52 157.12 209.36 157.68 209.2 158.24C209.04 158.88 208.8 159.6 208.56 160.4C208 162 207.28 163.84 206.32 165.76C205.36 167.76 204.16 169.84 202.8 172C201.36 174.08 199.92 176 198.48 177.68C197.04 179.28 195.6 180.72 194.32 181.76C193.68 182.32 193.12 182.8 192.56 183.2C192.08 183.6 191.6 183.92 191.2 184.24C190.88 184.48 190.56 184.64 190.32 184.88C190.08 185.04 190 185.04 190 185.04C190 185.04 190.08 184.96 190.24 184.8C190.48 184.64 190.72 184.4 191.04 184.16C191.44 183.92 191.84 183.52 192.32 183.12C192.8 182.72 193.36 182.24 194 181.68C195.2 180.56 196.56 179.2 198.08 177.52C199.52 175.84 200.96 174 202.4 171.92C203.76 169.84 204.96 167.76 205.92 165.76C206.88 163.76 207.68 162 208.24 160.4C208.56 159.6 208.8 158.88 208.96 158.32C209.2 157.68 209.36 157.12 209.44 156.72C209.6 156.32 209.68 156 209.76 155.68C209.92 155.28 209.92 155.2 209.92 155.2Z" fill="#263238"/>
<path d="M184.508 149.524H182.838L181.238 142.784H182.868L183.378 145.554C183.528 146.364 183.668 147.234 183.778 147.914H183.798C183.908 147.184 184.068 146.374 184.238 145.534L184.808 142.784H186.428L186.968 145.624C187.118 146.414 187.228 147.134 187.328 147.884H187.348C187.448 147.134 187.598 146.344 187.738 145.534L188.288 142.784H189.838L188.098 149.524H186.448L185.878 146.624C185.748 145.944 185.638 145.314 185.558 144.544H185.538C185.418 145.304 185.308 145.944 185.148 146.624L184.508 149.524ZM194.635 145.434V146.674H192.155V148.274H194.925V149.524H190.635V142.784H194.785V144.034H192.155V145.434H194.635ZM195.967 149.494V142.874C196.367 142.804 197.167 142.734 197.937 142.734C198.867 142.734 199.437 142.824 199.937 143.114C200.407 143.364 200.737 143.824 200.737 144.444C200.737 145.034 200.387 145.584 199.627 145.874V145.894C200.397 146.094 200.967 146.684 200.967 147.544C200.967 148.164 200.687 148.644 200.267 148.984C199.777 149.374 198.957 149.594 197.617 149.594C196.867 149.594 196.307 149.544 195.967 149.494ZM197.477 143.884V145.454H197.977C198.787 145.454 199.207 145.124 199.207 144.624C199.207 144.114 198.817 143.844 198.127 143.844C197.787 143.844 197.597 143.864 197.477 143.884ZM197.477 146.544V148.444C197.627 148.464 197.807 148.464 198.067 148.464C198.757 148.464 199.367 148.194 199.367 147.484C199.367 146.814 198.757 146.544 197.997 146.544H197.477ZM202.002 142.784H203.522V146.654C203.522 147.824 203.972 148.414 204.742 148.414C205.542 148.414 205.982 147.854 205.982 146.654V142.784H207.502V146.564C207.502 148.644 206.452 149.634 204.692 149.634C202.992 149.634 202.002 148.684 202.002 146.544V142.784ZM208.828 149.524V142.784H210.348V148.244H213.028V149.524H208.828ZM213.936 149.524V142.784H215.456V148.244H218.136V149.524H213.936ZM181.758 154.784H183.278V161.524H181.758V154.784ZM184.34 161.204L184.65 159.954C185.05 160.164 185.69 160.374 186.34 160.374C187.04 160.374 187.41 160.084 187.41 159.644C187.41 159.224 187.09 158.984 186.28 158.704C185.16 158.304 184.42 157.684 184.42 156.704C184.42 155.554 185.39 154.684 186.97 154.684C187.74 154.684 188.29 154.834 188.69 155.024L188.35 156.244C188.09 156.114 187.6 155.924 186.95 155.924C186.29 155.924 185.97 156.234 185.97 156.574C185.97 157.004 186.34 157.194 187.22 157.524C188.41 157.964 188.96 158.584 188.96 159.534C188.96 160.664 188.1 161.624 186.25 161.624C185.48 161.624 184.72 161.414 184.34 161.204ZM190.01 154.784H191.53V157.374H194.04V154.784H195.56V161.524H194.04V158.704H191.53V161.524H190.01V154.784Z" fill="white"/>
<path d="M208.08 137.12C208.08 137.12 208.08 137.36 208 137.68C207.92 138.08 207.84 138.64 207.68 139.36C207.52 140.08 207.36 140.96 207.12 142C206.88 143.04 206.64 144.16 206.24 145.44C206.08 146.08 205.84 146.72 205.68 147.44C205.44 148.16 205.2 148.8 204.96 149.6C204.48 151.12 203.84 152.64 203.2 154.24C201.84 157.44 200.08 160.88 198 164.32C195.84 167.76 193.6 170.88 191.36 173.6C190.24 174.96 189.12 176.16 188.08 177.28C187.52 177.84 187.04 178.4 186.48 178.88C185.92 179.36 185.44 179.84 184.96 180.32C184 181.28 183.12 182 182.32 182.72C181.52 183.44 180.8 184 180.24 184.4C179.68 184.8 179.2 185.2 178.88 185.44C178.56 185.68 178.4 185.76 178.4 185.76C178.4 185.76 178.56 185.6 178.8 185.36C179.12 185.12 179.6 184.72 180.08 184.24C180.64 183.76 181.36 183.2 182.16 182.48C182.96 181.76 183.84 181.04 184.8 180.08C185.28 179.6 185.76 179.12 186.32 178.64C186.8 178.16 187.36 177.6 187.84 177.04C188.96 175.92 190 174.64 191.12 173.36C193.28 170.64 195.6 167.6 197.68 164.16C199.76 160.72 201.52 157.28 202.88 154.08C203.52 152.48 204.16 150.96 204.72 149.52C204.96 148.8 205.28 148.08 205.44 147.44C205.68 146.72 205.84 146.08 206.08 145.44C206.48 144.16 206.72 143.04 207.04 142C207.36 140.96 207.52 140.08 207.68 139.36C207.84 138.64 207.92 138.16 208.08 137.68C208 137.36 208.08 137.12 208.08 137.12Z" fill="#263238"/>
<path d="M125.577 288.443C138.293 275.728 138.293 255.112 125.577 242.397C112.862 229.681 92.2465 229.681 79.5311 242.397C66.8158 255.112 66.8158 275.728 79.5311 288.443C92.2465 301.158 112.862 301.158 125.577 288.443Z" fill="#FAFAFA"/>
<path d="M135.04 265.44C135.04 265.44 135.04 265.28 134.96 264.88C134.96 264.48 134.88 264 134.88 263.36C134.88 263.04 134.8 262.64 134.8 262.24C134.72 261.84 134.64 261.36 134.56 260.88C134.48 260.4 134.4 259.84 134.32 259.28C134.24 258.72 134.08 258.16 133.92 257.52C133.36 255.04 132.16 252 130.32 248.88C128.48 245.76 125.76 242.48 122.08 239.68C121.6 239.36 121.12 238.96 120.72 238.64C120.24 238.32 119.68 238 119.2 237.68C118.64 237.36 118.16 237.04 117.6 236.8C117.04 236.56 116.48 236.24 115.92 236C115.6 235.84 115.36 235.76 115.04 235.6C114.72 235.52 114.48 235.36 114.16 235.28C113.52 235.04 112.96 234.8 112.32 234.64C111.68 234.4 111.04 234.32 110.4 234.16C109.76 234 109.12 233.76 108.48 233.68C107.12 233.52 105.76 233.2 104.4 233.2C103.68 233.2 102.96 233.12 102.32 233.12C101.6 233.12 100.88 233.2 100.16 233.2C99.84 233.2 99.44 233.2 99.04 233.28L98 233.44C97.28 233.52 96.56 233.68 95.84 233.76C94.4 234.16 92.96 234.4 91.52 235.04C90.08 235.52 88.72 236.24 87.28 236.88C86.56 237.28 85.92 237.68 85.28 238.08C84.96 238.32 84.56 238.48 84.32 238.72L83.36 239.44C82.08 240.32 80.88 241.44 79.68 242.56C78.56 243.76 77.44 244.96 76.48 246.32L75.76 247.28L75.12 248.32L74.48 249.36L74.16 249.92L73.92 250.48C73.52 251.2 73.2 252 72.8 252.72C72.48 253.52 72.24 254.32 71.92 255.12C70.88 258.4 70.32 261.84 70.24 265.28C70.32 268.8 70.88 272.24 71.92 275.44C72.24 276.24 72.48 277.04 72.8 277.84C73.2 278.64 73.52 279.36 73.92 280.08L74.16 280.64L74.48 281.2L75.12 282.24L75.76 283.28L76.48 284.24L77.2 285.2L77.6 285.68L78 286.16C78.56 286.8 79.12 287.36 79.68 288C80.88 289.12 82 290.24 83.36 291.12L84.32 291.84C84.64 292.08 84.96 292.24 85.28 292.48C85.92 292.88 86.64 293.28 87.28 293.68C88.72 294.32 90.08 295.04 91.52 295.52C92.96 296.08 94.4 296.4 95.84 296.8C96.56 296.96 97.28 297.04 98 297.12L99.04 297.28C99.36 297.36 99.76 297.36 100.16 297.36C100.88 297.36 101.6 297.44 102.32 297.44C103.04 297.44 103.76 297.36 104.4 297.36C105.84 297.36 107.12 297.04 108.48 296.88C109.12 296.8 109.76 296.56 110.4 296.4C111.04 296.24 111.68 296.08 112.32 295.92C112.96 295.68 113.52 295.44 114.16 295.28C114.48 295.2 114.72 295.04 115.04 294.96C115.36 294.8 115.6 294.72 115.92 294.56C116.48 294.32 117.04 294 117.6 293.76C118.16 293.52 118.64 293.12 119.2 292.88C119.68 292.56 120.24 292.24 120.72 291.92C121.2 291.6 121.68 291.2 122.08 290.88C125.76 288.08 128.48 284.8 130.32 281.68C132.16 278.56 133.36 275.6 133.92 273.04C134.08 272.4 134.24 271.84 134.32 271.28C134.4 270.72 134.48 270.16 134.56 269.68C134.64 269.2 134.72 268.72 134.8 268.32C134.8 267.92 134.88 267.52 134.88 267.2C134.96 266.56 134.96 266 134.96 265.68C135.04 265.6 135.04 265.44 135.04 265.44C135.04 265.44 135.04 265.6 135.04 266C135.04 266.4 135.04 266.88 134.96 267.52C134.96 267.84 134.96 268.24 134.88 268.64C134.88 269.04 134.8 269.52 134.72 270C134.64 270.48 134.56 271.04 134.48 271.6C134.4 272.16 134.24 272.72 134.08 273.36C133.52 275.92 132.4 278.88 130.56 282.08C128.72 285.28 126 288.56 122.32 291.36C121.84 291.68 121.36 292.08 120.88 292.4C120.4 292.72 119.84 293.04 119.36 293.36C118.8 293.68 118.32 294 117.76 294.32C117.2 294.56 116.64 294.88 116.08 295.12C115.76 295.28 115.52 295.36 115.2 295.52C114.88 295.6 114.56 295.76 114.32 295.84C113.68 296.08 113.12 296.32 112.48 296.48C111.84 296.72 111.2 296.8 110.56 297.04C109.92 297.2 109.28 297.44 108.56 297.52C107.2 297.68 105.84 298 104.4 298C103.68 298 102.96 298.08 102.24 298.08C101.52 298.08 100.8 298 100.08 298C99.68 298 99.36 298 98.96 297.92L97.84 297.76C97.12 297.68 96.4 297.52 95.6 297.44C94.16 297.04 92.64 296.72 91.2 296.16C89.76 295.68 88.32 294.96 86.96 294.32C86.24 293.92 85.6 293.52 84.96 293.12C84.64 292.88 84.24 292.72 83.92 292.48L82.96 291.76C81.6 290.88 80.48 289.68 79.28 288.64C78.72 288 78.16 287.44 77.6 286.8L77.2 286.32L76.8 285.84L76.08 284.8L75.36 283.76L74.72 282.72L74.08 281.6L73.76 281.04L73.52 280.48C73.12 279.68 72.8 278.96 72.4 278.16C72.08 277.36 71.84 276.56 71.52 275.76C70.48 272.48 69.84 268.96 69.84 265.44C69.92 261.92 70.48 258.4 71.52 255.12C71.84 254.32 72.08 253.52 72.4 252.72C72.8 251.92 73.12 251.2 73.52 250.4L73.84 249.84L74.16 249.28L74.8 248.16L75.44 247.12L76.16 246.08C77.12 244.72 78.24 243.52 79.36 242.32C80.56 241.2 81.76 240.08 83.04 239.2L84 238.48C84.32 238.24 84.64 238.08 85.04 237.84C85.76 237.44 86.4 236.96 87.04 236.64C88.48 236 89.84 235.2 91.28 234.8C92.72 234.24 94.16 233.92 95.68 233.52C96.4 233.36 97.12 233.28 97.92 233.2L99.04 233.04C99.44 232.96 99.76 232.96 100.16 232.96C100.88 232.96 101.6 232.88 102.32 232.88C103.04 232.88 103.76 232.96 104.48 232.96C105.92 232.96 107.28 233.28 108.64 233.44C109.36 233.52 110 233.76 110.64 233.92C111.28 234.08 111.92 234.24 112.56 234.48C113.2 234.72 113.76 234.96 114.4 235.12C114.72 235.2 115.04 235.36 115.28 235.44C115.6 235.6 115.84 235.68 116.16 235.84C116.72 236.08 117.28 236.4 117.84 236.64C118.4 236.88 118.88 237.28 119.44 237.6C119.92 237.92 120.48 238.24 120.96 238.56C121.44 238.88 121.92 239.28 122.4 239.6C126.08 242.4 128.8 245.76 130.64 248.88C132.48 252.08 133.68 255.04 134.16 257.6C134.32 258.24 134.48 258.8 134.56 259.36C134.64 259.92 134.72 260.48 134.8 260.96C134.88 261.44 134.96 261.92 134.96 262.32C134.96 262.72 134.96 263.12 135.04 263.44C135.04 264.08 135.12 264.64 135.12 264.96C135.04 265.28 135.04 265.44 135.04 265.44Z" fill="#FFB506"/>
<path d="M115.28 259.76C116.32 266.8 111.44 273.36 104.4 274.32C97.36 275.36 90.8 270.48 89.76 263.44C88.72 256.4 93.6 249.84 100.64 248.88C107.76 247.84 114.32 252.72 115.28 259.76Z" fill="#FF725E"/>
<path d="M102.48 274.56C99.68 274.56 97.04 273.68 94.8 272C92 269.92 90.24 266.96 89.76 263.52C89.28 260.08 90.16 256.72 92.16 253.92C94.24 251.12 97.28 249.36 100.64 248.88C104.08 248.4 107.44 249.28 110.24 251.28C113.04 253.36 114.8 256.32 115.28 259.76C115.76 263.2 114.88 266.56 112.88 269.36C110.8 272.16 107.76 273.92 104.4 274.4C103.76 274.48 103.12 274.56 102.48 274.56ZM102.56 248.8C101.92 248.8 101.28 248.88 100.64 248.96C97.2 249.44 94.24 251.28 92.16 254C90.08 256.72 89.2 260.16 89.76 263.52C90.24 266.88 92.08 269.92 94.8 272C97.52 274.08 100.96 274.88 104.32 274.4C107.76 273.92 110.72 272.08 112.8 269.36C114.88 266.64 115.76 263.2 115.2 259.84C114.72 256.48 112.88 253.44 110.16 251.36C108 249.68 105.36 248.8 102.56 248.8Z" fill="#FFB506"/>
<path d="M112.24 260.24C113.04 265.6 109.28 270.56 103.92 271.36C98.56 272.16 93.52 268.4 92.8 263.04C92 257.68 95.76 252.72 101.12 251.92C106.48 251.12 111.52 254.88 112.24 260.24Z" fill="#FF725E"/>
<path d="M102.48 271.44C100.4 271.44 98.32 270.8 96.64 269.52C94.56 267.92 93.2 265.68 92.8 263.04C92 257.68 95.76 252.64 101.12 251.92C106.48 251.12 111.52 254.88 112.32 260.24C113.12 265.6 109.36 270.64 104 271.36C103.44 271.44 102.96 271.44 102.48 271.44ZM102.56 251.84C102.08 251.84 101.6 251.84 101.12 251.92C95.76 252.72 92 257.68 92.8 263.04C93.2 265.6 94.56 267.92 96.64 269.44C98.72 271.04 101.36 271.68 103.92 271.28C109.28 270.48 113.04 265.52 112.24 260.16C111.52 255.36 107.36 251.84 102.56 251.84Z" fill="#FFB506"/>
<g opacity="0.3">
<path d="M104.48 267.28L104.72 268.96L103.2 269.2L102.96 267.52C101.44 267.68 99.92 267.44 99.04 266.88L99.6 264.88C100.48 265.28 101.6 265.52 102.72 265.52L102.32 262.96C100.56 262.8 98.64 262.56 98.24 260.4C98 258.8 98.96 257.2 101.28 256.56L101.04 254.88L102.56 254.64L102.8 256.32C103.92 256.24 105.12 256.32 106 256.72L105.52 258.72C104.64 258.4 103.84 258.24 103.12 258.32L103.52 260.88C105.28 261.04 107.2 261.28 107.52 263.36C107.76 265.04 106.8 266.64 104.48 267.28ZM101.92 260.8L101.6 258.64C100.8 258.96 100.56 259.44 100.64 259.92C100.72 260.48 101.2 260.72 101.92 260.8ZM105.12 264.08C105.04 263.52 104.56 263.36 103.84 263.2L104.16 265.28C104.88 264.96 105.12 264.56 105.12 264.08Z" fill="black"/>
</g>
<path d="M121.84 279.44C121.84 279.52 113.44 279.68 103.12 279.68C92.8 279.68 84.4 279.6 84.4 279.44C84.4 279.36 92.8 279.2 103.12 279.2C113.44 279.2 121.84 279.28 121.84 279.44Z" fill="#FFB506"/>
<path d="M111.52 283.28C111.52 283.36 107.76 283.52 103.2 283.52C98.56 283.52 94.88 283.44 94.88 283.28C94.88 283.2 98.64 283.04 103.2 283.04C107.76 283.04 111.52 283.2 111.52 283.28Z" fill="#FFB506"/>
<path d="M112.24 260.24C112.16 260.24 112.08 259.36 111.52 257.92C110.96 256.48 109.6 254.48 107.2 253.2C106 252.56 104.56 252.08 102.88 252C101.28 252 99.52 252.24 97.92 253.12C97.12 253.52 96.4 254.08 95.68 254.8C95.04 255.44 94.4 256.24 93.92 257.12C92.96 258.88 92.64 260.96 92.88 263.04C93.2 265.12 94.16 267.04 95.52 268.4C96.24 269.12 96.96 269.68 97.84 270.16C98.64 270.64 99.52 270.96 100.4 271.12C102.16 271.52 103.92 271.28 105.44 270.8C106.96 270.32 108.24 269.44 109.2 268.48C111.12 266.48 111.84 264.24 112 262.72C112.4 261.04 112.24 260.24 112.24 260.24C112.24 260.24 112.32 260.48 112.32 260.88C112.32 261.12 112.4 261.36 112.4 261.68C112.4 262 112.4 262.32 112.4 262.72C112.32 264.24 111.68 266.64 109.68 268.64C108.72 269.68 107.36 270.56 105.84 271.12C104.24 271.68 102.4 271.84 100.56 271.44C99.6 271.28 98.72 270.96 97.84 270.48C96.96 270 96.16 269.44 95.44 268.72C94 267.28 92.96 265.28 92.64 263.12C92.32 260.96 92.72 258.8 93.76 256.96C94.24 256.08 94.88 255.2 95.6 254.56C96.32 253.84 97.12 253.28 97.92 252.88C99.6 252 101.44 251.68 103.04 251.68C104.72 251.76 106.24 252.24 107.44 252.96C109.92 254.4 111.2 256.48 111.76 257.92C111.92 258.32 112 258.64 112.08 258.88C112.16 259.2 112.24 259.44 112.24 259.6C112.24 260 112.32 260.24 112.24 260.24Z" fill="#FFB506"/>
<g opacity="0.3">
<path d="M112.24 259.92C112.16 259.92 112.08 259.52 111.84 258.8C111.6 258.08 111.12 257.04 110.32 256C109.92 255.44 109.36 254.96 108.8 254.4C108.16 253.92 107.44 253.44 106.64 253.04C106.24 252.88 105.84 252.72 105.36 252.56C104.88 252.4 104.48 252.32 104 252.24C103.52 252.16 103.04 252.16 102.56 252.16C102.08 252.16 101.52 252.24 101.04 252.32C100.56 252.4 100.08 252.56 99.6 252.72C99.12 252.88 98.64 253.12 98.24 253.28C97.84 253.52 97.44 253.76 97.04 254C96.64 254.24 96.32 254.56 96 254.88C95.36 255.52 94.88 256.16 94.4 256.88C94 257.6 93.68 258.24 93.52 258.88C93.12 260.16 93.04 261.28 93.04 262.08C93.04 262.88 93.12 263.28 93.04 263.28C92.96 263.28 92.88 262.88 92.72 262.08C92.64 261.28 92.64 260.16 92.96 258.72C93.12 258 93.44 257.28 93.84 256.56C94.24 255.84 94.8 255.04 95.44 254.4C95.76 254.08 96.16 253.76 96.56 253.44C96.96 253.12 97.36 252.88 97.84 252.64C98.32 252.4 98.8 252.16 99.28 252C99.76 251.84 100.32 251.68 100.88 251.6C101.44 251.52 102 251.44 102.48 251.44C103.04 251.44 103.52 251.44 104.08 251.52C104.56 251.6 105.12 251.68 105.6 251.84C106.08 252 106.56 252.16 106.96 252.4C107.84 252.8 108.56 253.36 109.2 253.92C109.84 254.48 110.32 255.04 110.8 255.68C111.6 256.88 112 258 112.24 258.72C112.24 259.44 112.24 259.92 112.24 259.92Z" fill="black"/>
</g>
<path d="M149.28 211.12C149.36 211.2 143.28 217.68 135.76 225.52C128.24 233.36 122.08 239.68 121.92 239.6C121.84 239.52 127.84 233.04 135.44 225.2C143.04 217.36 149.2 211.04 149.28 211.12Z" fill="#FFB506"/>
<path d="M59.84 199.28C79.6781 199.28 95.76 183.198 95.76 163.36C95.76 143.522 79.6781 127.44 59.84 127.44C40.0019 127.44 23.92 143.522 23.92 163.36C23.92 183.198 40.0019 199.28 59.84 199.28Z" fill="#FAFAFA"/>
<path d="M95.76 163.36C95.76 163.36 95.76 163.2 95.68 162.8C95.68 162.4 95.6 161.84 95.6 161.12C95.6 160.72 95.52 160.32 95.52 159.84C95.44 159.36 95.36 158.88 95.28 158.32C95.2 157.76 95.12 157.2 95.04 156.56C94.96 155.92 94.72 155.28 94.56 154.64C93.92 151.84 92.64 148.56 90.56 145.12C88.48 141.68 85.52 138.08 81.44 134.96C80.96 134.56 80.4 134.16 79.92 133.84C79.36 133.52 78.8 133.12 78.24 132.8C77.68 132.48 77.12 132.08 76.48 131.76C75.84 131.44 75.28 131.2 74.64 130.88C74.32 130.72 74 130.56 73.68 130.4C73.36 130.32 73.04 130.16 72.72 130C72.08 129.76 71.36 129.52 70.72 129.28C70 129.04 69.36 128.88 68.64 128.72C67.92 128.56 67.2 128.32 66.48 128.24C65.04 128 63.52 127.76 62 127.68C61.2 127.68 60.48 127.6 59.68 127.6C58.88 127.68 58.08 127.68 57.28 127.76C56.88 127.76 56.48 127.76 56.08 127.84C55.68 127.92 55.28 128 54.88 128C54.08 128.16 53.28 128.24 52.48 128.4C50.88 128.8 49.28 129.12 47.68 129.76L46.48 130.16C46.08 130.32 45.68 130.48 45.28 130.64C44.48 131.04 43.76 131.36 42.96 131.76C42.24 132.16 41.52 132.64 40.72 133.12C40.32 133.36 40 133.52 39.6 133.84L38.56 134.64C37.12 135.6 35.84 136.88 34.48 138.08C33.84 138.72 33.28 139.44 32.64 140.08L32.16 140.56L31.76 141.12L30.96 142.24L30.16 143.36L29.44 144.56L28.72 145.76L28.32 146.32L28 146.96C27.6 147.76 27.2 148.64 26.8 149.44C26.48 150.32 26.16 151.2 25.84 152.08C24.64 155.68 24.08 159.44 24 163.36C24.08 167.2 24.64 171.04 25.84 174.64C26.16 175.52 26.48 176.4 26.8 177.28C27.2 178.16 27.6 178.96 28 179.76L28.32 180.4L28.72 180.96L29.44 182.16L30.16 183.36L30.96 184.48L31.76 185.6L32.16 186.16L32.64 186.64C33.28 187.28 33.84 188 34.48 188.64C35.84 189.84 37.04 191.12 38.56 192.08L39.6 192.88C39.92 193.12 40.32 193.36 40.72 193.6C41.44 194.08 42.16 194.48 42.96 194.96C43.76 195.36 44.48 195.68 45.28 196.08C46 196.48 46.88 196.72 47.6 197.04C49.12 197.68 50.8 198 52.4 198.4C53.2 198.56 54 198.64 54.8 198.8C55.2 198.88 55.6 198.96 56 198.96C56.4 199.04 56.8 199.04 57.2 199.04C58 199.12 58.8 199.12 59.6 199.2C60.4 199.2 61.12 199.12 61.92 199.12C63.44 199.12 64.96 198.8 66.4 198.56C67.12 198.48 67.84 198.24 68.56 198.08C69.28 197.92 70 197.76 70.64 197.52C71.28 197.28 72 197.04 72.64 196.8C72.96 196.64 73.28 196.56 73.6 196.4C73.92 196.24 74.24 196.08 74.56 195.92C75.2 195.6 75.84 195.36 76.4 195.04C77.04 194.72 77.6 194.32 78.16 194C78.72 193.68 79.28 193.36 79.84 192.96C80.4 192.56 80.88 192.16 81.36 191.84C85.44 188.8 88.4 185.12 90.48 181.68C92.56 178.24 93.84 174.96 94.48 172.16C94.64 171.44 94.88 170.8 94.96 170.24C95.04 169.6 95.12 169.04 95.2 168.48C95.28 167.92 95.36 167.44 95.44 166.96C95.44 166.48 95.52 166.08 95.52 165.68C95.6 164.96 95.6 164.4 95.6 164C95.76 163.52 95.76 163.36 95.76 163.36C95.76 163.36 95.76 163.52 95.76 163.92C95.76 164.32 95.76 164.88 95.68 165.6C95.68 166 95.68 166.4 95.6 166.88C95.52 167.36 95.44 167.84 95.36 168.4C95.28 168.96 95.2 169.52 95.12 170.16C95.04 170.8 94.8 171.44 94.64 172.16C94 174.96 92.72 178.24 90.72 181.76C88.64 185.28 85.68 188.88 81.6 192C81.12 192.4 80.56 192.8 80.08 193.2C79.52 193.6 78.96 193.92 78.4 194.24C77.84 194.56 77.28 194.96 76.64 195.28C76 195.6 75.44 195.84 74.8 196.16C74.48 196.32 74.16 196.48 73.84 196.64C73.52 196.8 73.2 196.88 72.88 197.04C72.24 197.28 71.52 197.52 70.88 197.76C70.16 198 69.44 198.16 68.72 198.32C68 198.48 67.28 198.72 66.56 198.8C65.04 199.04 63.6 199.36 62 199.36C61.2 199.36 60.4 199.44 59.68 199.44C58.88 199.44 58.08 199.36 57.28 199.36C56.88 199.36 56.48 199.36 56.08 199.28C55.68 199.2 55.28 199.12 54.88 199.12C54.08 198.96 53.28 198.88 52.48 198.72C50.88 198.32 49.2 198 47.68 197.28C46.88 196.96 46.08 196.72 45.28 196.32C44.48 195.92 43.76 195.6 42.96 195.2C42.16 194.8 41.44 194.32 40.72 193.84C40.32 193.6 39.92 193.44 39.6 193.12L38.56 192.32C37.12 191.28 35.84 190.08 34.48 188.88C33.84 188.24 33.28 187.52 32.64 186.88L32.16 186.4L31.76 185.84L30.96 184.72L30.16 183.6L29.44 182.4L28.72 181.2L28.32 180.64L28 180C27.6 179.12 27.2 178.32 26.8 177.44C26.48 176.56 26.16 175.68 25.84 174.8C24.64 171.2 24 167.36 24 163.44C24.08 159.52 24.72 155.68 25.84 152.08C26.16 151.2 26.48 150.32 26.8 149.44C27.2 148.56 27.6 147.76 28 146.88L28.32 146.24L28.72 145.68L29.44 144.48L30.16 143.28L30.96 142.16L31.76 141.04L32.16 140.48L32.64 140C33.28 139.36 33.84 138.64 34.48 138C35.84 136.8 37.12 135.52 38.56 134.56L39.6 133.76C39.92 133.52 40.32 133.28 40.72 133.04C41.44 132.56 42.24 132.08 42.96 131.68C43.76 131.28 44.56 130.96 45.28 130.56C45.68 130.4 46.08 130.16 46.48 130.08L47.68 129.68C49.28 129.04 50.88 128.72 52.48 128.24C53.28 128.08 54.08 128 54.88 127.84C55.28 127.76 55.68 127.68 56.08 127.68C56.48 127.6 56.88 127.6 57.28 127.6C58.08 127.6 58.88 127.52 59.68 127.52C60.48 127.52 61.28 127.6 62 127.6C63.6 127.6 65.04 127.92 66.56 128.16C67.28 128.24 68 128.48 68.72 128.64C69.44 128.8 70.16 128.96 70.88 129.2C71.6 129.44 72.24 129.68 72.88 129.92C73.2 130.08 73.52 130.16 73.84 130.32C74.16 130.48 74.48 130.64 74.8 130.8C75.44 131.12 76.08 131.44 76.64 131.68C77.28 132 77.84 132.4 78.4 132.72C78.96 133.04 79.52 133.44 80.08 133.76C80.64 134.16 81.12 134.56 81.6 134.96C85.68 138.08 88.64 141.76 90.72 145.2C92.8 148.72 94.08 152 94.64 154.8C94.8 155.52 95.04 156.16 95.12 156.8C95.2 157.44 95.28 158 95.36 158.56C95.44 159.12 95.52 159.6 95.6 160.08C95.6 160.56 95.6 160.96 95.68 161.36C95.68 162.08 95.76 162.64 95.76 163.04C95.76 163.2 95.76 163.36 95.76 163.36Z" fill="#FFB506"/>
<path d="M62 161.84C64.08 160.96 65.52 158.8 65.52 156.32C65.52 153.04 63.04 150.32 59.92 150.32C56.8 150.32 54.32 152.96 54.32 156.24C54.32 158.8 55.76 160.96 57.92 161.84C49.28 163.12 49.68 172.48 49.68 172.48L70.08 172.56C70.08 172.64 70.48 163.12 62 161.84Z" fill="#FF725E"/>
<path d="M62 161.84C62.24 161.92 62.48 161.92 63.04 162C63.2 162 63.36 162.08 63.6 162.08C63.76 162.16 64 162.24 64.24 162.32C64.48 162.4 64.72 162.48 64.96 162.64C65.2 162.8 65.44 162.96 65.76 163.12C66.88 163.84 68 164.96 68.88 166.56C69.68 168.24 70.24 170.24 70.24 172.56V172.72H70.08C64.4 172.72 57.44 172.72 49.68 172.64H49.44V172.48C49.44 170.56 49.84 168.56 50.72 166.72C51.44 165.28 52.4 164.08 53.68 163.2C54.96 162.32 56.4 161.92 57.84 161.6L57.76 162C56.64 161.52 55.76 160.72 55.12 159.76C54.48 158.8 54.16 157.68 54.08 156.56C53.92 154.32 55.04 152.24 56.64 151.12C57.44 150.56 58.4 150.24 59.36 150.16C60.32 150.08 61.2 150.24 62 150.64C63.6 151.36 64.64 152.72 65.2 154.08C65.68 155.44 65.6 156.88 65.36 157.92C65.04 159.04 64.48 159.84 63.92 160.48C63.36 161.04 62.88 161.36 62.48 161.6C62.16 161.76 62 161.84 62 161.84C62.16 161.76 62.32 161.68 62.56 161.52C62.88 161.28 63.44 160.96 63.92 160.4C64.4 159.84 64.96 158.96 65.28 157.92C65.52 156.88 65.6 155.52 65.12 154.24C64.64 152.96 63.6 151.6 62.08 150.96C61.36 150.64 60.48 150.48 59.6 150.56C58.72 150.64 57.84 150.96 57.04 151.52C55.52 152.64 54.48 154.56 54.64 156.64C54.72 158.72 56 160.8 58.08 161.68L58.72 161.92L58 162.08C56.64 162.32 55.2 162.8 54 163.6C52.8 164.4 51.84 165.6 51.2 166.96C50.32 168.72 49.92 170.72 49.92 172.56L49.68 172.4C57.36 172.48 64.4 172.48 70.08 172.56L69.92 172.72C69.92 170.48 69.44 168.48 68.64 166.88C67.84 165.28 66.72 164.16 65.68 163.44C65.44 163.28 65.12 163.12 64.88 162.96C64.64 162.8 64.4 162.72 64.16 162.64C63.92 162.56 63.76 162.48 63.52 162.4C63.36 162.32 63.12 162.32 62.96 162.24C62.64 162.16 62.4 162.08 62.24 162.08C62.08 161.84 62 161.84 62 161.84Z" fill="#FFB506"/>
<path d="M79.36 179.28C79.36 179.36 70.88 179.52 60.4 179.52C49.92 179.52 41.44 179.44 41.44 179.28C41.44 179.2 49.92 179.04 60.4 179.04C70.88 179.12 79.36 179.2 79.36 179.28Z" fill="#FFB506"/>
<path d="M68.88 183.2C68.88 183.28 65.12 183.44 60.4 183.44C55.76 183.44 51.92 183.36 51.92 183.2C51.92 183.12 55.68 182.96 60.4 182.96C65.12 182.96 68.88 183.04 68.88 183.2Z" fill="#FFB506"/>
<path d="M113.28 167.12C113.28 167.2 109.52 167.36 104.8 167.36C100.08 167.36 96.32 167.28 96.32 167.12C96.32 167.04 100.08 166.88 104.8 166.88C109.44 166.96 113.28 167.04 113.28 167.12Z" fill="#FFB506"/>
<path d="M125.561 75.0775C129.914 56.9937 118.782 38.8053 100.699 34.4527C82.6147 30.1001 64.4264 41.2314 60.0737 59.3153C55.7211 77.3991 66.8525 95.5875 84.9363 99.9401C103.02 104.293 121.209 93.1614 125.561 75.0775Z" fill="#FAFAFA"/>
<path d="M126.48 67.2C126.48 67.2 126.48 67.04 126.4 66.64C126.4 66.24 126.32 65.76 126.32 65.04C126.32 64.72 126.24 64.32 126.24 63.84C126.16 63.44 126.08 62.96 126 62.4C125.92 61.92 125.84 61.36 125.76 60.8C125.68 60.24 125.44 59.6 125.36 58.96C124.8 56.4 123.52 53.28 121.6 50C119.68 46.72 116.88 43.36 113.04 40.48C112.56 40.16 112.08 39.76 111.6 39.44C111.12 39.12 110.56 38.8 110 38.48C109.44 38.16 108.96 37.76 108.4 37.52C107.84 37.28 107.28 36.96 106.64 36.72C106.32 36.56 106.08 36.48 105.76 36.32C105.44 36.24 105.12 36.08 104.8 36C104.16 35.76 103.52 35.52 102.88 35.28C102.24 35.04 101.6 34.96 100.88 34.72C100.24 34.56 99.52 34.32 98.88 34.24C97.52 34.08 96.08 33.76 94.64 33.76C93.92 33.76 93.2 33.68 92.48 33.68C91.76 33.68 91.04 33.76 90.24 33.76C89.84 33.76 89.52 33.76 89.12 33.84L88 34C87.28 34.16 86.48 34.24 85.76 34.4C84.32 34.8 82.72 35.12 81.28 35.68C79.76 36.16 78.4 36.88 76.88 37.6C76.16 38 75.52 38.4 74.8 38.88C74.48 39.12 74.08 39.28 73.76 39.52L72.8 40.24C71.44 41.2 70.24 42.32 69.04 43.44C68.48 44.08 67.92 44.72 67.36 45.28L66.96 45.76L66.64 46.4L65.84 47.44L65.04 48.48L64.4 49.6L63.76 50.72L63.44 51.2L63.12 51.76C62.72 52.56 62.4 53.36 62 54.08C61.68 54.88 61.36 55.76 61.12 56.56C60 60 59.44 63.52 59.36 67.2C59.44 70.8 60 74.4 61.12 77.76C61.44 78.56 61.76 79.44 62 80.24C62.4 81.04 62.72 81.84 63.12 82.56L63.44 83.12L63.76 83.68L64.4 84.8L65.04 85.92L65.84 86.96L66.64 88L67.04 88.48L67.44 88.96C68 89.6 68.56 90.24 69.12 90.8C70.4 91.92 71.52 93.12 72.88 94L73.84 94.72C74.16 94.96 74.56 95.12 74.88 95.36C75.6 95.76 76.24 96.24 76.96 96.64C78.4 97.36 79.84 98.08 81.36 98.56C82.8 99.2 84.32 99.44 85.84 99.84C86.56 100 87.36 100.08 88.08 100.24L89.2 100.4C89.6 100.48 89.92 100.48 90.32 100.48C91.04 100.48 91.84 100.56 92.56 100.56C93.28 100.56 94 100.48 94.72 100.48C96.16 100.48 97.6 100.16 98.96 100C99.68 99.92 100.32 99.68 100.96 99.52C101.6 99.36 102.32 99.2 102.96 98.96C103.6 98.72 104.24 98.48 104.88 98.24C105.2 98.16 105.52 98 105.84 97.92C106.16 97.76 106.4 97.6 106.72 97.52C107.28 97.2 107.92 96.96 108.48 96.72C109.04 96.48 109.6 96.08 110.08 95.76C110.64 95.44 111.12 95.12 111.68 94.8C112.16 94.4 112.64 94.08 113.12 93.76C116.96 90.88 119.68 87.52 121.68 84.24C123.6 80.96 124.8 77.92 125.44 75.28C125.6 74.64 125.84 74 125.84 73.44C125.92 72.88 126 72.32 126.08 71.84C126.16 71.36 126.24 70.88 126.32 70.4C126.32 70 126.4 69.6 126.4 69.2C126.48 68.48 126.48 68 126.48 67.6C126.4 67.36 126.48 67.2 126.48 67.2C126.48 67.2 126.48 67.36 126.48 67.76C126.48 68.16 126.48 68.64 126.4 69.36C126.4 69.68 126.4 70.08 126.32 70.56C126.32 70.96 126.16 71.44 126.16 72C126.08 72.48 126 73.04 125.92 73.68C125.84 74.24 125.68 74.88 125.52 75.52C124.96 78.16 123.76 81.2 121.84 84.56C119.92 87.84 117.12 91.28 113.28 94.16C112.8 94.56 112.32 94.88 111.84 95.28C111.36 95.6 110.8 95.92 110.24 96.24C109.68 96.56 109.2 96.96 108.56 97.2C108 97.44 107.36 97.76 106.8 98.08C106.48 98.24 106.24 98.4 105.92 98.48C105.6 98.56 105.28 98.72 104.96 98.8C104.32 99.04 103.68 99.28 103.04 99.52C102.4 99.76 101.68 99.84 101.04 100.08C100.4 100.24 99.68 100.48 98.96 100.56C97.6 100.8 96.16 101.04 94.72 101.04C94 101.04 93.28 101.12 92.48 101.12C91.76 101.12 90.96 101.04 90.24 101.04C89.84 101.04 89.52 101.04 89.12 100.96C88.72 100.88 88.4 100.88 88 100.8C87.28 100.64 86.48 100.56 85.76 100.4C84.24 100 82.72 99.68 81.28 99.12C79.76 98.64 78.32 97.92 76.88 97.2C76.16 96.8 75.44 96.4 74.8 95.92C74.48 95.68 74.08 95.52 73.76 95.28L72.8 94.56C71.44 93.6 70.24 92.4 68.96 91.28C68.4 90.64 67.84 90 67.2 89.36L66.8 88.88L66.4 88.4L65.6 87.36L64.8 86.32L64.08 85.2L63.36 84.08L63.04 83.52L62.72 82.96C62.32 82.16 61.92 81.36 61.6 80.56C61.28 79.76 60.96 78.88 60.64 78.08C59.52 74.64 58.96 71.04 58.88 67.36C58.96 63.68 59.52 60.08 60.64 56.64C60.96 55.84 61.28 54.96 61.6 54.16C62 53.36 62.4 52.56 62.72 51.76L63.04 51.2L63.36 50.64L64.08 49.52L64.8 48.4L65.6 47.36L66.4 46.32L66.8 45.84L67.2 45.36C67.76 44.72 68.32 44.08 68.96 43.44C70.24 42.32 71.44 41.12 72.8 40.16L73.76 39.44C74.08 39.2 74.48 39.04 74.8 38.8C75.52 38.4 76.16 37.92 76.88 37.52C78.32 36.8 79.76 36.08 81.28 35.6C82.72 34.96 84.32 34.72 85.76 34.32C86.48 34.16 87.28 34.08 88 33.92L89.12 33.76C89.52 33.68 89.84 33.68 90.24 33.68C90.96 33.68 91.76 33.6 92.48 33.6C93.2 33.6 93.92 33.68 94.72 33.68C96.16 33.68 97.6 34 98.96 34.16C99.68 34.24 100.32 34.48 101.04 34.64C101.68 34.8 102.4 34.96 103.04 35.2C103.68 35.44 104.32 35.68 104.96 35.92C105.28 36 105.6 36.16 105.92 36.24C106.24 36.4 106.48 36.56 106.8 36.64C107.36 36.96 108 37.2 108.56 37.52C109.12 37.76 109.68 38.16 110.24 38.48C110.8 38.8 111.28 39.12 111.84 39.44C112.32 39.84 112.8 40.16 113.28 40.56C117.12 43.44 119.92 46.88 121.84 50.16C123.76 53.44 124.96 56.56 125.52 59.2C125.68 59.84 125.84 60.48 125.92 61.04C126 61.6 126.08 62.16 126.16 62.72C126.24 63.2 126.32 63.68 126.32 64.16C126.32 64.56 126.32 64.96 126.4 65.36C126.4 66.08 126.48 66.56 126.48 66.96V67.2Z" fill="#FFB506"/>
<path d="M104.24 62C103.92 59.12 101.52 56.48 98.64 56.48C96.96 56.48 95.36 57.36 94.16 58.64C93.68 59.2 93.28 59.6 93.04 60C92.88 59.52 92.56 59.12 92.16 58.48C91.28 57.04 89.84 55.84 88.24 55.52C85.44 54.96 82.56 57.12 81.68 59.84C80.8 62.56 81.52 65.6 83.04 68.08C84.56 70.56 87.12 73.76 91.84 75.28C95.12 74.88 99.44 72 101.44 69.84C103.28 67.68 104.64 64.88 104.24 62Z" fill="#FF725E"/>
<path d="M91.76 75.28C88.08 74 85.2 71.68 82.96 68C81.28 65.28 80.8 62.24 81.6 59.76C82.08 58.4 82.96 57.2 84.16 56.4C85.44 55.52 86.88 55.2 88.16 55.52C89.68 55.84 91.12 56.88 92.16 58.48C92.56 59.04 92.8 59.52 92.96 60C93.2 59.6 93.6 59.2 94.08 58.72C95.36 57.36 96.96 56.56 98.56 56.56C99.92 56.56 101.28 57.2 102.32 58.24C103.36 59.28 104 60.64 104.16 62.08C104.48 64.64 103.44 67.52 101.2 69.92C99.52 71.84 95.2 74.8 91.76 75.28ZM87.36 55.44C86.32 55.44 85.28 55.76 84.24 56.4C83.04 57.2 82.08 58.4 81.68 59.76C80.88 62.24 81.36 65.2 83.04 68C85.28 71.6 88.08 74 91.84 75.2C95.2 74.8 99.52 71.76 101.36 69.76C103.52 67.36 104.64 64.56 104.32 62C104.16 60.64 103.44 59.2 102.48 58.16C101.44 57.04 100.08 56.48 98.72 56.48C97.12 56.48 95.52 57.28 94.24 58.56C93.76 59.12 93.36 59.52 93.12 59.92C92.96 59.44 92.64 58.96 92.24 58.4C91.28 56.8 89.84 55.76 88.32 55.44C87.92 55.44 87.68 55.44 87.36 55.44Z" fill="#FFB506"/>
<path d="M103.28 67.12C103.28 67.12 103.28 67.12 103.2 67.12C103.12 67.12 103.04 67.12 102.96 67.12C102.72 67.12 102.32 67.04 101.92 67.04C100.96 66.96 99.68 66.8 98 66.72L98.08 66.64C97.6 67.84 97.04 69.28 96.48 70.88L96.4 71.12L96.32 70.88C95.84 68.8 95.28 66.56 94.72 64.08C94.56 63.36 94.4 62.56 94.16 61.84H94.32C93.28 63.28 92.24 64.64 91.36 65.92H91.28C88.48 65.6 86.08 65.36 84.4 65.2C83.6 65.12 82.96 65.04 82.48 64.96C82.24 64.96 82.08 64.88 82 64.88C82.16 64.88 82.32 64.88 82.48 64.88C82.96 64.96 83.6 64.96 84.4 65.04C86.08 65.2 88.48 65.44 91.28 65.68H91.2C92.08 64.4 93.12 63.04 94.16 61.6L94.24 61.44L94.32 61.6C94.48 62.32 94.64 63.04 94.88 63.84C95.44 66.24 96 68.56 96.48 70.64H96.32C96.96 69.04 97.52 67.6 98 66.4V66.32H98.08C99.68 66.48 101.04 66.64 102 66.72C102.48 66.8 102.8 66.8 103.04 66.88C103.12 66.88 103.28 66.88 103.28 66.88C103.2 67.12 103.28 67.12 103.28 67.12Z" fill="#FFB506"/>
<path d="M110 81.44C110 81.52 102.08 81.68 92.24 81.68C82.4 81.68 74.48 81.6 74.48 81.44C74.48 81.36 82.4 81.2 92.24 81.2C102.08 81.2 110 81.36 110 81.44Z" fill="#FFB506"/>
<path d="M100.16 85.12C100.16 85.2 96.64 85.36 92.24 85.36C87.84 85.36 84.32 85.28 84.32 85.12C84.32 85.04 87.84 84.88 92.24 84.88C96.64 84.88 100.16 84.96 100.16 85.12Z" fill="#FFB506"/>
<path d="M150.16 106.4C150.08 106.48 143.52 102.16 135.44 96.72C127.36 91.28 120.88 86.8 120.88 86.72C120.96 86.64 127.52 90.96 135.6 96.4C143.68 101.84 150.24 106.32 150.16 106.4Z" fill="#FFB506"/>
<path d="M313.52 288.16C331.856 288.16 346.72 273.117 346.72 254.56C346.72 236.003 331.856 220.96 313.52 220.96C295.184 220.96 280.32 236.003 280.32 254.56C280.32 273.117 295.184 288.16 313.52 288.16Z" fill="#FAFAFA"/>
<path d="M346.72 254.56C346.72 254.56 346.72 254.4 346.64 254C346.64 253.6 346.56 253.12 346.56 252.4C346.56 252.08 346.48 251.68 346.48 251.2C346.4 250.8 346.32 250.32 346.24 249.84C346.08 248.8 345.92 247.68 345.52 246.4C345.36 245.76 345.2 245.04 344.96 244.4C344.72 243.68 344.48 242.96 344.16 242.24C343.92 241.44 343.52 240.72 343.12 239.92C342.96 239.52 342.72 239.12 342.56 238.72C342.32 238.32 342.08 237.92 341.84 237.52C339.92 234.32 337.2 230.88 333.44 228C332.96 227.68 332.48 227.28 332 226.96C331.52 226.64 330.96 226.32 330.48 226C329.92 225.68 329.44 225.36 328.88 225.04C328.32 224.8 327.76 224.48 327.12 224.24C326.8 224.08 326.56 223.92 326.24 223.84C325.92 223.76 325.6 223.6 325.36 223.52C324.72 223.28 324.16 223.04 323.52 222.8C322.88 222.56 322.24 222.48 321.6 222.24C321.28 222.16 320.96 222.08 320.64 222L320.16 221.84L319.68 221.76C318.32 221.6 316.96 221.28 315.52 221.28C314.8 221.28 314.08 221.2 313.36 221.2C312.64 221.2 311.92 221.28 311.2 221.28C310.8 221.28 310.48 221.28 310.08 221.36L308.96 221.52C308.24 221.68 307.44 221.76 306.72 221.92C305.28 222.32 303.76 222.64 302.32 223.2C300.8 223.68 299.44 224.4 298 225.12C296.64 225.92 295.2 226.72 293.92 227.76C292.56 228.72 291.44 229.84 290.16 230.96C289.6 231.6 289.04 232.24 288.48 232.8C288.16 233.12 287.92 233.44 287.68 233.76L286.96 234.8L286.24 235.84L285.6 236.96L284.96 238.08L284.64 238.64L284.4 239.2C284 240 283.68 240.8 283.28 241.52C282.96 242.32 282.72 243.12 282.4 244C281.36 247.36 280.8 250.88 280.72 254.48C280.8 258.08 281.36 261.6 282.4 264.96C282.72 265.76 282.96 266.64 283.28 267.44C283.68 268.24 284 269.04 284.4 269.76L284.64 270.32C284.72 270.48 284.88 270.72 284.96 270.88L285.6 272L286.24 273.12L286.96 274.16L287.68 275.2C287.92 275.52 288.16 275.84 288.48 276.16C289.04 276.8 289.6 277.44 290.16 278C291.36 279.12 292.56 280.32 293.92 281.2C295.2 282.24 296.64 283.04 298 283.84C299.44 284.56 300.8 285.28 302.32 285.76C303.76 286.4 305.28 286.64 306.72 287.04C307.44 287.2 308.24 287.28 308.96 287.44L310.08 287.6C310.48 287.68 310.8 287.68 311.2 287.68C311.92 287.68 312.64 287.76 313.36 287.76C314.08 287.76 314.8 287.68 315.52 287.68C316.96 287.68 318.32 287.36 319.68 287.2L320.16 287.12L320.64 286.96C320.96 286.88 321.28 286.8 321.6 286.72C322.24 286.56 322.96 286.4 323.52 286.16C324.16 285.92 324.8 285.68 325.36 285.44C325.68 285.36 326 285.2 326.24 285.12C326.56 284.96 326.8 284.8 327.12 284.72C327.68 284.4 328.24 284.16 328.88 283.92C329.44 283.68 329.92 283.28 330.48 282.96C331.04 282.64 331.52 282.32 332 282C332.48 281.6 332.96 281.28 333.44 280.96C337.2 278.08 339.92 274.72 341.84 271.44C342.08 271.04 342.32 270.64 342.56 270.24C342.72 269.84 342.96 269.44 343.12 269.04C343.52 268.24 343.92 267.52 344.16 266.72C344.4 266 344.72 265.28 344.96 264.56C345.2 263.84 345.36 263.2 345.52 262.56C345.92 261.28 346.08 260.08 346.24 259.12C346.32 258.64 346.4 258.16 346.48 257.76C346.48 257.36 346.56 256.96 346.56 256.56C346.64 255.84 346.64 255.36 346.64 254.96C346.64 254.72 346.72 254.56 346.72 254.56C346.72 254.56 346.72 254.72 346.72 255.12C346.72 255.52 346.72 256 346.64 256.72C346.64 257.04 346.64 257.44 346.56 257.92C346.56 258.32 346.4 258.8 346.4 259.36C346.24 260.4 346.16 261.52 345.76 262.8C345.6 263.44 345.44 264.16 345.2 264.8C344.96 265.52 344.72 266.24 344.4 266.96C344.16 267.76 343.76 268.48 343.36 269.28C343.2 269.68 342.96 270.08 342.8 270.48C342.56 270.88 342.32 271.28 342.08 271.68C340.16 274.96 337.44 278.4 333.68 281.28C333.2 281.68 332.72 282 332.24 282.4C331.76 282.72 331.2 283.04 330.64 283.36C330.08 283.68 329.6 284.08 329.04 284.32C328.48 284.64 327.92 284.88 327.28 285.2C326.96 285.36 326.72 285.52 326.4 285.6C326.08 285.68 325.76 285.84 325.44 285.92C324.8 286.16 324.16 286.4 323.52 286.64C322.88 286.88 322.24 286.96 321.52 287.2C321.2 287.28 320.88 287.36 320.48 287.44L320 287.6L319.52 287.68C318.16 287.92 316.72 288.16 315.28 288.16C314.56 288.16 313.84 288.24 313.12 288.24C312.4 288.24 311.68 288.16 310.88 288.16C310.48 288.16 310.16 288.16 309.76 288.08L308.64 287.92C307.92 287.76 307.12 287.68 306.4 287.52C304.88 287.12 303.36 286.8 301.92 286.16C300.4 285.68 299.04 284.88 297.52 284.24C296.16 283.36 294.72 282.64 293.44 281.6C292.08 280.64 290.88 279.44 289.68 278.32C289.12 277.68 288.56 277.04 288 276.4C287.68 276.08 287.44 275.76 287.2 275.44L286.4 274.4L285.6 273.36L284.96 272.24L284.32 271.12C284.24 270.96 284.08 270.72 284 270.56L283.68 270C283.28 269.2 282.96 268.4 282.56 267.6C282.24 266.8 281.92 265.92 281.68 265.12C280.64 261.76 280 258.16 280 254.48C280.08 250.8 280.64 247.28 281.68 243.84C282 243.04 282.32 242.16 282.56 241.36C282.96 240.56 283.28 239.76 283.68 238.96L284 238.4L284.32 237.84L284.96 236.72L285.6 235.6L286.4 234.56L287.2 233.52C287.44 233.2 287.68 232.8 288 232.56C288.56 231.92 289.12 231.28 289.68 230.64C290.88 229.52 292.08 228.32 293.44 227.36C294.72 226.32 296.16 225.52 297.52 224.72C298.96 224 300.4 223.28 301.92 222.8C303.36 222.16 304.88 221.84 306.4 221.44C307.12 221.28 307.92 221.2 308.64 221.04L309.76 220.88C310.16 220.8 310.48 220.8 310.88 220.8C311.6 220.8 312.4 220.72 313.12 220.72C313.84 220.72 314.56 220.8 315.28 220.8C316.72 220.8 318.16 221.12 319.52 221.28L320 221.36L320.48 221.52C320.8 221.6 321.12 221.68 321.52 221.76C322.16 221.92 322.88 222.08 323.52 222.32C324.16 222.56 324.8 222.8 325.44 223.04C325.76 223.12 326.08 223.28 326.4 223.36C326.72 223.52 326.96 223.68 327.28 223.76C327.84 224.08 328.48 224.32 329.04 224.64C329.6 224.96 330.16 225.28 330.64 225.6C331.2 225.92 331.68 226.24 332.24 226.56C332.72 226.96 333.2 227.28 333.68 227.68C337.44 230.64 340.16 234 342.08 237.28C342.32 237.68 342.56 238.08 342.8 238.48C342.96 238.88 343.2 239.28 343.36 239.68C343.76 240.48 344.16 241.2 344.4 242C344.64 242.8 344.96 243.52 345.2 244.16C345.44 244.88 345.52 245.52 345.76 246.16C346.16 247.44 346.24 248.64 346.4 249.6C346.48 250.08 346.56 250.56 346.56 251.04C346.56 251.44 346.56 251.84 346.64 252.24C346.64 252.96 346.72 253.44 346.72 253.84C346.72 254.4 346.72 254.56 346.72 254.56Z" fill="#FFB506"/>
<path d="M311.36 241.28C307.68 238.24 304.48 240.08 302.96 242.8C302.32 243.92 302.32 245.28 303.76 246.48C306.72 249.04 313.04 254.16 315.76 256.4C317.2 257.6 319.28 258.24 321.28 258C322.64 257.84 324.08 257.28 325.2 255.84C326.96 253.76 325.36 251.92 323.6 250.72C322.24 249.76 320.24 249.84 319.04 250.96C318.32 251.6 317.12 251.68 316.32 251.04L311.52 247.04C310.8 246.4 310.72 245.36 311.44 244.72C312.48 243.68 312.4 242.24 311.36 241.28Z" fill="#FF725E"/>
<path d="M311.36 241.28C311.36 241.28 311.6 241.44 311.84 241.76C312.08 242.08 312.4 242.8 312.16 243.68C312.08 244.08 311.76 244.56 311.36 244.88C311.04 245.28 310.88 245.84 311.12 246.32C311.2 246.56 311.44 246.8 311.68 246.96C311.92 247.2 312.16 247.36 312.48 247.6C313.04 248 313.6 248.48 314.16 248.96C314.72 249.44 315.36 249.92 316 250.48C316.32 250.72 316.64 251.04 316.96 251.12C317.36 251.28 317.76 251.28 318.16 251.12C318.32 251.04 318.56 250.96 318.72 250.88C318.88 250.8 319.04 250.56 319.28 250.48C319.68 250.24 320.16 250 320.64 249.92C321.6 249.68 322.72 249.84 323.6 250.4C324.48 250.96 325.28 251.68 325.84 252.64C326.08 253.12 326.24 253.68 326.16 254.32C326.08 254.88 325.76 255.44 325.44 255.84C324.72 256.72 323.76 257.44 322.64 257.76C321.52 258.16 320.32 258.24 319.12 258C317.92 257.84 316.8 257.36 315.92 256.64C315.04 255.92 314.16 255.2 313.36 254.56C311.68 253.2 310.08 251.84 308.48 250.56C306.96 249.28 305.44 248.08 304.08 246.88C303.36 246.32 302.72 245.68 302.4 244.8C302.16 243.92 302.4 243.04 302.8 242.4C303.6 241.04 304.72 240.08 305.92 239.68C307.12 239.28 308.24 239.44 309.04 239.68C309.84 240 310.4 240.32 310.8 240.64C311.2 241.12 311.36 241.28 311.36 241.28C311.36 241.28 311.12 241.2 310.8 240.88C310.4 240.64 309.84 240.32 309.04 240C308.24 239.76 307.2 239.6 306.08 240C304.96 240.4 303.92 241.36 303.12 242.64C302.72 243.28 302.48 244.08 302.72 244.8C302.96 245.6 303.6 246.16 304.24 246.72C305.6 247.84 307.12 249.04 308.64 250.32C310.16 251.6 311.84 252.96 313.52 254.32C314.4 255.04 315.2 255.76 316.08 256.4C316.96 257.04 318 257.44 319.12 257.68C320.24 257.84 321.36 257.76 322.4 257.44C323.44 257.12 324.32 256.48 324.96 255.6C325.28 255.2 325.52 254.72 325.6 254.24C325.68 253.76 325.52 253.28 325.28 252.8C324.8 251.92 324 251.28 323.2 250.72C322.4 250.24 321.44 250.08 320.56 250.24C320.08 250.32 319.68 250.48 319.36 250.8C319.2 250.88 319.04 251.04 318.8 251.2C318.56 251.36 318.4 251.44 318.16 251.52C317.68 251.68 317.2 251.6 316.8 251.44C316.32 251.28 316 250.96 315.68 250.72C315.04 250.16 314.48 249.68 313.84 249.2C313.28 248.72 312.72 248.24 312.16 247.76C311.92 247.52 311.68 247.36 311.44 247.12C311.2 246.88 310.96 246.64 310.8 246.32C310.56 245.68 310.72 245.04 311.04 244.64C311.44 244.24 311.68 243.92 311.84 243.52C312.08 242.72 311.84 242.08 311.6 241.68C311.52 241.44 311.36 241.28 311.36 241.28Z" fill="#FFB506"/>
<path d="M333.2 265.12C333.2 265.2 325.6 265.36 316.32 265.36C306.96 265.36 299.44 265.28 299.44 265.12C299.44 265.04 307.04 264.88 316.32 264.88C325.68 264.88 333.2 265.04 333.2 265.12Z" fill="#FFB506"/>
<path d="M322.24 268.64C322.24 268.72 318.88 268.88 314.72 268.88C310.56 268.88 307.2 268.8 307.2 268.64C307.2 268.48 310.56 268.4 314.72 268.4C318.88 268.4 322.24 268.56 322.24 268.64Z" fill="#FFB506"/>
<path d="M287.6 233.6C287.52 233.68 281.2 228.8 273.36 222.72C265.6 216.64 259.36 211.6 259.44 211.52C259.52 211.44 265.84 216.32 273.68 222.4C281.44 228.48 287.68 233.52 287.6 233.6Z" fill="#FFB506"/>
<path d="M368.811 169.476C371.448 153.029 360.252 137.558 343.805 134.921C327.358 132.284 311.888 143.48 309.251 159.927C306.614 176.374 317.81 191.844 334.257 194.481C350.704 197.118 366.174 185.923 368.811 169.476Z" fill="#FAFAFA"/>
<path d="M369.2 164.72C369.2 164.72 369.2 164.56 369.12 164.24C369.12 163.92 369.04 163.44 369.04 162.8C369.04 162.48 368.96 162.16 368.96 161.76C368.88 161.36 368.8 160.96 368.8 160.48C368.72 160 368.64 159.52 368.56 159.04C368.48 158.48 368.32 158 368.16 157.36C367.6 155.04 366.56 152.24 364.8 149.36C363.04 146.48 360.56 143.44 357.12 140.88C356.72 140.56 356.24 140.24 355.84 139.92C355.36 139.6 354.88 139.36 354.4 139.04C353.92 138.8 353.44 138.4 352.96 138.16C352.48 137.92 351.92 137.68 351.44 137.44L350.64 137.04C350.4 136.96 350.08 136.8 349.84 136.72C349.28 136.48 348.72 136.32 348.16 136.08C347.6 135.92 346.96 135.76 346.4 135.6C345.84 135.44 345.2 135.28 344.56 135.2C343.28 135.04 342.08 134.8 340.8 134.8C340.16 134.8 339.52 134.72 338.88 134.72C338.24 134.72 337.6 134.8 336.88 134.8C336.56 134.8 336.24 134.8 335.84 134.88L334.88 135.04C334.24 135.12 333.52 135.2 332.88 135.36C331.52 135.76 330.16 136 328.88 136.56C327.52 136.96 326.24 137.68 324.96 138.24C324.32 138.56 323.76 138.96 323.12 139.36C322.8 139.52 322.48 139.76 322.16 139.92L321.28 140.56C320.08 141.36 318.96 142.48 317.92 143.44C316.88 144.56 315.84 145.68 314.96 146.88L314.24 147.84L313.6 148.8L312.96 149.76C312.72 150.08 312.56 150.4 312.4 150.8C312.08 151.52 311.76 152.24 311.36 152.88C311.12 153.6 310.8 154.32 310.56 155.12C309.6 158.16 309.04 161.36 309.04 164.56C309.12 167.84 309.6 171.04 310.56 174C310.8 174.72 311.12 175.52 311.36 176.24C311.68 176.96 312 177.68 312.4 178.32C312.56 178.64 312.72 179.04 312.96 179.36L313.6 180.32L314.24 181.28L314.96 182.24C315.84 183.52 316.88 184.56 317.92 185.68C319.04 186.72 320.08 187.76 321.36 188.56L322.24 189.2C322.56 189.44 322.88 189.6 323.2 189.76C323.84 190.16 324.4 190.56 325.04 190.88C326.32 191.52 327.6 192.16 328.96 192.56C330.24 193.12 331.6 193.36 332.96 193.76C333.6 193.92 334.32 194 334.96 194.08L336 194.24C336.32 194.32 336.64 194.32 337.04 194.32C337.68 194.32 338.4 194.4 339.04 194.4C339.68 194.4 340.32 194.32 340.96 194.32C342.24 194.32 343.52 194.08 344.72 193.92C349.68 193.04 353.92 190.88 357.36 188.32C360.8 185.76 363.28 182.72 365.04 179.84C366.72 176.96 367.84 174.16 368.4 171.84C368.72 170.72 368.88 169.6 369.04 168.72C369.12 168.24 369.2 167.84 369.2 167.44C369.2 167.04 369.28 166.72 369.28 166.4C369.36 165.76 369.36 165.28 369.36 164.96C369.2 164.88 369.2 164.72 369.2 164.72C369.2 164.72 369.2 164.88 369.2 165.2C369.2 165.52 369.2 166 369.12 166.64C369.12 166.96 369.12 167.28 369.04 167.68C369.04 168.08 368.96 168.48 368.88 168.96C368.72 169.84 368.64 170.96 368.32 172.08C367.84 174.4 366.72 177.2 365.04 180.16C363.28 183.12 360.8 186.16 357.36 188.8C356.96 189.12 356.48 189.44 356.08 189.76C355.6 190.08 355.12 190.32 354.64 190.64C354.16 190.96 353.68 191.28 353.2 191.52C352.72 191.76 352.16 192 351.6 192.32L350.8 192.72C350.56 192.8 350.24 192.96 349.92 193.04C349.36 193.28 348.8 193.44 348.24 193.68C347.68 193.84 347.04 194 346.48 194.16C345.84 194.32 345.28 194.48 344.64 194.56C343.36 194.72 342.08 195.04 340.8 195.04C340.16 195.04 339.52 195.12 338.8 195.12C338.16 195.12 337.44 195.04 336.8 195.04C336.48 195.04 336.16 195.04 335.76 194.96L334.72 194.8C334.08 194.72 333.36 194.64 332.64 194.48C331.28 194.08 329.92 193.84 328.56 193.28C327.2 192.88 325.92 192.16 324.56 191.52C323.92 191.2 323.28 190.8 322.64 190.4C322.32 190.24 322 190 321.68 189.84L320.8 189.2C319.6 188.32 318.48 187.28 317.36 186.24C316.32 185.12 315.28 184 314.4 182.72L313.68 181.76L313.04 180.8L312.4 179.76C312.16 179.44 312 179.12 311.84 178.72C311.52 178 311.12 177.28 310.8 176.56C310.56 175.84 310.24 175.04 310 174.32C309.04 171.28 308.48 168 308.4 164.72C308.48 161.44 308.96 158.16 310 155.12C310.24 154.4 310.56 153.6 310.8 152.88C311.12 152.16 311.52 151.44 311.84 150.72C312 150.32 312.16 150 312.4 149.68L313.04 148.64L313.68 147.68L314.4 146.72C315.28 145.44 316.32 144.32 317.36 143.2C318.48 142.16 319.6 141.12 320.8 140.24L321.68 139.6C322 139.36 322.32 139.2 322.64 139.04C323.28 138.64 323.92 138.24 324.56 137.92C325.84 137.28 327.2 136.64 328.56 136.16C329.92 135.6 331.28 135.36 332.64 134.96C333.28 134.8 334 134.72 334.72 134.64L335.76 134.48C336.08 134.4 336.4 134.4 336.8 134.4C337.44 134.4 338.16 134.32 338.8 134.32C339.44 134.32 340.16 134.4 340.8 134.4C342.08 134.4 343.36 134.64 344.64 134.88C345.28 134.96 345.84 135.2 346.48 135.28C347.12 135.44 347.68 135.6 348.24 135.76C348.8 136 349.36 136.16 349.92 136.4C350.24 136.48 350.48 136.64 350.8 136.72L351.6 137.12C352.16 137.36 352.64 137.6 353.2 137.92C353.76 138.16 354.16 138.48 354.64 138.8C355.12 139.12 355.6 139.36 356.08 139.68C356.56 140 356.96 140.32 357.36 140.64C360.8 143.28 363.28 146.32 365.04 149.28C366.72 152.24 367.84 155.04 368.32 157.36C368.48 157.92 368.64 158.48 368.72 159.04C368.8 159.6 368.88 160.08 368.96 160.48C369.04 160.96 369.12 161.36 369.12 161.76C369.12 162.16 369.12 162.48 369.2 162.8C369.2 163.44 369.2 163.92 369.28 164.24C369.2 164.56 369.2 164.72 369.2 164.72Z" fill="#FFB506"/>
<path d="M329.483 149.434L326.249 166.084L350.988 170.889L354.222 154.24L329.483 149.434Z" fill="#FF725E"/>
<path d="M350.96 170.96L326.24 166.16L329.44 149.52L354.16 154.32L350.96 170.96ZM326.24 166.08L350.88 170.88L354.08 154.24L329.44 149.44L326.24 166.08Z" fill="#FFB506"/>
<path d="M354.24 154.48C354.24 154.48 354.16 154.56 354 154.64C353.76 154.72 353.52 154.88 353.2 155.12C352.48 155.52 351.44 156.08 350.24 156.8C347.68 158.24 344.16 160.16 340.32 162.32L340.24 162.4L340.16 162.32C340.08 162.24 340.08 162.24 340 162.16C337.12 158.72 334.48 155.68 332.56 153.36C331.6 152.24 330.88 151.36 330.32 150.72C330.08 150.4 329.84 150.16 329.76 150C329.6 149.84 329.52 149.76 329.6 149.76C329.6 149.76 329.68 149.84 329.84 150C330 150.16 330.24 150.4 330.48 150.72C331.04 151.36 331.84 152.24 332.8 153.36C334.72 155.6 337.36 158.72 340.24 162.08C340.32 162.16 340.32 162.16 340.4 162.24H340.24C344.08 160.08 347.6 158.16 350.16 156.8C351.44 156.16 352.48 155.6 353.2 155.2C353.52 155.04 353.84 154.88 354 154.8C354.08 154.56 354.24 154.48 354.24 154.48Z" fill="#FFB506"/>
<path d="M326.32 166.32C326.32 166.24 328.56 164.32 331.44 162C334.32 159.68 336.72 157.84 336.72 157.92C336.72 158 334.48 159.92 331.6 162.24C328.72 164.56 326.32 166.4 326.32 166.32Z" fill="#FFB506"/>
<path d="M344.96 159.36C345.04 159.36 346.4 161.92 348.08 165.2C349.76 168.48 351.04 171.12 350.96 171.2C350.88 171.2 349.52 168.64 347.84 165.36C346.24 162 344.88 159.36 344.96 159.36Z" fill="#FFB506"/>
<path d="M357.44 178.08C357.44 178.16 349.76 178.32 340.24 178.32C330.72 178.32 323.04 178.24 323.04 178.08C323.04 178 330.72 177.84 340.24 177.84C349.76 177.84 357.44 178 357.44 178.08Z" fill="#FFB506"/>
<path d="M347.92 181.6C347.92 181.68 344.48 181.84 340.24 181.84C336 181.84 332.56 181.76 332.56 181.6C332.56 181.52 336 181.36 340.24 181.36C344.48 181.44 347.92 181.52 347.92 181.6Z" fill="#FFB506"/>
<path d="M308.88 166.32C308.88 166.4 307.84 166.4 306.16 166.48C304.48 166.48 302.08 166.56 299.52 166.56C296.96 166.56 294.56 166.56 292.88 166.48C291.2 166.48 290.16 166.4 290.16 166.32C290.16 166.24 291.2 166.24 292.88 166.16C294.56 166.16 296.96 166.08 299.52 166.08C302.08 166.08 304.48 166.08 306.16 166.16C307.84 166.24 308.88 166.32 308.88 166.32Z" fill="#FFB506"/>
<path d="M295.44 99.44C314.35 99.44 329.68 84.1102 329.68 65.2C329.68 46.2898 314.35 30.96 295.44 30.96C276.53 30.96 261.2 46.2898 261.2 65.2C261.2 84.1102 276.53 99.44 295.44 99.44Z" fill="#FAFAFA"/>
<path d="M329.68 65.2C329.68 65.2 329.68 65.04 329.6 64.64C329.6 64.24 329.52 63.76 329.52 63.04C329.52 62.72 329.44 62.32 329.44 61.84C329.36 61.44 329.28 60.96 329.2 60.4C329.12 59.92 329.04 59.36 328.96 58.72C328.88 58.16 328.64 57.52 328.48 56.88C327.84 54.24 326.64 51.12 324.72 47.84C322.72 44.56 319.92 41.12 316.08 38.16C315.6 37.76 315.12 37.44 314.64 37.04C314.16 36.72 313.6 36.4 313.04 36.08C312.48 35.76 312 35.36 311.36 35.12C310.8 34.88 310.16 34.56 309.6 34.24C309.28 34.08 309.04 33.92 308.72 33.84C308.4 33.76 308.08 33.6 307.76 33.52C307.12 33.28 306.48 33.04 305.84 32.8C305.2 32.56 304.48 32.48 303.84 32.24C303.12 32.08 302.48 31.84 301.76 31.76C300.32 31.6 298.96 31.28 297.44 31.28C296.72 31.28 296 31.2 295.2 31.2C294.48 31.2 293.68 31.28 292.96 31.28C292.56 31.28 292.24 31.28 291.84 31.36C291.44 31.44 291.12 31.44 290.72 31.52C290 31.68 289.2 31.76 288.4 31.92C286.88 32.32 285.36 32.64 283.84 33.28C282.32 33.76 280.88 34.56 279.44 35.2C278.72 35.6 278 36.08 277.36 36.48C277.04 36.72 276.64 36.88 276.32 37.12L275.28 37.84C273.92 38.8 272.72 40 271.44 41.12C270.88 41.76 270.32 42.4 269.68 43.04L269.28 43.52L268.88 44L268.08 45.04L267.28 46.08L266.56 47.2L265.84 48.32L265.52 48.88L265.2 49.44C264.8 50.24 264.4 51.04 264.08 51.84C263.76 52.64 263.44 53.52 263.12 54.32C262 57.76 261.44 61.36 261.36 65.04C261.44 68.72 262 72.32 263.12 75.76C263.44 76.64 263.76 77.44 264.08 78.24C264.48 79.04 264.88 79.84 265.2 80.64L265.52 81.2L265.84 81.76L266.56 82.88L267.28 84L268.08 85.04L268.88 86.08L269.28 86.56L269.68 87.04C270.24 87.68 270.8 88.32 271.44 88.96C272.72 90.08 273.92 91.28 275.28 92.24L276.32 92.96C276.64 93.2 277.04 93.44 277.36 93.6C278.08 94 278.8 94.48 279.44 94.88C280.88 95.6 282.32 96.32 283.84 96.8C285.28 97.44 286.88 97.76 288.4 98.16C289.2 98.32 289.92 98.4 290.72 98.56C291.12 98.64 291.44 98.64 291.84 98.72C292.24 98.8 292.56 98.8 292.96 98.8C293.68 98.8 294.48 98.88 295.2 98.88C295.92 98.88 296.72 98.8 297.44 98.8C298.88 98.8 300.32 98.48 301.76 98.32C302.48 98.24 303.12 98 303.84 97.84C304.48 97.68 305.2 97.52 305.84 97.28C306.48 97.04 307.12 96.8 307.76 96.56C308.08 96.48 308.4 96.32 308.72 96.24C309.04 96.08 309.36 95.92 309.6 95.84C310.16 95.52 310.8 95.28 311.36 94.96C311.92 94.72 312.48 94.32 313.04 94C313.6 93.68 314.16 93.36 314.64 93.04C315.12 92.64 315.6 92.32 316.08 91.92C319.92 88.96 322.8 85.52 324.72 82.24C326.64 78.96 327.92 75.84 328.48 73.2C328.64 72.56 328.88 71.92 328.96 71.36C329.04 70.8 329.12 70.24 329.2 69.68C329.28 69.2 329.36 68.72 329.44 68.24C329.44 67.84 329.52 67.44 329.52 67.04C329.6 66.32 329.6 65.76 329.6 65.44L329.68 65.2C329.68 65.2 329.68 65.36 329.68 65.76C329.68 66.16 329.68 66.72 329.6 67.36C329.6 67.68 329.6 68.08 329.52 68.56C329.52 68.96 329.36 69.44 329.36 70C329.28 70.48 329.2 71.04 329.12 71.68C329.04 72.32 328.8 72.88 328.72 73.52C328.16 76.16 326.96 79.36 324.96 82.64C323.04 86 320.16 89.44 316.24 92.4C315.76 92.8 315.28 93.12 314.72 93.52C314.16 93.84 313.68 94.16 313.12 94.48C312.56 94.8 312.08 95.2 311.44 95.44C310.88 95.76 310.24 96 309.68 96.32C309.36 96.48 309.04 96.64 308.8 96.72C308.48 96.8 308.16 96.96 307.84 97.04C307.2 97.28 306.56 97.52 305.92 97.76C305.28 98 304.56 98.16 303.92 98.32C303.2 98.48 302.56 98.72 301.84 98.8C300.4 99.04 298.96 99.28 297.52 99.28C296.8 99.28 296 99.36 295.28 99.36C294.56 99.36 293.76 99.28 293.04 99.28C292.64 99.28 292.24 99.28 291.92 99.2C291.52 99.12 291.12 99.12 290.8 99.04C290 98.88 289.28 98.8 288.48 98.64C286.96 98.24 285.36 97.92 283.92 97.28C282.4 96.8 280.96 96 279.44 95.28C278.72 94.88 278 94.4 277.28 94C276.96 93.76 276.56 93.6 276.24 93.36L275.2 92.64C273.84 91.68 272.56 90.48 271.28 89.36C270.72 88.72 270.08 88.08 269.52 87.44L269.04 86.96L268.64 86.4L267.84 85.36L267.04 84.32L266.32 83.2L265.6 82.08L265.28 81.52L264.96 80.88C264.56 80.08 264.16 79.28 263.76 78.48C263.44 77.6 263.12 76.8 262.8 75.92C261.68 72.48 261.04 68.8 261.04 65.04C261.12 61.28 261.68 57.6 262.8 54.16C263.12 53.28 263.44 52.48 263.76 51.6C264.16 50.8 264.56 50 264.96 49.2L265.28 48.56L265.6 48L266.32 46.88L267.04 45.76L267.84 44.72L268.64 43.68L269.04 43.12L269.52 42.64C270.08 42 270.72 41.36 271.28 40.72C272.56 39.6 273.76 38.4 275.2 37.44L276 36.8C276.32 36.56 276.72 36.32 277.04 36.16C277.76 35.76 278.48 35.28 279.2 34.88C280.72 34.16 282.16 33.44 283.68 32.88C285.2 32.24 286.72 31.92 288.24 31.52C289.04 31.36 289.76 31.28 290.56 31.12C290.96 31.04 291.36 31.04 291.68 30.96C292.08 30.88 292.48 30.88 292.8 30.88C293.6 30.88 294.32 30.8 295.04 30.8C295.76 30.8 296.56 30.88 297.28 30.88C298.8 30.88 300.24 31.2 301.6 31.36C302.32 31.44 302.96 31.68 303.68 31.84C304.32 32 305.04 32.16 305.68 32.4C306.32 32.64 306.96 32.88 307.6 33.12C307.92 33.2 308.24 33.36 308.56 33.44C308.88 33.6 309.2 33.76 309.44 33.84C310 34.16 310.64 34.4 311.2 34.72C311.76 34.96 312.32 35.36 312.88 35.68C313.44 36 314 36.32 314.48 36.64C314.96 37.04 315.44 37.36 316 37.76C319.92 40.72 322.72 44.24 324.72 47.52C326.64 50.88 327.92 54 328.48 56.64C328.64 57.28 328.88 57.92 328.88 58.48C328.96 59.04 329.04 59.6 329.12 60.16C329.2 60.64 329.28 61.12 329.28 61.6C329.28 62.08 329.28 62.48 329.36 62.8C329.36 63.52 329.44 64.08 329.44 64.4C329.68 65.04 329.68 65.2 329.68 65.2Z" fill="#FFB506"/>
<path d="M305.44 55.12C305.44 48.96 299.84 44.08 293.44 45.28C289.44 46 286.24 49.36 285.52 53.36C285.04 55.92 285.6 58.24 286.72 60.24C287.12 60.88 287.6 61.36 288.08 62L293.92 69.68C294.64 70.64 296.08 70.64 296.8 69.68L302.56 62.08C302.56 62.08 303.6 60.8 304 60.16C304.96 58.64 305.44 56.96 305.44 55.12ZM295.44 59.44C293.04 59.44 291.04 57.44 291.04 55.04C291.04 52.64 293.04 50.64 295.44 50.64C297.84 50.64 299.84 52.64 299.84 55.04C299.84 57.44 297.92 59.44 295.44 59.44Z" fill="#FF725E"/>
<path d="M295.44 59.44C295.44 59.36 295.84 59.44 296.48 59.2C297.12 59.04 298.08 58.56 298.8 57.6C299.52 56.64 299.92 55.12 299.36 53.6C298.88 52.08 297.28 50.8 295.36 50.8C293.52 50.8 291.92 52.08 291.36 53.6C290.8 55.12 291.2 56.64 291.92 57.6C292.64 58.56 293.6 59.04 294.24 59.2C295.04 59.44 295.44 59.44 295.44 59.44C295.44 59.44 295.36 59.44 295.12 59.44C294.96 59.44 294.64 59.44 294.32 59.36C293.6 59.2 292.64 58.8 291.76 57.76C290.96 56.8 290.48 55.12 291.04 53.44C291.36 52.64 291.84 51.84 292.64 51.28C293.36 50.72 294.4 50.4 295.36 50.4C296.4 50.4 297.36 50.72 298.08 51.28C298.88 51.84 299.36 52.64 299.68 53.44C300.24 55.12 299.76 56.8 298.96 57.76C298.16 58.8 297.12 59.2 296.4 59.36C296.08 59.44 295.76 59.44 295.6 59.44C295.52 59.52 295.44 59.44 295.44 59.44Z" fill="#FFB506"/>
<path d="M305.44 55.12C305.44 55.12 305.44 55.28 305.44 55.44C305.44 55.68 305.44 56 305.36 56.48C305.28 57.36 304.96 58.72 304.08 60.24L304 60.08H304.24L304.08 60.24C302.32 62.56 300 65.76 297.2 69.44C297.04 69.68 296.88 69.92 296.64 70.16C296.4 70.4 296.08 70.56 295.76 70.56C295.12 70.72 294.4 70.48 293.92 70C293.12 68.96 292.4 68 291.6 66.96C290 64.88 288.32 62.64 286.56 60.32L286.32 60H286.72L286.56 60.32C286.24 59.76 285.92 59.04 285.68 58.32C284.88 56 285.04 53.44 285.92 51.36C286.8 49.2 288.32 47.44 290.16 46.4C292 45.28 294 44.88 295.92 44.96C297.84 45.04 299.52 45.68 300.88 46.56C302.24 47.44 303.2 48.48 303.92 49.52C304.64 50.56 305.04 51.6 305.2 52.48C305.36 52.88 305.36 53.28 305.44 53.6C305.52 53.92 305.52 54.24 305.52 54.48C305.52 54.88 305.52 55.12 305.44 55.12C305.36 55.12 305.44 54.16 304.96 52.48C304.72 51.6 304.32 50.64 303.6 49.6C302.88 48.56 301.92 47.52 300.56 46.72C299.28 45.92 297.6 45.36 295.76 45.28C293.92 45.2 292 45.6 290.24 46.72C288.48 47.76 287.04 49.44 286.16 51.52C285.36 53.6 285.2 56 286 58.24C286.24 58.88 286.56 59.52 286.88 60.16L287.04 60.48H286.64L286.8 60.16C288.56 62.48 290.16 64.64 291.76 66.72C292.56 67.76 293.36 68.8 294.08 69.76C294.48 70.16 295.04 70.32 295.6 70.24C295.84 70.16 296.08 70.08 296.32 69.92C296.48 69.76 296.64 69.52 296.88 69.28C299.68 65.6 302.08 62.48 303.84 60.16L303.92 60.32H303.76L303.84 60.16C304.72 58.72 305.04 57.44 305.2 56.56C305.44 55.6 305.44 55.12 305.44 55.12Z" fill="#FFB506"/>
<path d="M314.24 77.68C314.24 77.76 306.16 77.92 296.24 77.92C286.24 77.92 278.24 77.84 278.24 77.68C278.24 77.52 286.32 77.44 296.24 77.44C306.16 77.52 314.24 77.6 314.24 77.68Z" fill="#FFB506"/>
<path d="M304.32 81.44C304.32 81.52 300.72 81.68 296.24 81.68C291.76 81.68 288.16 81.6 288.16 81.44C288.16 81.36 291.76 81.2 296.24 81.2C300.64 81.2 304.32 81.28 304.32 81.44Z" fill="#FFB506"/>
<path d="M273.52 90.72C273.6 90.8 268.96 95.44 263.28 101.12C257.52 106.8 252.8 111.28 252.72 111.2C252.64 111.12 257.2 106.48 262.96 100.8C268.72 95.2 273.44 90.64 273.52 90.72Z" fill="#FFB506"/>
</svg>
